  0
SECTION
  2
HEADER
  9
$ACADVER
  1
AC1006
  9
$INSBASE
  10
0.000000
  20
0.000000
  30
0.000000
  9
$EXTMIN
  10
0.000000
  20
0.000000
  9
$EXTMAX
  10
1000.000000
  20
1000.000000
  0
ENDSEC
  0
SECTION
  2
BLOCKS
  0
BLOCK
  8
0
  2
3_M
  70
64
  10
0
  20
0
  0
TEXT
  8
1
  10
58.125595
  20
134.954575
  50
0.000000
  51
0.000000
  71
0.000000
  1
PIECE NAME: 3
  7
STANDARD
  0
TEXT
  8
1
  10
58.125595
  20
129.954575
  50
0.000000
  51
0.000000
  71
0.000000
  1
SIZE: M
  7
STANDARD
  0
TEXT
  8
1
  10
58.125595
  20
119.954575
  50
0.000000
  51
0.000000
  71
0.000000
  1
QUANTITY: 1
  7
STANDARD
  0
TEXT
  8
1
  10
58.125595
  20
119.954575
  40
0.250000
  50
0.000000
  1
ROTATION: 0
  7
STANDARD
  0
POLYLINE
  8
1
  66
1
  70
1
  250
2
  0
VERTEX
  8
1
  10
39.214462
  20
122.746849
  0
VERTEX
  8
1
  10
33.212021
  20
134.307602
  0
VERTEX
  8
1
  10
34.209091
  20
134.624100
  0
VERTEX
  8
1
  10
35.195423
  20
134.970200
  0
VERTEX
  8
1
  10
36.171001
  20
135.347198
  0
VERTEX
  8
1
  10
37.135849
  20
135.751175
  0
VERTEX
  8
1
  10
38.089951
  20
136.179001
  0
VERTEX
  8
1
  10
39.033802
  20
136.629456
  0
VERTEX
  8
1
  10
39.967392
  20
137.100372
  0
VERTEX
  8
1
  10
40.890732
  20
137.591171
  0
VERTEX
  8
1
  10
41.804794
  20
138.100510
  0
VERTEX
  8
1
  10
42.707142
  20
138.628769
  0
VERTEX
  8
1
  10
43.598743
  20
139.175308
  0
VERTEX
  8
1
  10
44.477654
  20
139.741821
  0
VERTEX
  8
1
  10
46.192490
  20
140.939026
  0
VERTEX
  8
1
  10
47.879990
  20
142.174301
  0
VERTEX
  8
1
  10
48.095810
  20
142.332428
  0
VERTEX
  8
1
  10
48.095810
  20
142.332428
  0
VERTEX
  8
1
  10
49.573841
  20
143.401596
  0
VERTEX
  8
1
  10
50.428329
  20
144.004593
  0
VERTEX
  8
1
  10
51.296001
  20
144.587753
  0
VERTEX
  8
1
  10
52.181751
  20
145.145798
  0
VERTEX
  8
1
  10
53.093372
  20
145.655869
  0
VERTEX
  8
1
  10
54.043072
  20
146.092133
  0
VERTEX
  8
1
  10
55.022572
  20
146.458862
  0
VERTEX
  8
1
  10
56.025501
  20
146.755722
  0
VERTEX
  8
1
  10
57.047962
  20
146.973022
  0
VERTEX
  8
1
  10
58.079212
  20
147.100952
  0
VERTEX
  8
1
  10
59.124622
  20
147.142349
  0
VERTEX
  8
1
  10
59.779400
  20
147.094162
  0
VERTEX
  8
1
  10
60.525013
  20
147.003326
  0
VERTEX
  8
1
  10
61.511818
  20
146.822952
  0
VERTEX
  8
1
  10
62.484482
  20
146.579651
  0
VERTEX
  8
1
  10
63.441509
  20
146.277832
  0
VERTEX
  8
1
  10
64.378525
  20
145.919006
  0
VERTEX
  8
1
  10
65.290154
  20
145.502151
  0
VERTEX
  8
1
  10
66.181259
  20
145.040619
  0
VERTEX
  8
1
  10
67.054794
  20
144.546738
  0
VERTEX
  8
1
  10
67.910751
  20
144.023148
  0
VERTEX
  8
1
  10
67.961533
  20
143.991074
  0
VERTEX
  8
1
  10
67.961533
  20
143.991074
  0
VERTEX
  8
1
  10
68.751572
  20
143.476074
  0
VERTEX
  8
1
  10
68.798447
  20
143.444641
  0
VERTEX
  8
1
  10
68.798447
  20
143.444641
  0
VERTEX
  8
1
  10
69.577744
  20
142.907043
  0
VERTEX
  8
1
  10
71.191025
  20
141.714081
  0
VERTEX
  8
1
  10
72.771591
  20
140.477921
  0
VERTEX
  8
1
  10
74.355568
  20
139.245850
  0
VERTEX
  8
1
  10
75.984970
  20
138.074509
  0
VERTEX
  8
1
  10
76.809677
  20
137.502869
  0
VERTEX
  8
1
  10
77.646591
  20
136.950180
  0
VERTEX
  8
1
  10
78.502060
  20
136.425888
  0
VERTEX
  8
1
  10
79.374130
  20
135.930405
  0
VERTEX
  8
1
  10
80.263779
  20
135.465012
  0
VERTEX
  8
1
  10
81.170517
  20
135.036041
  0
VERTEX
  8
1
  10
82.095322
  20
134.650970
  0
VERTEX
  8
1
  10
83.038681
  20
134.307632
  0
VERTEX
  8
1
  10
76.836533
  20
122.746979
  0
SEQEND
  0
TEXT
  8
1
  10
39.214462
  20
122.746849
  40
0.250000
  50
0.000000
  1
# 67
  7
STANDARD
  0
TEXT
  8
1
  10
33.212021
  20
134.307602
  40
0.250000
  50
0.000000
  1
# 68
  7
STANDARD
  0
TEXT
  8
1
  10
59.124622
  20
147.142349
  40
0.250000
  50
0.000000
  1
# 70
  7
STANDARD
  0
TEXT
  8
1
  10
83.038681
  20
134.307632
  40
0.250000
  50
0.000000
  1
# 73
  7
STANDARD
  0
TEXT
  8
1
  10
76.836533
  20
122.746979
  40
0.250000
  50
0.000000
  1
# 74
  7
STANDARD
  0
POINT
  8
2
  10
39.214462
  20
122.746849
  0
POINT
  8
2
  10
33.212021
  20
134.307602
  0
POINT
  8
2
  10
59.124622
  20
147.142349
  0
POINT
  8
2
  10
83.038681
  20
134.307632
  0
POINT
  8
2
  10
76.836533
  20
122.746979
  0
POINT
  8
3
  10
34.209091
  20
134.624100
  0
POINT
  8
3
  10
35.195423
  20
134.970200
  0
POINT
  8
3
  10
36.171001
  20
135.347198
  0
POINT
  8
3
  10
37.135849
  20
135.751175
  0
POINT
  8
3
  10
38.089951
  20
136.179001
  0
POINT
  8
3
  10
39.033802
  20
136.629456
  0
POINT
  8
3
  10
39.967392
  20
137.100372
  0
POINT
  8
3
  10
40.890732
  20
137.591171
  0
POINT
  8
3
  10
41.804794
  20
138.100510
  0
POINT
  8
3
  10
42.707142
  20
138.628769
  0
POINT
  8
3
  10
43.598743
  20
139.175308
  0
POINT
  8
3
  10
44.477654
  20
139.741821
  0
POINT
  8
3
  10
46.192490
  20
140.939026
  0
POINT
  8
3
  10
47.879990
  20
142.174301
  0
POINT
  8
3
  10
48.095810
  20
142.332428
  0
POINT
  8
3
  10
48.095810
  20
142.332428
  0
POINT
  8
3
  10
49.573841
  20
143.401596
  0
POINT
  8
3
  10
50.428329
  20
144.004593
  0
POINT
  8
3
  10
51.296001
  20
144.587753
  0
POINT
  8
3
  10
52.181751
  20
145.145798
  0
POINT
  8
3
  10
53.093372
  20
145.655869
  0
POINT
  8
3
  10
54.043072
  20
146.092133
  0
POINT
  8
3
  10
55.022572
  20
146.458862
  0
POINT
  8
3
  10
56.025501
  20
146.755722
  0
POINT
  8
3
  10
57.047962
  20
146.973022
  0
POINT
  8
3
  10
58.079212
  20
147.100952
  0
POINT
  8
3
  10
59.779400
  20
147.094162
  0
POINT
  8
3
  10
60.525013
  20
147.003326
  0
POINT
  8
3
  10
61.511818
  20
146.822952
  0
POINT
  8
3
  10
62.484482
  20
146.579651
  0
POINT
  8
3
  10
63.441509
  20
146.277832
  0
POINT
  8
3
  10
64.378525
  20
145.919006
  0
POINT
  8
3
  10
65.290154
  20
145.502151
  0
POINT
  8
3
  10
66.181259
  20
145.040619
  0
POINT
  8
3
  10
67.054794
  20
144.546738
  0
POINT
  8
3
  10
67.910751
  20
144.023148
  0
POINT
  8
3
  10
67.961533
  20
143.991074
  0
POINT
  8
3
  10
67.961533
  20
143.991074
  0
POINT
  8
3
  10
68.751572
  20
143.476074
  0
POINT
  8
3
  10
68.798447
  20
143.444641
  0
POINT
  8
3
  10
68.798447
  20
143.444641
  0
POINT
  8
3
  10
69.577744
  20
142.907043
  0
POINT
  8
3
  10
71.191025
  20
141.714081
  0
POINT
  8
3
  10
72.771591
  20
140.477921
  0
POINT
  8
3
  10
74.355568
  20
139.245850
  0
POINT
  8
3
  10
75.984970
  20
138.074509
  0
POINT
  8
3
  10
76.809677
  20
137.502869
  0
POINT
  8
3
  10
77.646591
  20
136.950180
  0
POINT
  8
3
  10
78.502060
  20
136.425888
  0
POINT
  8
3
  10
79.374130
  20
135.930405
  0
POINT
  8
3
  10
80.263779
  20
135.465012
  0
POINT
  8
3
  10
81.170517
  20
135.036041
  0
POINT
  8
3
  10
82.095322
  20
134.650970
  0
POINT
  8
4
  10
48.095810
  20
142.332428
  30
0.000000
  39
0.000000
  50
304.989868
  0
POINT
  8
4
  10
59.124622
  20
147.142349
  30
0.000000
  39
0.000000
  50
266.923218
  0
POINT
  8
4
  10
67.961533
  20
143.991074
  30
0.000000
  39
0.000000
  50
237.744385
  0
POINT
  8
4
  10
68.798447
  20
143.444641
  30
0.000000
  39
0.000000
  50
235.897659
  0
POLYLINE
  8
84
  66
1
  70
1
  250
2
  0
VERTEX
  8
84
  10
39.214462
  20
122.746849
  0
VERTEX
  8
84
  10
33.212021
  20
134.307602
  0
VERTEX
  8
84
  10
34.209091
  20
134.624100
  0
VERTEX
  8
84
  10
35.195423
  20
134.970200
  0
VERTEX
  8
84
  10
36.171001
  20
135.347198
  0
VERTEX
  8
84
  10
37.135849
  20
135.751175
  0
VERTEX
  8
84
  10
38.089951
  20
136.179001
  0
VERTEX
  8
84
  10
39.033802
  20
136.629456
  0
VERTEX
  8
84
  10
39.967392
  20
137.100372
  0
VERTEX
  8
84
  10
40.890732
  20
137.591171
  0
VERTEX
  8
84
  10
41.804794
  20
138.100510
  0
VERTEX
  8
84
  10
42.707142
  20
138.628769
  0
VERTEX
  8
84
  10
43.598743
  20
139.175308
  0
VERTEX
  8
84
  10
44.477654
  20
139.741821
  0
VERTEX
  8
84
  10
46.192490
  20
140.939026
  0
VERTEX
  8
84
  10
47.879990
  20
142.174301
  0
VERTEX
  8
84
  10
48.095810
  20
142.332428
  0
VERTEX
  8
84
  10
49.573841
  20
143.401596
  0
VERTEX
  8
84
  10
50.428329
  20
144.004593
  0
VERTEX
  8
84
  10
51.296001
  20
144.587753
  0
VERTEX
  8
84
  10
52.181751
  20
145.145798
  0
VERTEX
  8
84
  10
53.093372
  20
145.655869
  0
VERTEX
  8
84
  10
54.043072
  20
146.092133
  0
VERTEX
  8
84
  10
55.022572
  20
146.458862
  0
VERTEX
  8
84
  10
56.025501
  20
146.755722
  0
VERTEX
  8
84
  10
57.047962
  20
146.973022
  0
VERTEX
  8
84
  10
58.079212
  20
147.100952
  0
VERTEX
  8
84
  10
59.124622
  20
147.142349
  0
VERTEX
  8
84
  10
59.779400
  20
147.094162
  0
VERTEX
  8
84
  10
60.525013
  20
147.003326
  0
VERTEX
  8
84
  10
61.511818
  20
146.822952
  0
VERTEX
  8
84
  10
62.484482
  20
146.579651
  0
VERTEX
  8
84
  10
63.441509
  20
146.277832
  0
VERTEX
  8
84
  10
64.378525
  20
145.919006
  0
VERTEX
  8
84
  10
65.290154
  20
145.502151
  0
VERTEX
  8
84
  10
66.181259
  20
145.040619
  0
VERTEX
  8
84
  10
67.054794
  20
144.546738
  0
VERTEX
  8
84
  10
67.910751
  20
144.023148
  0
VERTEX
  8
84
  10
67.961533
  20
143.991074
  0
VERTEX
  8
84
  10
68.751572
  20
143.476074
  0
VERTEX
  8
84
  10
68.798447
  20
143.444641
  0
VERTEX
  8
84
  10
69.577744
  20
142.907043
  0
VERTEX
  8
84
  10
71.191025
  20
141.714081
  0
VERTEX
  8
84
  10
72.771591
  20
140.477921
  0
VERTEX
  8
84
  10
74.355568
  20
139.245850
  0
VERTEX
  8
84
  10
75.984970
  20
138.074509
  0
VERTEX
  8
84
  10
76.809677
  20
137.502869
  0
VERTEX
  8
84
  10
77.646591
  20
136.950180
  0
VERTEX
  8
84
  10
78.502060
  20
136.425888
  0
VERTEX
  8
84
  10
79.374130
  20
135.930405
  0
VERTEX
  8
84
  10
80.263779
  20
135.465012
  0
VERTEX
  8
84
  10
81.170517
  20
135.036041
  0
VERTEX
  8
84
  10
82.095322
  20
134.650970
  0
VERTEX
  8
84
  10
83.038681
  20
134.307632
  0
VERTEX
  8
84
  10
76.836533
  20
122.746979
  0
SEQEND
  0
TEXT
  8
1
  10
39.214462
  20
122.746849
  40
0.250000
  50
0.000000
  1
# 67
  7
STANDARD
  0
TEXT
  8
1
  10
33.212021
  20
134.307602
  40
0.250000
  50
0.000000
  1
# 68
  7
STANDARD
  0
TEXT
  8
1
  10
59.124622
  20
147.142349
  40
0.250000
  50
0.000000
  1
# 70
  7
STANDARD
  0
TEXT
  8
1
  10
83.038681
  20
134.307632
  40
0.250000
  50
0.000000
  1
# 73
  7
STANDARD
  0
TEXT
  8
1
  10
76.836533
  20
122.746979
  40
0.250000
  50
0.000000
  1
# 74
  7
STANDARD
  0
POINT
  8
2
  10
39.214462
  20
122.746849
  0
POINT
  8
2
  10
33.212021
  20
134.307602
  0
POINT
  8
2
  10
59.124622
  20
147.142349
  0
POINT
  8
2
  10
83.038681
  20
134.307632
  0
POINT
  8
2
  10
76.836533
  20
122.746979
  0
POINT
  8
3
  10
34.209091
  20
134.624100
  0
POINT
  8
3
  10
35.195423
  20
134.970200
  0
POINT
  8
3
  10
36.171001
  20
135.347198
  0
POINT
  8
3
  10
37.135849
  20
135.751175
  0
POINT
  8
3
  10
38.089951
  20
136.179001
  0
POINT
  8
3
  10
39.033802
  20
136.629456
  0
POINT
  8
3
  10
39.967392
  20
137.100372
  0
POINT
  8
3
  10
40.890732
  20
137.591171
  0
POINT
  8
3
  10
41.804794
  20
138.100510
  0
POINT
  8
3
  10
42.707142
  20
138.628769
  0
POINT
  8
3
  10
43.598743
  20
139.175308
  0
POINT
  8
3
  10
44.477654
  20
139.741821
  0
POINT
  8
3
  10
46.192490
  20
140.939026
  0
POINT
  8
3
  10
47.879990
  20
142.174301
  0
POINT
  8
3
  10
48.095810
  20
142.332428
  0
POINT
  8
3
  10
48.095810
  20
142.332428
  0
POINT
  8
3
  10
49.573841
  20
143.401596
  0
POINT
  8
3
  10
50.428329
  20
144.004593
  0
POINT
  8
3
  10
51.296001
  20
144.587753
  0
POINT
  8
3
  10
52.181751
  20
145.145798
  0
POINT
  8
3
  10
53.093372
  20
145.655869
  0
POINT
  8
3
  10
54.043072
  20
146.092133
  0
POINT
  8
3
  10
55.022572
  20
146.458862
  0
POINT
  8
3
  10
56.025501
  20
146.755722
  0
POINT
  8
3
  10
57.047962
  20
146.973022
  0
POINT
  8
3
  10
58.079212
  20
147.100952
  0
POINT
  8
3
  10
59.779400
  20
147.094162
  0
POINT
  8
3
  10
60.525013
  20
147.003326
  0
POINT
  8
3
  10
61.511818
  20
146.822952
  0
POINT
  8
3
  10
62.484482
  20
146.579651
  0
POINT
  8
3
  10
63.441509
  20
146.277832
  0
POINT
  8
3
  10
64.378525
  20
145.919006
  0
POINT
  8
3
  10
65.290154
  20
145.502151
  0
POINT
  8
3
  10
66.181259
  20
145.040619
  0
POINT
  8
3
  10
67.054794
  20
144.546738
  0
POINT
  8
3
  10
67.910751
  20
144.023148
  0
POINT
  8
3
  10
67.961533
  20
143.991074
  0
POINT
  8
3
  10
67.961533
  20
143.991074
  0
POINT
  8
3
  10
68.751572
  20
143.476074
  0
POINT
  8
3
  10
68.798447
  20
143.444641
  0
POINT
  8
3
  10
68.798447
  20
143.444641
  0
POINT
  8
3
  10
69.577744
  20
142.907043
  0
POINT
  8
3
  10
71.191025
  20
141.714081
  0
POINT
  8
3
  10
72.771591
  20
140.477921
  0
POINT
  8
3
  10
74.355568
  20
139.245850
  0
POINT
  8
3
  10
75.984970
  20
138.074509
  0
POINT
  8
3
  10
76.809677
  20
137.502869
  0
POINT
  8
3
  10
77.646591
  20
136.950180
  0
POINT
  8
3
  10
78.502060
  20
136.425888
  0
POINT
  8
3
  10
79.374130
  20
135.930405
  0
POINT
  8
3
  10
80.263779
  20
135.465012
  0
POINT
  8
3
  10
81.170517
  20
135.036041
  0
POINT
  8
3
  10
82.095322
  20
134.650970
  0
LINE
  8
7
  10
58.125351
  20
125.944595
  11
58.125351
  21
143.944595
  0
POLYLINE
  8
8
  66
1
  70
0
  250
0
  0
VERTEX
  8
8
  10
58.525501
  20
147.162338
  0
VERTEX
  8
8
  10
58.525501
  20
122.747086
  0
SEQEND
  0
TEXT
  8
1
  10
58.525501
  20
147.162338
  40
0.250000
  50
0.000000
  1
# 76
  7
STANDARD
  0
TEXT
  8
1
  10
58.525501
  20
122.747086
  40
0.250000
  50
0.000000
  1
# 77
  7
STANDARD
  0
POINT
  8
2
  10
58.525501
  20
147.162338
  0
POINT
  8
2
  10
58.525501
  20
122.747086
  0
POLYLINE
  8
85
  66
1
  70
0
  250
1
  0
VERTEX
  8
85
  10
58.525501
  20
147.162338
  0
VERTEX
  8
85
  10
58.525501
  20
122.747086
  0
SEQEND
  0
TEXT
  8
1
  10
58.525501
  20
147.162338
  40
0.250000
  50
0.000000
  1
# 76
  7
STANDARD
  0
TEXT
  8
1
  10
58.525501
  20
122.747086
  40
0.250000
  50
0.000000
  1
# 77
  7
STANDARD
  0
POINT
  8
2
  10
58.525501
  20
147.162338
  0
POINT
  8
2
  10
58.525501
  20
122.747086
  0
POLYLINE
  8
8
  66
1
  70
0
  250
0
  0
VERTEX
  8
8
  10
33.212021
  20
134.307602
  0
VERTEX
  8
8
  10
83.039169
  20
134.307266
  0
SEQEND
  0
TEXT
  8
1
  10
33.212021
  20
134.307602
  40
0.250000
  50
0.000000
  1
# 68
  7
STANDARD
  0
TEXT
  8
1
  10
83.039169
  20
134.307266
  40
0.250000
  50
0.000000
  1
# 73
  7
STANDARD
  0
POINT
  8
2
  10
33.212021
  20
134.307602
  0
POINT
  8
2
  10
83.039169
  20
134.307266
  0
POLYLINE
  8
85
  66
1
  70
0
  250
1
  0
VERTEX
  8
85
  10
33.212021
  20
134.307602
  0
VERTEX
  8
85
  10
83.039169
  20
134.307266
  0
SEQEND
  0
TEXT
  8
1
  10
33.212021
  20
134.307602
  40
0.250000
  50
0.000000
  1
# 68
  7
STANDARD
  0
TEXT
  8
1
  10
83.039169
  20
134.307266
  40
0.250000
  50
0.000000
  1
# 73
  7
STANDARD
  0
POINT
  8
2
  10
33.212021
  20
134.307602
  0
POINT
  8
2
  10
83.039169
  20
134.307266
  0
POLYLINE
  8
8
  66
1
  70
0
  250
0
  0
VERTEX
  8
8
  10
39.214462
  20
123.747192
  0
VERTEX
  8
8
  10
76.836533
  20
123.746979
  0
SEQEND
  0
TEXT
  8
1
  10
39.214462
  20
123.747192
  40
0.250000
  50
0.000000
  1
# 80
  7
STANDARD
  0
TEXT
  8
1
  10
76.836533
  20
123.746979
  40
0.250000
  50
0.000000
  1
# 81
  7
STANDARD
  0
POINT
  8
2
  10
39.214462
  20
123.747192
  0
POINT
  8
2
  10
76.836533
  20
123.746979
  0
POLYLINE
  8
85
  66
1
  70
0
  250
1
  0
VERTEX
  8
85
  10
39.214462
  20
123.747192
  0
VERTEX
  8
85
  10
76.836533
  20
123.746979
  0
SEQEND
  0
TEXT
  8
1
  10
39.214462
  20
123.747192
  40
0.250000
  50
0.000000
  1
# 80
  7
STANDARD
  0
TEXT
  8
1
  10
76.836533
  20
123.746979
  40
0.250000
  50
0.000000
  1
# 81
  7
STANDARD
  0
POINT
  8
2
  10
39.214462
  20
123.747192
  0
POINT
  8
2
  10
76.836533
  20
123.746979
  0
ENDBLK
  0
BLOCK
  8
0
  2
5_M
  70
64
  10
0
  20
0
  0
TEXT
  8
1
  10
15.110872
  20
62.652851
  50
0.000000
  51
0.000000
  71
0.000000
  1
PIECE NAME: 5
  7
STANDARD
  0
TEXT
  8
1
  10
15.110872
  20
57.652851
  50
0.000000
  51
0.000000
  71
0.000000
  1
SIZE: M
  7
STANDARD
  0
TEXT
  8
1
  10
15.110872
  20
47.652851
  50
0.000000
  51
0.000000
  71
0.000000
  1
QUANTITY: 1
  7
STANDARD
  0
TEXT
  8
1
  10
15.110872
  20
47.652851
  40
0.250000
  50
0.000000
  1
ROTATION: 0
  7
STANDARD
  0
POLYLINE
  8
1
  66
1
  70
1
  250
2
  0
VERTEX
  8
1
  10
6.855502
  20
53.006863
  0
VERTEX
  8
1
  10
6.855502
  20
72.298843
  0
VERTEX
  8
1
  10
23.366241
  20
72.298843
  0
VERTEX
  8
1
  10
23.366241
  20
53.006863
  0
SEQEND
  0
TEXT
  8
1
  10
6.855502
  20
53.006863
  40
0.250000
  50
0.000000
  1
# 82
  7
STANDARD
  0
TEXT
  8
1
  10
6.855502
  20
72.298843
  40
0.250000
  50
0.000000
  1
# 83
  7
STANDARD
  0
TEXT
  8
1
  10
23.366241
  20
72.298843
  40
0.250000
  50
0.000000
  1
# 84
  7
STANDARD
  0
TEXT
  8
1
  10
23.366241
  20
53.006863
  40
0.250000
  50
0.000000
  1
# 85
  7
STANDARD
  0
POINT
  8
2
  10
6.855502
  20
53.006863
  0
POINT
  8
2
  10
6.855502
  20
72.298843
  0
POINT
  8
2
  10
23.366241
  20
72.298843
  0
POINT
  8
2
  10
23.366241
  20
53.006863
  0
POLYLINE
  8
84
  66
1
  70
1
  250
2
  0
VERTEX
  8
84
  10
6.855502
  20
53.006863
  0
VERTEX
  8
84
  10
6.855502
  20
72.298843
  0
VERTEX
  8
84
  10
23.366241
  20
72.298843
  0
VERTEX
  8
84
  10
23.366241
  20
53.006863
  0
SEQEND
  0
TEXT
  8
1
  10
6.855502
  20
53.006863
  40
0.250000
  50
0.000000
  1
# 82
  7
STANDARD
  0
TEXT
  8
1
  10
6.855502
  20
72.298843
  40
0.250000
  50
0.000000
  1
# 83
  7
STANDARD
  0
TEXT
  8
1
  10
23.366241
  20
72.298843
  40
0.250000
  50
0.000000
  1
# 84
  7
STANDARD
  0
TEXT
  8
1
  10
23.366241
  20
53.006863
  40
0.250000
  50
0.000000
  1
# 85
  7
STANDARD
  0
POINT
  8
2
  10
6.855502
  20
53.006863
  0
POINT
  8
2
  10
6.855502
  20
72.298843
  0
POINT
  8
2
  10
23.366241
  20
72.298843
  0
POINT
  8
2
  10
23.366241
  20
53.006863
  0
LINE
  8
7
  10
15.110872
  20
53.652855
  11
15.110872
  21
71.652855
  0
POLYLINE
  8
8
  66
1
  70
0
  250
0
  0
VERTEX
  8
8
  10
6.855502
  20
71.298843
  0
VERTEX
  8
8
  10
23.366241
  20
71.298843
  0
SEQEND
  0
TEXT
  8
1
  10
6.855502
  20
71.298843
  40
0.250000
  50
0.000000
  1
# 87
  7
STANDARD
  0
TEXT
  8
1
  10
23.366241
  20
71.298843
  40
0.250000
  50
0.000000
  1
# 88
  7
STANDARD
  0
POINT
  8
2
  10
6.855502
  20
71.298843
  0
POINT
  8
2
  10
23.366241
  20
71.298843
  0
POLYLINE
  8
85
  66
1
  70
0
  250
1
  0
VERTEX
  8
85
  10
6.855502
  20
71.298843
  0
VERTEX
  8
85
  10
23.366241
  20
71.298843
  0
SEQEND
  0
TEXT
  8
1
  10
6.855502
  20
71.298843
  40
0.250000
  50
0.000000
  1
# 87
  7
STANDARD
  0
TEXT
  8
1
  10
23.366241
  20
71.298843
  40
0.250000
  50
0.000000
  1
# 88
  7
STANDARD
  0
POINT
  8
2
  10
6.855502
  20
71.298843
  0
POINT
  8
2
  10
23.366241
  20
71.298843
  0
POLYLINE
  8
8
  66
1
  70
0
  250
0
  0
VERTEX
  8
8
  10
7.005403
  20
72.298843
  0
VERTEX
  8
8
  10
7.005403
  20
53.006863
  0
SEQEND
  0
TEXT
  8
1
  10
7.005403
  20
72.298843
  40
0.250000
  50
0.000000
  1
# 89
  7
STANDARD
  0
TEXT
  8
1
  10
7.005403
  20
53.006863
  40
0.250000
  50
0.000000
  1
# 90
  7
STANDARD
  0
POINT
  8
2
  10
7.005403
  20
72.298843
  0
POINT
  8
2
  10
7.005403
  20
53.006863
  0
POLYLINE
  8
85
  66
1
  70
0
  250
1
  0
VERTEX
  8
85
  10
7.005403
  20
72.298843
  0
VERTEX
  8
85
  10
7.005403
  20
53.006863
  0
SEQEND
  0
TEXT
  8
1
  10
7.005403
  20
72.298843
  40
0.250000
  50
0.000000
  1
# 89
  7
STANDARD
  0
TEXT
  8
1
  10
7.005403
  20
53.006863
  40
0.250000
  50
0.000000
  1
# 90
  7
STANDARD
  0
POINT
  8
2
  10
7.005403
  20
72.298843
  0
POINT
  8
2
  10
7.005403
  20
53.006863
  0
POLYLINE
  8
8
  66
1
  70
0
  250
0
  0
VERTEX
  8
8
  10
23.216341
  20
72.298843
  0
VERTEX
  8
8
  10
23.216341
  20
53.006863
  0
SEQEND
  0
TEXT
  8
1
  10
23.216341
  20
72.298843
  40
0.250000
  50
0.000000
  1
# 91
  7
STANDARD
  0
TEXT
  8
1
  10
23.216341
  20
53.006863
  40
0.250000
  50
0.000000
  1
# 92
  7
STANDARD
  0
POINT
  8
2
  10
23.216341
  20
72.298843
  0
POINT
  8
2
  10
23.216341
  20
53.006863
  0
POLYLINE
  8
85
  66
1
  70
0
  250
1
  0
VERTEX
  8
85
  10
23.216341
  20
72.298843
  0
VERTEX
  8
85
  10
23.216341
  20
53.006863
  0
SEQEND
  0
TEXT
  8
1
  10
23.216341
  20
72.298843
  40
0.250000
  50
0.000000
  1
# 91
  7
STANDARD
  0
TEXT
  8
1
  10
23.216341
  20
53.006863
  40
0.250000
  50
0.000000
  1
# 92
  7
STANDARD
  0
POINT
  8
2
  10
23.216341
  20
72.298843
  0
POINT
  8
2
  10
23.216341
  20
53.006863
  0
ENDBLK
  0
BLOCK
  8
0
  2
7_M
  70
64
  10
0
  20
0
  0
TEXT
  8
1
  10
13.870642
  20
183.679169
  50
0.000000
  51
0.000000
  71
0.000000
  1
PIECE NAME: 7
  7
STANDARD
  0
TEXT
  8
1
  10
13.870642
  20
178.679169
  50
0.000000
  51
0.000000
  71
0.000000
  1
SIZE: M
  7
STANDARD
  0
TEXT
  8
1
  10
13.870642
  20
168.679169
  50
0.000000
  51
0.000000
  71
0.000000
  1
QUANTITY: 1
  7
STANDARD
  0
TEXT
  8
1
  10
13.870642
  20
168.679169
  40
0.250000
  50
0.000000
  1
ROTATION: 0
  7
STANDARD
  0
POLYLINE
  8
1
  66
1
  70
1
  250
2
  0
VERTEX
  8
1
  10
8.578651
  20
176.553253
  0
VERTEX
  8
1
  10
8.578651
  20
190.805084
  0
VERTEX
  8
1
  10
11.578651
  20
190.805084
  0
VERTEX
  8
1
  10
19.162632
  20
190.805084
  0
VERTEX
  8
1
  10
19.162632
  20
176.553253
  0
SEQEND
  0
TEXT
  8
1
  10
8.578651
  20
176.553253
  40
0.250000
  50
0.000000
  1
# 106
  7
STANDARD
  0
TEXT
  8
1
  10
8.578651
  20
190.805084
  40
0.250000
  50
0.000000
  1
# 107
  7
STANDARD
  0
TEXT
  8
1
  10
19.162632
  20
190.805084
  40
0.250000
  50
0.000000
  1
# 109
  7
STANDARD
  0
TEXT
  8
1
  10
19.162632
  20
176.553253
  40
0.250000
  50
0.000000
  1
# 110
  7
STANDARD
  0
POINT
  8
2
  10
8.578651
  20
176.553253
  0
POINT
  8
2
  10
8.578651
  20
190.805084
  0
POINT
  8
2
  10
19.162632
  20
190.805084
  0
POINT
  8
2
  10
19.162632
  20
176.553253
  0
POINT
  8
3
  10
11.578651
  20
190.805084
  0
POINT
  8
4
  10
11.578651
  20
190.805084
  30
0.000000
  39
0.000000
  50
270.000000
  0
POLYLINE
  8
84
  66
1
  70
1
  250
2
  0
VERTEX
  8
84
  10
8.578651
  20
176.553253
  0
VERTEX
  8
84
  10
8.578651
  20
190.805084
  0
VERTEX
  8
84
  10
11.578651
  20
190.805084
  0
VERTEX
  8
84
  10
19.162632
  20
190.805084
  0
VERTEX
  8
84
  10
19.162632
  20
176.553253
  0
SEQEND
  0
TEXT
  8
1
  10
8.578651
  20
176.553253
  40
0.250000
  50
0.000000
  1
# 106
  7
STANDARD
  0
TEXT
  8
1
  10
8.578651
  20
190.805084
  40
0.250000
  50
0.000000
  1
# 107
  7
STANDARD
  0
TEXT
  8
1
  10
19.162632
  20
190.805084
  40
0.250000
  50
0.000000
  1
# 109
  7
STANDARD
  0
TEXT
  8
1
  10
19.162632
  20
176.553253
  40
0.250000
  50
0.000000
  1
# 110
  7
STANDARD
  0
POINT
  8
2
  10
8.578651
  20
176.553253
  0
POINT
  8
2
  10
8.578651
  20
190.805084
  0
POINT
  8
2
  10
19.162632
  20
190.805084
  0
POINT
  8
2
  10
19.162632
  20
176.553253
  0
POINT
  8
3
  10
11.578651
  20
190.805084
  0
LINE
  8
7
  10
13.870642
  20
174.679169
  11
13.870642
  21
192.679169
  0
POLYLINE
  8
8
  66
1
  70
0
  250
1
  0
VERTEX
  8
8
  10
11.578652
  20
190.805084
  0
VERTEX
  8
8
  10
11.578652
  20
189.805084
  0
SEQEND
  0
POINT
  8
2
  10
11.578652
  20
190.805084
  0
POINT
  8
2
  10
11.578652
  20
189.805084
  0
POLYLINE
  8
85
  66
1
  70
0
  250
1
  0
VERTEX
  8
85
  10
11.578652
  20
190.805084
  0
VERTEX
  8
85
  10
11.578652
  20
189.805084
  0
SEQEND
  0
POINT
  8
2
  10
11.578652
  20
190.805084
  0
POINT
  8
2
  10
11.578652
  20
189.805084
  0
POLYLINE
  8
8
  66
1
  70
0
  250
0
  0
VERTEX
  8
8
  10
19.162632
  20
189.805084
  0
VERTEX
  8
8
  10
8.578651
  20
189.805084
  0
SEQEND
  0
TEXT
  8
1
  10
19.162632
  20
189.805084
  40
0.250000
  50
0.000000
  1
# 112
  7
STANDARD
  0
TEXT
  8
1
  10
8.578651
  20
189.805084
  40
0.250000
  50
0.000000
  1
# 113
  7
STANDARD
  0
POINT
  8
2
  10
19.162632
  20
189.805084
  0
POINT
  8
2
  10
8.578651
  20
189.805084
  0
POLYLINE
  8
85
  66
1
  70
0
  250
1
  0
VERTEX
  8
85
  10
19.162632
  20
189.805084
  0
VERTEX
  8
85
  10
8.578651
  20
189.805084
  0
SEQEND
  0
TEXT
  8
1
  10
19.162632
  20
189.805084
  40
0.250000
  50
0.000000
  1
# 112
  7
STANDARD
  0
TEXT
  8
1
  10
8.578651
  20
189.805084
  40
0.250000
  50
0.000000
  1
# 113
  7
STANDARD
  0
POINT
  8
2
  10
19.162632
  20
189.805084
  0
POINT
  8
2
  10
8.578651
  20
189.805084
  0
POLYLINE
  8
8
  66
1
  70
0
  250
0
  0
VERTEX
  8
8
  10
8.728552
  20
190.805084
  0
VERTEX
  8
8
  10
8.728552
  20
176.553253
  0
SEQEND
  0
TEXT
  8
1
  10
8.728552
  20
190.805084
  40
0.250000
  50
0.000000
  1
# 114
  7
STANDARD
  0
TEXT
  8
1
  10
8.728552
  20
176.553253
  40
0.250000
  50
0.000000
  1
# 115
  7
STANDARD
  0
POINT
  8
2
  10
8.728552
  20
190.805084
  0
POINT
  8
2
  10
8.728552
  20
176.553253
  0
POLYLINE
  8
85
  66
1
  70
0
  250
1
  0
VERTEX
  8
85
  10
8.728552
  20
190.805084
  0
VERTEX
  8
85
  10
8.728552
  20
176.553253
  0
SEQEND
  0
TEXT
  8
1
  10
8.728552
  20
190.805084
  40
0.250000
  50
0.000000
  1
# 114
  7
STANDARD
  0
TEXT
  8
1
  10
8.728552
  20
176.553253
  40
0.250000
  50
0.000000
  1
# 115
  7
STANDARD
  0
POINT
  8
2
  10
8.728552
  20
190.805084
  0
POINT
  8
2
  10
8.728552
  20
176.553253
  0
POLYLINE
  8
8
  66
1
  70
0
  250
0
  0
VERTEX
  8
8
  10
19.012732
  20
176.553253
  0
VERTEX
  8
8
  10
19.012732
  20
190.805084
  0
SEQEND
  0
TEXT
  8
1
  10
19.012732
  20
176.553253
  40
0.250000
  50
0.000000
  1
# 116
  7
STANDARD
  0
TEXT
  8
1
  10
19.012732
  20
190.805084
  40
0.250000
  50
0.000000
  1
# 117
  7
STANDARD
  0
POINT
  8
2
  10
19.012732
  20
176.553253
  0
POINT
  8
2
  10
19.012732
  20
190.805084
  0
POLYLINE
  8
85
  66
1
  70
0
  250
1
  0
VERTEX
  8
85
  10
19.012732
  20
176.553253
  0
VERTEX
  8
85
  10
19.012732
  20
190.805084
  0
SEQEND
  0
TEXT
  8
1
  10
19.012732
  20
176.553253
  40
0.250000
  50
0.000000
  1
# 116
  7
STANDARD
  0
TEXT
  8
1
  10
19.012732
  20
190.805084
  40
0.250000
  50
0.000000
  1
# 117
  7
STANDARD
  0
POINT
  8
2
  10
19.012732
  20
176.553253
  0
POINT
  8
2
  10
19.012732
  20
190.805084
  0
POLYLINE
  8
8
  66
1
  70
0
  250
0
  0
VERTEX
  8
8
  10
8.578651
  20
176.703247
  0
VERTEX
  8
8
  10
19.162632
  20
176.703247
  0
SEQEND
  0
TEXT
  8
1
  10
8.578651
  20
176.703247
  40
0.250000
  50
0.000000
  1
# 118
  7
STANDARD
  0
TEXT
  8
1
  10
19.162632
  20
176.703247
  40
0.250000
  50
0.000000
  1
# 119
  7
STANDARD
  0
POINT
  8
2
  10
8.578651
  20
176.703247
  0
POINT
  8
2
  10
19.162632
  20
176.703247
  0
POLYLINE
  8
85
  66
1
  70
0
  250
1
  0
VERTEX
  8
85
  10
8.578651
  20
176.703247
  0
VERTEX
  8
85
  10
19.162632
  20
176.703247
  0
SEQEND
  0
TEXT
  8
1
  10
8.578651
  20
176.703247
  40
0.250000
  50
0.000000
  1
# 118
  7
STANDARD
  0
TEXT
  8
1
  10
19.162632
  20
176.703247
  40
0.250000
  50
0.000000
  1
# 119
  7
STANDARD
  0
POINT
  8
2
  10
8.578651
  20
176.703247
  0
POINT
  8
2
  10
19.162632
  20
176.703247
  0
ENDBLK
  0
BLOCK
  8
0
  2
9_M
  70
64
  10
0
  20
0
  0
TEXT
  8
1
  10
-61.459518
  20
134.954575
  50
0.000000
  51
0.000000
  71
0.000000
  1
PIECE NAME: 9
  7
STANDARD
  0
TEXT
  8
1
  10
-61.459518
  20
129.954575
  50
0.000000
  51
0.000000
  71
0.000000
  1
SIZE: M
  7
STANDARD
  0
TEXT
  8
1
  10
-61.459518
  20
119.954575
  50
0.000000
  51
0.000000
  71
0.000000
  1
QUANTITY: 1
  7
STANDARD
  0
TEXT
  8
1
  10
-61.459518
  20
119.954575
  40
0.250000
  50
0.000000
  1
ROTATION: 0
  7
STANDARD
  0
POLYLINE
  8
1
  66
1
  70
1
  250
2
  0
VERTEX
  8
1
  10
-42.548386
  20
122.746849
  0
VERTEX
  8
1
  10
-36.545944
  20
134.307602
  0
VERTEX
  8
1
  10
-37.543015
  20
134.624100
  0
VERTEX
  8
1
  10
-38.529346
  20
134.970200
  0
VERTEX
  8
1
  10
-39.504925
  20
135.347198
  0
VERTEX
  8
1
  10
-40.469772
  20
135.751175
  0
VERTEX
  8
1
  10
-41.423874
  20
136.179001
  0
VERTEX
  8
1
  10
-42.367725
  20
136.629456
  0
VERTEX
  8
1
  10
-43.301315
  20
137.100372
  0
VERTEX
  8
1
  10
-44.224655
  20
137.591171
  0
VERTEX
  8
1
  10
-45.138718
  20
138.100510
  0
VERTEX
  8
1
  10
-46.041065
  20
138.628769
  0
VERTEX
  8
1
  10
-46.932667
  20
139.175308
  0
VERTEX
  8
1
  10
-47.811577
  20
139.741821
  0
VERTEX
  8
1
  10
-49.526413
  20
140.939026
  0
VERTEX
  8
1
  10
-51.213913
  20
142.174301
  0
VERTEX
  8
1
  10
-51.429733
  20
142.332428
  0
VERTEX
  8
1
  10
-51.429733
  20
142.332428
  0
VERTEX
  8
1
  10
-52.907764
  20
143.401596
  0
VERTEX
  8
1
  10
-53.762253
  20
144.004593
  0
VERTEX
  8
1
  10
-54.629925
  20
144.587753
  0
VERTEX
  8
1
  10
-55.515675
  20
145.145798
  0
VERTEX
  8
1
  10
-56.427296
  20
145.655869
  0
VERTEX
  8
1
  10
-57.376995
  20
146.092133
  0
VERTEX
  8
1
  10
-58.356495
  20
146.458862
  0
VERTEX
  8
1
  10
-59.359425
  20
146.755722
  0
VERTEX
  8
1
  10
-60.381886
  20
146.973022
  0
VERTEX
  8
1
  10
-61.413136
  20
147.100952
  0
VERTEX
  8
1
  10
-62.458546
  20
147.142349
  0
VERTEX
  8
1
  10
-63.113323
  20
147.094162
  0
VERTEX
  8
1
  10
-63.858936
  20
147.003326
  0
VERTEX
  8
1
  10
-64.845741
  20
146.822952
  0
VERTEX
  8
1
  10
-65.818405
  20
146.579651
  0
VERTEX
  8
1
  10
-66.775436
  20
146.277832
  0
VERTEX
  8
1
  10
-67.712448
  20
145.919006
  0
VERTEX
  8
1
  10
-68.624077
  20
145.502151
  0
VERTEX
  8
1
  10
-69.515182
  20
145.040619
  0
VERTEX
  8
1
  10
-70.388718
  20
144.546738
  0
VERTEX
  8
1
  10
-71.244675
  20
144.023148
  0
VERTEX
  8
1
  10
-71.295456
  20
143.991074
  0
VERTEX
  8
1
  10
-71.295456
  20
143.991074
  0
VERTEX
  8
1
  10
-72.085495
  20
143.476074
  0
VERTEX
  8
1
  10
-72.132370
  20
143.444641
  0
VERTEX
  8
1
  10
-72.132370
  20
143.444641
  0
VERTEX
  8
1
  10
-72.911667
  20
142.907043
  0
VERTEX
  8
1
  10
-74.524948
  20
141.714081
  0
VERTEX
  8
1
  10
-76.105515
  20
140.477921
  0
VERTEX
  8
1
  10
-77.689491
  20
139.245850
  0
VERTEX
  8
1
  10
-79.318893
  20
138.074509
  0
VERTEX
  8
1
  10
-80.143600
  20
137.502869
  0
VERTEX
  8
1
  10
-80.980515
  20
136.950180
  0
VERTEX
  8
1
  10
-81.835983
  20
136.425888
  0
VERTEX
  8
1
  10
-82.708054
  20
135.930405
  0
VERTEX
  8
1
  10
-83.597702
  20
135.465012
  0
VERTEX
  8
1
  10
-84.504440
  20
135.036041
  0
VERTEX
  8
1
  10
-85.429245
  20
134.650970
  0
VERTEX
  8
1
  10
-86.372604
  20
134.307632
  0
VERTEX
  8
1
  10
-80.170456
  20
122.746979
  0
SEQEND
  0
TEXT
  8
1
  10
-42.548386
  20
122.746849
  40
0.250000
  50
0.000000
  1
# 67
  7
STANDARD
  0
TEXT
  8
1
  10
-36.545944
  20
134.307602
  40
0.250000
  50
0.000000
  1
# 68
  7
STANDARD
  0
TEXT
  8
1
  10
-62.458546
  20
147.142349
  40
0.250000
  50
0.000000
  1
# 70
  7
STANDARD
  0
TEXT
  8
1
  10
-86.372604
  20
134.307632
  40
0.250000
  50
0.000000
  1
# 73
  7
STANDARD
  0
TEXT
  8
1
  10
-80.170456
  20
122.746979
  40
0.250000
  50
0.000000
  1
# 74
  7
STANDARD
  0
POINT
  8
2
  10
-42.548386
  20
122.746849
  0
POINT
  8
2
  10
-36.545944
  20
134.307602
  0
POINT
  8
2
  10
-62.458546
  20
147.142349
  0
POINT
  8
2
  10
-86.372604
  20
134.307632
  0
POINT
  8
2
  10
-80.170456
  20
122.746979
  0
POINT
  8
3
  10
-37.543015
  20
134.624100
  0
POINT
  8
3
  10
-38.529346
  20
134.970200
  0
POINT
  8
3
  10
-39.504925
  20
135.347198
  0
POINT
  8
3
  10
-40.469772
  20
135.751175
  0
POINT
  8
3
  10
-41.423874
  20
136.179001
  0
POINT
  8
3
  10
-42.367725
  20
136.629456
  0
POINT
  8
3
  10
-43.301315
  20
137.100372
  0
POINT
  8
3
  10
-44.224655
  20
137.591171
  0
POINT
  8
3
  10
-45.138718
  20
138.100510
  0
POINT
  8
3
  10
-46.041065
  20
138.628769
  0
POINT
  8
3
  10
-46.932667
  20
139.175308
  0
POINT
  8
3
  10
-47.811577
  20
139.741821
  0
POINT
  8
3
  10
-49.526413
  20
140.939026
  0
POINT
  8
3
  10
-51.213913
  20
142.174301
  0
POINT
  8
3
  10
-51.429733
  20
142.332428
  0
POINT
  8
3
  10
-51.429733
  20
142.332428
  0
POINT
  8
3
  10
-52.907764
  20
143.401596
  0
POINT
  8
3
  10
-53.762253
  20
144.004593
  0
POINT
  8
3
  10
-54.629925
  20
144.587753
  0
POINT
  8
3
  10
-55.515675
  20
145.145798
  0
POINT
  8
3
  10
-56.427296
  20
145.655869
  0
POINT
  8
3
  10
-57.376995
  20
146.092133
  0
POINT
  8
3
  10
-58.356495
  20
146.458862
  0
POINT
  8
3
  10
-59.359425
  20
146.755722
  0
POINT
  8
3
  10
-60.381886
  20
146.973022
  0
POINT
  8
3
  10
-61.413136
  20
147.100952
  0
POINT
  8
3
  10
-63.113323
  20
147.094162
  0
POINT
  8
3
  10
-63.858936
  20
147.003326
  0
POINT
  8
3
  10
-64.845741
  20
146.822952
  0
POINT
  8
3
  10
-65.818405
  20
146.579651
  0
POINT
  8
3
  10
-66.775436
  20
146.277832
  0
POINT
  8
3
  10
-67.712448
  20
145.919006
  0
POINT
  8
3
  10
-68.624077
  20
145.502151
  0
POINT
  8
3
  10
-69.515182
  20
145.040619
  0
POINT
  8
3
  10
-70.388718
  20
144.546738
  0
POINT
  8
3
  10
-71.244675
  20
144.023148
  0
POINT
  8
3
  10
-71.295456
  20
143.991074
  0
POINT
  8
3
  10
-71.295456
  20
143.991074
  0
POINT
  8
3
  10
-72.085495
  20
143.476074
  0
POINT
  8
3
  10
-72.132370
  20
143.444641
  0
POINT
  8
3
  10
-72.132370
  20
143.444641
  0
POINT
  8
3
  10
-72.911667
  20
142.907043
  0
POINT
  8
3
  10
-74.524948
  20
141.714081
  0
POINT
  8
3
  10
-76.105515
  20
140.477921
  0
POINT
  8
3
  10
-77.689491
  20
139.245850
  0
POINT
  8
3
  10
-79.318893
  20
138.074509
  0
POINT
  8
3
  10
-80.143600
  20
137.502869
  0
POINT
  8
3
  10
-80.980515
  20
136.950180
  0
POINT
  8
3
  10
-81.835983
  20
136.425888
  0
POINT
  8
3
  10
-82.708054
  20
135.930405
  0
POINT
  8
3
  10
-83.597702
  20
135.465012
  0
POINT
  8
3
  10
-84.504440
  20
135.036041
  0
POINT
  8
3
  10
-85.429245
  20
134.650970
  0
POINT
  8
4
  10
-51.429733
  20
142.332428
  30
0.000000
  39
0.000000
  50
235.010117
  0
POINT
  8
4
  10
-62.458546
  20
147.142349
  30
0.000000
  39
0.000000
  50
273.076782
  0
POINT
  8
4
  10
-71.295456
  20
143.991074
  30
0.000000
  39
0.000000
  50
302.255615
  0
POINT
  8
4
  10
-72.132370
  20
143.444641
  30
0.000000
  39
0.000000
  50
304.102325
  0
POLYLINE
  8
84
  66
1
  70
1
  250
2
  0
VERTEX
  8
84
  10
-42.548386
  20
122.746849
  0
VERTEX
  8
84
  10
-36.545944
  20
134.307602
  0
VERTEX
  8
84
  10
-37.543015
  20
134.624100
  0
VERTEX
  8
84
  10
-38.529346
  20
134.970200
  0
VERTEX
  8
84
  10
-39.504925
  20
135.347198
  0
VERTEX
  8
84
  10
-40.469772
  20
135.751175
  0
VERTEX
  8
84
  10
-41.423874
  20
136.179001
  0
VERTEX
  8
84
  10
-42.367725
  20
136.629456
  0
VERTEX
  8
84
  10
-43.301315
  20
137.100372
  0
VERTEX
  8
84
  10
-44.224655
  20
137.591171
  0
VERTEX
  8
84
  10
-45.138718
  20
138.100510
  0
VERTEX
  8
84
  10
-46.041065
  20
138.628769
  0
VERTEX
  8
84
  10
-46.932667
  20
139.175308
  0
VERTEX
  8
84
  10
-47.811577
  20
139.741821
  0
VERTEX
  8
84
  10
-49.526413
  20
140.939026
  0
VERTEX
  8
84
  10
-51.213913
  20
142.174301
  0
VERTEX
  8
84
  10
-51.429733
  20
142.332428
  0
VERTEX
  8
84
  10
-52.907764
  20
143.401596
  0
VERTEX
  8
84
  10
-53.762253
  20
144.004593
  0
VERTEX
  8
84
  10
-54.629925
  20
144.587753
  0
VERTEX
  8
84
  10
-55.515675
  20
145.145798
  0
VERTEX
  8
84
  10
-56.427296
  20
145.655869
  0
VERTEX
  8
84
  10
-57.376995
  20
146.092133
  0
VERTEX
  8
84
  10
-58.356495
  20
146.458862
  0
VERTEX
  8
84
  10
-59.359425
  20
146.755722
  0
VERTEX
  8
84
  10
-60.381886
  20
146.973022
  0
VERTEX
  8
84
  10
-61.413136
  20
147.100952
  0
VERTEX
  8
84
  10
-62.458546
  20
147.142349
  0
VERTEX
  8
84
  10
-63.113323
  20
147.094162
  0
VERTEX
  8
84
  10
-63.858936
  20
147.003326
  0
VERTEX
  8
84
  10
-64.845741
  20
146.822952
  0
VERTEX
  8
84
  10
-65.818405
  20
146.579651
  0
VERTEX
  8
84
  10
-66.775436
  20
146.277832
  0
VERTEX
  8
84
  10
-67.712448
  20
145.919006
  0
VERTEX
  8
84
  10
-68.624077
  20
145.502151
  0
VERTEX
  8
84
  10
-69.515182
  20
145.040619
  0
VERTEX
  8
84
  10
-70.388718
  20
144.546738
  0
VERTEX
  8
84
  10
-71.244675
  20
144.023148
  0
VERTEX
  8
84
  10
-71.295456
  20
143.991074
  0
VERTEX
  8
84
  10
-72.085495
  20
143.476074
  0
VERTEX
  8
84
  10
-72.132370
  20
143.444641
  0
VERTEX
  8
84
  10
-72.911667
  20
142.907043
  0
VERTEX
  8
84
  10
-74.524948
  20
141.714081
  0
VERTEX
  8
84
  10
-76.105515
  20
140.477921
  0
VERTEX
  8
84
  10
-77.689491
  20
139.245850
  0
VERTEX
  8
84
  10
-79.318893
  20
138.074509
  0
VERTEX
  8
84
  10
-80.143600
  20
137.502869
  0
VERTEX
  8
84
  10
-80.980515
  20
136.950180
  0
VERTEX
  8
84
  10
-81.835983
  20
136.425888
  0
VERTEX
  8
84
  10
-82.708054
  20
135.930405
  0
VERTEX
  8
84
  10
-83.597702
  20
135.465012
  0
VERTEX
  8
84
  10
-84.504440
  20
135.036041
  0
VERTEX
  8
84
  10
-85.429245
  20
134.650970
  0
VERTEX
  8
84
  10
-86.372604
  20
134.307632
  0
VERTEX
  8
84
  10
-80.170456
  20
122.746979
  0
SEQEND
  0
TEXT
  8
1
  10
-42.548386
  20
122.746849
  40
0.250000
  50
0.000000
  1
# 67
  7
STANDARD
  0
TEXT
  8
1
  10
-36.545944
  20
134.307602
  40
0.250000
  50
0.000000
  1
# 68
  7
STANDARD
  0
TEXT
  8
1
  10
-62.458546
  20
147.142349
  40
0.250000
  50
0.000000
  1
# 70
  7
STANDARD
  0
TEXT
  8
1
  10
-86.372604
  20
134.307632
  40
0.250000
  50
0.000000
  1
# 73
  7
STANDARD
  0
TEXT
  8
1
  10
-80.170456
  20
122.746979
  40
0.250000
  50
0.000000
  1
# 74
  7
STANDARD
  0
POINT
  8
2
  10
-42.548386
  20
122.746849
  0
POINT
  8
2
  10
-36.545944
  20
134.307602
  0
POINT
  8
2
  10
-62.458546
  20
147.142349
  0
POINT
  8
2
  10
-86.372604
  20
134.307632
  0
POINT
  8
2
  10
-80.170456
  20
122.746979
  0
POINT
  8
3
  10
-37.543015
  20
134.624100
  0
POINT
  8
3
  10
-38.529346
  20
134.970200
  0
POINT
  8
3
  10
-39.504925
  20
135.347198
  0
POINT
  8
3
  10
-40.469772
  20
135.751175
  0
POINT
  8
3
  10
-41.423874
  20
136.179001
  0
POINT
  8
3
  10
-42.367725
  20
136.629456
  0
POINT
  8
3
  10
-43.301315
  20
137.100372
  0
POINT
  8
3
  10
-44.224655
  20
137.591171
  0
POINT
  8
3
  10
-45.138718
  20
138.100510
  0
POINT
  8
3
  10
-46.041065
  20
138.628769
  0
POINT
  8
3
  10
-46.932667
  20
139.175308
  0
POINT
  8
3
  10
-47.811577
  20
139.741821
  0
POINT
  8
3
  10
-49.526413
  20
140.939026
  0
POINT
  8
3
  10
-51.213913
  20
142.174301
  0
POINT
  8
3
  10
-51.429733
  20
142.332428
  0
POINT
  8
3
  10
-51.429733
  20
142.332428
  0
POINT
  8
3
  10
-52.907764
  20
143.401596
  0
POINT
  8
3
  10
-53.762253
  20
144.004593
  0
POINT
  8
3
  10
-54.629925
  20
144.587753
  0
POINT
  8
3
  10
-55.515675
  20
145.145798
  0
POINT
  8
3
  10
-56.427296
  20
145.655869
  0
POINT
  8
3
  10
-57.376995
  20
146.092133
  0
POINT
  8
3
  10
-58.356495
  20
146.458862
  0
POINT
  8
3
  10
-59.359425
  20
146.755722
  0
POINT
  8
3
  10
-60.381886
  20
146.973022
  0
POINT
  8
3
  10
-61.413136
  20
147.100952
  0
POINT
  8
3
  10
-63.113323
  20
147.094162
  0
POINT
  8
3
  10
-63.858936
  20
147.003326
  0
POINT
  8
3
  10
-64.845741
  20
146.822952
  0
POINT
  8
3
  10
-65.818405
  20
146.579651
  0
POINT
  8
3
  10
-66.775436
  20
146.277832
  0
POINT
  8
3
  10
-67.712448
  20
145.919006
  0
POINT
  8
3
  10
-68.624077
  20
145.502151
  0
POINT
  8
3
  10
-69.515182
  20
145.040619
  0
POINT
  8
3
  10
-70.388718
  20
144.546738
  0
POINT
  8
3
  10
-71.244675
  20
144.023148
  0
POINT
  8
3
  10
-71.295456
  20
143.991074
  0
POINT
  8
3
  10
-71.295456
  20
143.991074
  0
POINT
  8
3
  10
-72.085495
  20
143.476074
  0
POINT
  8
3
  10
-72.132370
  20
143.444641
  0
POINT
  8
3
  10
-72.132370
  20
143.444641
  0
POINT
  8
3
  10
-72.911667
  20
142.907043
  0
POINT
  8
3
  10
-74.524948
  20
141.714081
  0
POINT
  8
3
  10
-76.105515
  20
140.477921
  0
POINT
  8
3
  10
-77.689491
  20
139.245850
  0
POINT
  8
3
  10
-79.318893
  20
138.074509
  0
POINT
  8
3
  10
-80.143600
  20
137.502869
  0
POINT
  8
3
  10
-80.980515
  20
136.950180
  0
POINT
  8
3
  10
-81.835983
  20
136.425888
  0
POINT
  8
3
  10
-82.708054
  20
135.930405
  0
POINT
  8
3
  10
-83.597702
  20
135.465012
  0
POINT
  8
3
  10
-84.504440
  20
135.036041
  0
POINT
  8
3
  10
-85.429245
  20
134.650970
  0
LINE
  8
7
  10
-61.459274
  20
125.944595
  11
-61.459274
  21
143.944595
  0
POLYLINE
  8
8
  66
1
  70
0
  250
0
  0
VERTEX
  8
8
  10
-61.859425
  20
147.162338
  0
VERTEX
  8
8
  10
-61.859425
  20
122.747086
  0
SEQEND
  0
TEXT
  8
1
  10
-61.859425
  20
147.162338
  40
0.250000
  50
0.000000
  1
# 76
  7
STANDARD
  0
TEXT
  8
1
  10
-61.859425
  20
122.747086
  40
0.250000
  50
0.000000
  1
# 77
  7
STANDARD
  0
POINT
  8
2
  10
-61.859425
  20
147.162338
  0
POINT
  8
2
  10
-61.859425
  20
122.747086
  0
POLYLINE
  8
85
  66
1
  70
0
  250
1
  0
VERTEX
  8
85
  10
-61.859425
  20
147.162338
  0
VERTEX
  8
85
  10
-61.859425
  20
122.747086
  0
SEQEND
  0
TEXT
  8
1
  10
-61.859425
  20
147.162338
  40
0.250000
  50
0.000000
  1
# 76
  7
STANDARD
  0
TEXT
  8
1
  10
-61.859425
  20
122.747086
  40
0.250000
  50
0.000000
  1
# 77
  7
STANDARD
  0
POINT
  8
2
  10
-61.859425
  20
147.162338
  0
POINT
  8
2
  10
-61.859425
  20
122.747086
  0
POLYLINE
  8
8
  66
1
  70
0
  250
0
  0
VERTEX
  8
8
  10
-36.545944
  20
134.307602
  0
VERTEX
  8
8
  10
-86.373093
  20
134.307266
  0
SEQEND
  0
TEXT
  8
1
  10
-36.545944
  20
134.307602
  40
0.250000
  50
0.000000
  1
# 68
  7
STANDARD
  0
TEXT
  8
1
  10
-86.373093
  20
134.307266
  40
0.250000
  50
0.000000
  1
# 73
  7
STANDARD
  0
POINT
  8
2
  10
-36.545944
  20
134.307602
  0
POINT
  8
2
  10
-86.373093
  20
134.307266
  0
POLYLINE
  8
85
  66
1
  70
0
  250
1
  0
VERTEX
  8
85
  10
-36.545944
  20
134.307602
  0
VERTEX
  8
85
  10
-86.373093
  20
134.307266
  0
SEQEND
  0
TEXT
  8
1
  10
-36.545944
  20
134.307602
  40
0.250000
  50
0.000000
  1
# 68
  7
STANDARD
  0
TEXT
  8
1
  10
-86.373093
  20
134.307266
  40
0.250000
  50
0.000000
  1
# 73
  7
STANDARD
  0
POINT
  8
2
  10
-36.545944
  20
134.307602
  0
POINT
  8
2
  10
-86.373093
  20
134.307266
  0
POLYLINE
  8
8
  66
1
  70
0
  250
0
  0
VERTEX
  8
8
  10
-42.548386
  20
123.747192
  0
VERTEX
  8
8
  10
-80.170456
  20
123.746979
  0
SEQEND
  0
TEXT
  8
1
  10
-42.548386
  20
123.747192
  40
0.250000
  50
0.000000
  1
# 80
  7
STANDARD
  0
TEXT
  8
1
  10
-80.170456
  20
123.746979
  40
0.250000
  50
0.000000
  1
# 81
  7
STANDARD
  0
POINT
  8
2
  10
-42.548386
  20
123.747192
  0
POINT
  8
2
  10
-80.170456
  20
123.746979
  0
POLYLINE
  8
85
  66
1
  70
0
  250
1
  0
VERTEX
  8
85
  10
-42.548386
  20
123.747192
  0
VERTEX
  8
85
  10
-80.170456
  20
123.746979
  0
SEQEND
  0
TEXT
  8
1
  10
-42.548386
  20
123.747192
  40
0.250000
  50
0.000000
  1
# 80
  7
STANDARD
  0
TEXT
  8
1
  10
-80.170456
  20
123.746979
  40
0.250000
  50
0.000000
  1
# 81
  7
STANDARD
  0
POINT
  8
2
  10
-42.548386
  20
123.747192
  0
POINT
  8
2
  10
-80.170456
  20
123.746979
  0
ENDBLK
  0
BLOCK
  8
0
  2
10_M
  70
64
  10
0
  20
0
  0
TEXT
  8
1
  10
-22.694761
  20
62.652851
  50
0.000000
  51
0.000000
  71
0.000000
  1
PIECE NAME: 10
  7
STANDARD
  0
TEXT
  8
1
  10
-22.694761
  20
57.652851
  50
0.000000
  51
0.000000
  71
0.000000
  1
SIZE: M
  7
STANDARD
  0
TEXT
  8
1
  10
-22.694761
  20
47.652851
  50
0.000000
  51
0.000000
  71
0.000000
  1
QUANTITY: 1
  7
STANDARD
  0
TEXT
  8
1
  10
-22.694761
  20
47.652851
  40
0.250000
  50
0.000000
  1
ROTATION: 0
  7
STANDARD
  0
POLYLINE
  8
1
  66
1
  70
1
  250
2
  0
VERTEX
  8
1
  10
-14.439391
  20
53.006863
  0
VERTEX
  8
1
  10
-14.439391
  20
72.298843
  0
VERTEX
  8
1
  10
-30.950130
  20
72.298843
  0
VERTEX
  8
1
  10
-30.950130
  20
53.006863
  0
SEQEND
  0
TEXT
  8
1
  10
-14.439391
  20
53.006863
  40
0.250000
  50
0.000000
  1
# 82
  7
STANDARD
  0
TEXT
  8
1
  10
-14.439391
  20
72.298843
  40
0.250000
  50
0.000000
  1
# 83
  7
STANDARD
  0
TEXT
  8
1
  10
-30.950130
  20
72.298843
  40
0.250000
  50
0.000000
  1
# 84
  7
STANDARD
  0
TEXT
  8
1
  10
-30.950130
  20
53.006863
  40
0.250000
  50
0.000000
  1
# 85
  7
STANDARD
  0
POINT
  8
2
  10
-14.439391
  20
53.006863
  0
POINT
  8
2
  10
-14.439391
  20
72.298843
  0
POINT
  8
2
  10
-30.950130
  20
72.298843
  0
POINT
  8
2
  10
-30.950130
  20
53.006863
  0
POLYLINE
  8
84
  66
1
  70
1
  250
2
  0
VERTEX
  8
84
  10
-14.439391
  20
53.006863
  0
VERTEX
  8
84
  10
-14.439391
  20
72.298843
  0
VERTEX
  8
84
  10
-30.950130
  20
72.298843
  0
VERTEX
  8
84
  10
-30.950130
  20
53.006863
  0
SEQEND
  0
TEXT
  8
1
  10
-14.439391
  20
53.006863
  40
0.250000
  50
0.000000
  1
# 82
  7
STANDARD
  0
TEXT
  8
1
  10
-14.439391
  20
72.298843
  40
0.250000
  50
0.000000
  1
# 83
  7
STANDARD
  0
TEXT
  8
1
  10
-30.950130
  20
72.298843
  40
0.250000
  50
0.000000
  1
# 84
  7
STANDARD
  0
TEXT
  8
1
  10
-30.950130
  20
53.006863
  40
0.250000
  50
0.000000
  1
# 85
  7
STANDARD
  0
POINT
  8
2
  10
-14.439391
  20
53.006863
  0
POINT
  8
2
  10
-14.439391
  20
72.298843
  0
POINT
  8
2
  10
-30.950130
  20
72.298843
  0
POINT
  8
2
  10
-30.950130
  20
53.006863
  0
LINE
  8
7
  10
-22.694761
  20
53.652855
  11
-22.694761
  21
71.652855
  0
POLYLINE
  8
8
  66
1
  70
0
  250
0
  0
VERTEX
  8
8
  10
-14.439391
  20
71.298843
  0
VERTEX
  8
8
  10
-30.950130
  20
71.298843
  0
SEQEND
  0
TEXT
  8
1
  10
-14.439391
  20
71.298843
  40
0.250000
  50
0.000000
  1
# 87
  7
STANDARD
  0
TEXT
  8
1
  10
-30.950130
  20
71.298843
  40
0.250000
  50
0.000000
  1
# 88
  7
STANDARD
  0
POINT
  8
2
  10
-14.439391
  20
71.298843
  0
POINT
  8
2
  10
-30.950130
  20
71.298843
  0
POLYLINE
  8
85
  66
1
  70
0
  250
1
  0
VERTEX
  8
85
  10
-14.439391
  20
71.298843
  0
VERTEX
  8
85
  10
-30.950130
  20
71.298843
  0
SEQEND
  0
TEXT
  8
1
  10
-14.439391
  20
71.298843
  40
0.250000
  50
0.000000
  1
# 87
  7
STANDARD
  0
TEXT
  8
1
  10
-30.950130
  20
71.298843
  40
0.250000
  50
0.000000
  1
# 88
  7
STANDARD
  0
POINT
  8
2
  10
-14.439391
  20
71.298843
  0
POINT
  8
2
  10
-30.950130
  20
71.298843
  0
POLYLINE
  8
8
  66
1
  70
0
  250
0
  0
VERTEX
  8
8
  10
-14.589292
  20
72.298843
  0
VERTEX
  8
8
  10
-14.589292
  20
53.006863
  0
SEQEND
  0
TEXT
  8
1
  10
-14.589292
  20
72.298843
  40
0.250000
  50
0.000000
  1
# 89
  7
STANDARD
  0
TEXT
  8
1
  10
-14.589292
  20
53.006863
  40
0.250000
  50
0.000000
  1
# 90
  7
STANDARD
  0
POINT
  8
2
  10
-14.589292
  20
72.298843
  0
POINT
  8
2
  10
-14.589292
  20
53.006863
  0
POLYLINE
  8
85
  66
1
  70
0
  250
1
  0
VERTEX
  8
85
  10
-14.589292
  20
72.298843
  0
VERTEX
  8
85
  10
-14.589292
  20
53.006863
  0
SEQEND
  0
TEXT
  8
1
  10
-14.589292
  20
72.298843
  40
0.250000
  50
0.000000
  1
# 89
  7
STANDARD
  0
TEXT
  8
1
  10
-14.589292
  20
53.006863
  40
0.250000
  50
0.000000
  1
# 90
  7
STANDARD
  0
POINT
  8
2
  10
-14.589292
  20
72.298843
  0
POINT
  8
2
  10
-14.589292
  20
53.006863
  0
POLYLINE
  8
8
  66
1
  70
0
  250
0
  0
VERTEX
  8
8
  10
-30.800230
  20
72.298843
  0
VERTEX
  8
8
  10
-30.800230
  20
53.006863
  0
SEQEND
  0
TEXT
  8
1
  10
-30.800230
  20
72.298843
  40
0.250000
  50
0.000000
  1
# 91
  7
STANDARD
  0
TEXT
  8
1
  10
-30.800230
  20
53.006863
  40
0.250000
  50
0.000000
  1
# 92
  7
STANDARD
  0
POINT
  8
2
  10
-30.800230
  20
72.298843
  0
POINT
  8
2
  10
-30.800230
  20
53.006863
  0
POLYLINE
  8
85
  66
1
  70
0
  250
1
  0
VERTEX
  8
85
  10
-30.800230
  20
72.298843
  0
VERTEX
  8
85
  10
-30.800230
  20
53.006863
  0
SEQEND
  0
TEXT
  8
1
  10
-30.800230
  20
72.298843
  40
0.250000
  50
0.000000
  1
# 91
  7
STANDARD
  0
TEXT
  8
1
  10
-30.800230
  20
53.006863
  40
0.250000
  50
0.000000
  1
# 92
  7
STANDARD
  0
POINT
  8
2
  10
-30.800230
  20
72.298843
  0
POINT
  8
2
  10
-30.800230
  20
53.006863
  0
ENDBLK
  0
BLOCK
  8
0
  2
2_M
  70
64
  10
0
  20
0
  0
TEXT
  8
1
  10
116.892593
  20
127.483223
  50
0.000000
  51
0.000000
  71
0.000000
  1
PIECE NAME: 2
  7
STANDARD
  0
TEXT
  8
1
  10
116.892593
  20
122.483223
  50
0.000000
  51
0.000000
  71
0.000000
  1
SIZE: M
  7
STANDARD
  0
TEXT
  8
1
  10
116.892593
  20
112.483223
  50
0.000000
  51
0.000000
  71
0.000000
  1
QUANTITY: 1
  7
STANDARD
  0
TEXT
  8
1
  10
116.892593
  20
112.483223
  40
0.250000
  50
0.000000
  1
ROTATION: 0
  7
STANDARD
  0
POLYLINE
  8
1
  66
1
  70
1
  250
2
  0
VERTEX
  8
1
  10
116.892593
  20
90.717949
  0
VERTEX
  8
1
  10
88.892593
  20
90.717949
  0
VERTEX
  8
1
  10
87.882828
  20
134.944580
  0
VERTEX
  8
1
  10
88.785172
  20
135.346008
  0
VERTEX
  8
1
  10
89.613297
  20
135.852310
  0
VERTEX
  8
1
  10
90.379410
  20
136.463837
  0
VERTEX
  8
1
  10
91.052750
  20
137.173294
  0
VERTEX
  8
1
  10
91.602066
  20
137.980392
  0
VERTEX
  8
1
  10
92.054214
  20
138.852661
  0
VERTEX
  8
1
  10
92.426285
  20
139.757355
  0
VERTEX
  8
1
  10
92.728531
  20
140.690277
  0
VERTEX
  8
1
  10
92.976089
  20
141.637756
  0
VERTEX
  8
1
  10
93.175797
  20
142.597443
  0
VERTEX
  8
1
  10
93.340347
  20
143.563095
  0
VERTEX
  8
1
  10
93.471695
  20
144.534195
  0
VERTEX
  8
1
  10
93.574722
  20
145.508408
  0
VERTEX
  8
1
  10
93.652847
  20
146.485123
  0
VERTEX
  8
1
  10
93.751480
  20
148.442200
  0
VERTEX
  8
1
  10
93.813980
  20
149.763535
  0
VERTEX
  8
1
  10
93.836441
  20
150.399963
  0
VERTEX
  8
1
  10
93.844742
  20
150.763062
  0
VERTEX
  8
1
  10
93.852554
  20
152.359406
  0
VERTEX
  8
1
  10
93.811539
  20
154.318542
  0
VERTEX
  8
1
  10
93.768082
  20
155.297501
  0
VERTEX
  8
1
  10
93.700211
  20
156.274719
  0
VERTEX
  8
1
  10
93.599625
  20
157.249420
  0
VERTEX
  8
1
  10
93.463882
  20
158.219589
  0
VERTEX
  8
1
  10
93.288101
  20
159.182632
  0
VERTEX
  8
1
  10
93.074234
  20
160.139664
  0
VERTEX
  8
1
  10
105.615234
  20
164.248489
  0
VERTEX
  8
1
  10
105.842789
  20
163.925385
  0
VERTEX
  8
1
  10
106.524429
  20
163.054535
  0
VERTEX
  8
1
  10
107.292007
  20
162.267487
  0
VERTEX
  8
1
  10
108.267105
  20
161.513763
  0
VERTEX
  8
1
  10
109.332535
  20
160.897186
  0
VERTEX
  8
1
  10
110.423843
  20
160.481949
  0
VERTEX
  8
1
  10
111.563980
  20
160.197769
  0
VERTEX
  8
1
  10
112.557144
  20
160.049103
  0
VERTEX
  8
1
  10
113.562515
  20
159.972885
  0
VERTEX
  8
1
  10
114.417496
  20
159.939667
  0
VERTEX
  8
1
  10
115.273453
  20
159.931290
  0
VERTEX
  8
1
  10
116.892593
  20
159.924210
  0
VERTEX
  8
1
  10
118.511734
  20
159.931290
  0
VERTEX
  8
1
  10
119.367691
  20
159.939667
  0
VERTEX
  8
1
  10
120.222672
  20
159.972885
  0
VERTEX
  8
1
  10
121.228043
  20
160.049103
  0
VERTEX
  8
1
  10
122.221207
  20
160.197769
  0
VERTEX
  8
1
  10
123.361343
  20
160.481949
  0
VERTEX
  8
1
  10
124.452652
  20
160.897186
  0
VERTEX
  8
1
  10
125.518082
  20
161.513763
  0
VERTEX
  8
1
  10
126.493179
  20
162.267487
  0
VERTEX
  8
1
  10
127.260757
  20
163.054535
  0
VERTEX
  8
1
  10
127.942398
  20
163.925385
  0
VERTEX
  8
1
  10
128.169937
  20
164.248489
  0
VERTEX
  8
1
  10
140.710953
  20
160.139664
  0
VERTEX
  8
1
  10
140.497086
  20
159.182632
  0
VERTEX
  8
1
  10
140.321304
  20
158.219589
  0
VERTEX
  8
1
  10
140.185562
  20
157.249420
  0
VERTEX
  8
1
  10
140.084976
  20
156.274719
  0
VERTEX
  8
1
  10
140.017105
  20
155.297501
  0
VERTEX
  8
1
  10
139.973648
  20
154.318542
  0
VERTEX
  8
1
  10
139.932632
  20
152.359406
  0
VERTEX
  8
1
  10
139.940445
  20
150.763062
  0
VERTEX
  8
1
  10
139.940445
  20
150.763062
  0
VERTEX
  8
1
  10
139.948746
  20
150.399963
  0
VERTEX
  8
1
  10
139.971207
  20
149.763535
  0
VERTEX
  8
1
  10
140.033707
  20
148.442200
  0
VERTEX
  8
1
  10
140.132339
  20
146.485123
  0
VERTEX
  8
1
  10
140.210464
  20
145.508408
  0
VERTEX
  8
1
  10
140.313492
  20
144.534195
  0
VERTEX
  8
1
  10
140.444839
  20
143.563095
  0
VERTEX
  8
1
  10
140.609390
  20
142.597443
  0
VERTEX
  8
1
  10
140.809097
  20
141.637756
  0
VERTEX
  8
1
  10
141.056656
  20
140.690277
  0
VERTEX
  8
1
  10
141.358902
  20
139.757355
  0
VERTEX
  8
1
  10
141.730972
  20
138.852661
  0
VERTEX
  8
1
  10
142.183121
  20
137.980392
  0
VERTEX
  8
1
  10
142.732437
  20
137.173294
  0
VERTEX
  8
1
  10
143.405777
  20
136.463837
  0
VERTEX
  8
1
  10
144.171890
  20
135.852310
  0
VERTEX
  8
1
  10
145.000015
  20
135.346008
  0
VERTEX
  8
1
  10
145.902359
  20
134.944580
  0
VERTEX
  8
1
  10
144.892593
  20
90.717949
  0
SEQEND
  0
POINT
  8
2
  10
116.892593
  20
90.717949
  0
POINT
  8
2
  10
88.892593
  20
90.717949
  0
POINT
  8
2
  10
87.882828
  20
134.944580
  0
POINT
  8
2
  10
93.074234
  20
160.139664
  0
POINT
  8
2
  10
105.615234
  20
164.248489
  0
POINT
  8
2
  10
116.892593
  20
159.924210
  0
POINT
  8
2
  10
128.169937
  20
164.248489
  0
POINT
  8
2
  10
140.710953
  20
160.139664
  0
POINT
  8
2
  10
145.902359
  20
134.944580
  0
POINT
  8
2
  10
144.892593
  20
90.717949
  0
POINT
  8
3
  10
88.785172
  20
135.346008
  0
POINT
  8
3
  10
89.613297
  20
135.852310
  0
POINT
  8
3
  10
90.379410
  20
136.463837
  0
POINT
  8
3
  10
91.052750
  20
137.173294
  0
POINT
  8
3
  10
91.602066
  20
137.980392
  0
POINT
  8
3
  10
92.054214
  20
138.852661
  0
POINT
  8
3
  10
92.426285
  20
139.757355
  0
POINT
  8
3
  10
92.728531
  20
140.690277
  0
POINT
  8
3
  10
92.976089
  20
141.637756
  0
POINT
  8
3
  10
93.175797
  20
142.597443
  0
POINT
  8
3
  10
93.340347
  20
143.563095
  0
POINT
  8
3
  10
93.471695
  20
144.534195
  0
POINT
  8
3
  10
93.574722
  20
145.508408
  0
POINT
  8
3
  10
93.652847
  20
146.485123
  0
POINT
  8
3
  10
93.751480
  20
148.442200
  0
POINT
  8
3
  10
93.813980
  20
149.763535
  0
POINT
  8
3
  10
93.836441
  20
150.399963
  0
POINT
  8
3
  10
93.844742
  20
150.763062
  0
POINT
  8
3
  10
93.852554
  20
152.359406
  0
POINT
  8
3
  10
93.811539
  20
154.318542
  0
POINT
  8
3
  10
93.768082
  20
155.297501
  0
POINT
  8
3
  10
93.700211
  20
156.274719
  0
POINT
  8
3
  10
93.599625
  20
157.249420
  0
POINT
  8
3
  10
93.463882
  20
158.219589
  0
POINT
  8
3
  10
93.288101
  20
159.182632
  0
POINT
  8
3
  10
105.842789
  20
163.925385
  0
POINT
  8
3
  10
106.524429
  20
163.054535
  0
POINT
  8
3
  10
107.292007
  20
162.267487
  0
POINT
  8
3
  10
108.267105
  20
161.513763
  0
POINT
  8
3
  10
109.332535
  20
160.897186
  0
POINT
  8
3
  10
110.423843
  20
160.481949
  0
POINT
  8
3
  10
111.563980
  20
160.197769
  0
POINT
  8
3
  10
112.557144
  20
160.049103
  0
POINT
  8
3
  10
113.562515
  20
159.972885
  0
POINT
  8
3
  10
114.417496
  20
159.939667
  0
POINT
  8
3
  10
115.273453
  20
159.931290
  0
POINT
  8
3
  10
118.511734
  20
159.931290
  0
POINT
  8
3
  10
119.367691
  20
159.939667
  0
POINT
  8
3
  10
120.222672
  20
159.972885
  0
POINT
  8
3
  10
121.228043
  20
160.049103
  0
POINT
  8
3
  10
122.221207
  20
160.197769
  0
POINT
  8
3
  10
123.361343
  20
160.481949
  0
POINT
  8
3
  10
124.452652
  20
160.897186
  0
POINT
  8
3
  10
125.518082
  20
161.513763
  0
POINT
  8
3
  10
126.493179
  20
162.267487
  0
POINT
  8
3
  10
127.260757
  20
163.054535
  0
POINT
  8
3
  10
127.942398
  20
163.925385
  0
POINT
  8
3
  10
140.497086
  20
159.182632
  0
POINT
  8
3
  10
140.321304
  20
158.219589
  0
POINT
  8
3
  10
140.185562
  20
157.249420
  0
POINT
  8
3
  10
140.084976
  20
156.274719
  0
POINT
  8
3
  10
140.017105
  20
155.297501
  0
POINT
  8
3
  10
139.973648
  20
154.318542
  0
POINT
  8
3
  10
139.932632
  20
152.359406
  0
POINT
  8
3
  10
139.940445
  20
150.763062
  0
POINT
  8
3
  10
139.940445
  20
150.763062
  0
POINT
  8
3
  10
139.948746
  20
150.399963
  0
POINT
  8
3
  10
139.971207
  20
149.763535
  0
POINT
  8
3
  10
140.033707
  20
148.442200
  0
POINT
  8
3
  10
140.132339
  20
146.485123
  0
POINT
  8
3
  10
140.210464
  20
145.508408
  0
POINT
  8
3
  10
140.313492
  20
144.534195
  0
POINT
  8
3
  10
140.444839
  20
143.563095
  0
POINT
  8
3
  10
140.609390
  20
142.597443
  0
POINT
  8
3
  10
140.809097
  20
141.637756
  0
POINT
  8
3
  10
141.056656
  20
140.690277
  0
POINT
  8
3
  10
141.358902
  20
139.757355
  0
POINT
  8
3
  10
141.730972
  20
138.852661
  0
POINT
  8
3
  10
142.183121
  20
137.980392
  0
POINT
  8
3
  10
142.732437
  20
137.173294
  0
POINT
  8
3
  10
143.405777
  20
136.463837
  0
POINT
  8
3
  10
144.171890
  20
135.852310
  0
POINT
  8
3
  10
145.000015
  20
135.346008
  0
POINT
  8
4
  10
93.813980
  20
149.763535
  30
0.000000
  39
0.000000
  50
357.726166
  0
POINT
  8
4
  10
93.844742
  20
150.763062
  30
0.000000
  39
0.000000
  50
359.055817
  0
POINT
  8
4
  10
139.940445
  20
150.763062
  30
0.000000
  39
0.000000
  50
180.288040
  0
POINT
  8
4
  10
139.971207
  20
149.763535
  30
0.000000
  39
0.000000
  50
181.591263
  0
POLYLINE
  8
84
  66
1
  70
1
  250
2
  0
VERTEX
  8
84
  10
116.892593
  20
90.717949
  0
VERTEX
  8
84
  10
88.892593
  20
90.717949
  0
VERTEX
  8
84
  10
87.882828
  20
134.944580
  0
VERTEX
  8
84
  10
88.785172
  20
135.346008
  0
VERTEX
  8
84
  10
89.613297
  20
135.852310
  0
VERTEX
  8
84
  10
90.379410
  20
136.463837
  0
VERTEX
  8
84
  10
91.052750
  20
137.173294
  0
VERTEX
  8
84
  10
91.602066
  20
137.980392
  0
VERTEX
  8
84
  10
92.054214
  20
138.852661
  0
VERTEX
  8
84
  10
92.426285
  20
139.757355
  0
VERTEX
  8
84
  10
92.728531
  20
140.690277
  0
VERTEX
  8
84
  10
92.976089
  20
141.637756
  0
VERTEX
  8
84
  10
93.175797
  20
142.597443
  0
VERTEX
  8
84
  10
93.340347
  20
143.563095
  0
VERTEX
  8
84
  10
93.471695
  20
144.534195
  0
VERTEX
  8
84
  10
93.574722
  20
145.508408
  0
VERTEX
  8
84
  10
93.652847
  20
146.485123
  0
VERTEX
  8
84
  10
93.751480
  20
148.442200
  0
VERTEX
  8
84
  10
93.813980
  20
149.763535
  0
VERTEX
  8
84
  10
93.836441
  20
150.399963
  0
VERTEX
  8
84
  10
93.844742
  20
150.763062
  0
VERTEX
  8
84
  10
93.852554
  20
152.359406
  0
VERTEX
  8
84
  10
93.811539
  20
154.318542
  0
VERTEX
  8
84
  10
93.768082
  20
155.297501
  0
VERTEX
  8
84
  10
93.700211
  20
156.274719
  0
VERTEX
  8
84
  10
93.599625
  20
157.249420
  0
VERTEX
  8
84
  10
93.463882
  20
158.219589
  0
VERTEX
  8
84
  10
93.288101
  20
159.182632
  0
VERTEX
  8
84
  10
93.074234
  20
160.139664
  0
VERTEX
  8
84
  10
105.615234
  20
164.248489
  0
VERTEX
  8
84
  10
105.842789
  20
163.925385
  0
VERTEX
  8
84
  10
106.524429
  20
163.054535
  0
VERTEX
  8
84
  10
107.292007
  20
162.267487
  0
VERTEX
  8
84
  10
108.267105
  20
161.513763
  0
VERTEX
  8
84
  10
109.332535
  20
160.897186
  0
VERTEX
  8
84
  10
110.423843
  20
160.481949
  0
VERTEX
  8
84
  10
111.563980
  20
160.197769
  0
VERTEX
  8
84
  10
112.557144
  20
160.049103
  0
VERTEX
  8
84
  10
113.562515
  20
159.972885
  0
VERTEX
  8
84
  10
114.417496
  20
159.939667
  0
VERTEX
  8
84
  10
115.273453
  20
159.931290
  0
VERTEX
  8
84
  10
116.892593
  20
159.924210
  0
VERTEX
  8
84
  10
118.511734
  20
159.931290
  0
VERTEX
  8
84
  10
119.367691
  20
159.939667
  0
VERTEX
  8
84
  10
120.222672
  20
159.972885
  0
VERTEX
  8
84
  10
121.228043
  20
160.049103
  0
VERTEX
  8
84
  10
122.221207
  20
160.197769
  0
VERTEX
  8
84
  10
123.361343
  20
160.481949
  0
VERTEX
  8
84
  10
124.452652
  20
160.897186
  0
VERTEX
  8
84
  10
125.518082
  20
161.513763
  0
VERTEX
  8
84
  10
126.493179
  20
162.267487
  0
VERTEX
  8
84
  10
127.260757
  20
163.054535
  0
VERTEX
  8
84
  10
127.942398
  20
163.925385
  0
VERTEX
  8
84
  10
128.169937
  20
164.248489
  0
VERTEX
  8
84
  10
140.710953
  20
160.139664
  0
VERTEX
  8
84
  10
140.497086
  20
159.182632
  0
VERTEX
  8
84
  10
140.321304
  20
158.219589
  0
VERTEX
  8
84
  10
140.185562
  20
157.249420
  0
VERTEX
  8
84
  10
140.084976
  20
156.274719
  0
VERTEX
  8
84
  10
140.017105
  20
155.297501
  0
VERTEX
  8
84
  10
139.973648
  20
154.318542
  0
VERTEX
  8
84
  10
139.932632
  20
152.359406
  0
VERTEX
  8
84
  10
139.940445
  20
150.763062
  0
VERTEX
  8
84
  10
139.948746
  20
150.399963
  0
VERTEX
  8
84
  10
139.971207
  20
149.763535
  0
VERTEX
  8
84
  10
140.033707
  20
148.442200
  0
VERTEX
  8
84
  10
140.132339
  20
146.485123
  0
VERTEX
  8
84
  10
140.210464
  20
145.508408
  0
VERTEX
  8
84
  10
140.313492
  20
144.534195
  0
VERTEX
  8
84
  10
140.444839
  20
143.563095
  0
VERTEX
  8
84
  10
140.609390
  20
142.597443
  0
VERTEX
  8
84
  10
140.809097
  20
141.637756
  0
VERTEX
  8
84
  10
141.056656
  20
140.690277
  0
VERTEX
  8
84
  10
141.358902
  20
139.757355
  0
VERTEX
  8
84
  10
141.730972
  20
138.852661
  0
VERTEX
  8
84
  10
142.183121
  20
137.980392
  0
VERTEX
  8
84
  10
142.732437
  20
137.173294
  0
VERTEX
  8
84
  10
143.405777
  20
136.463837
  0
VERTEX
  8
84
  10
144.171890
  20
135.852310
  0
VERTEX
  8
84
  10
145.000015
  20
135.346008
  0
VERTEX
  8
84
  10
145.902359
  20
134.944580
  0
VERTEX
  8
84
  10
144.892593
  20
90.717949
  0
SEQEND
  0
POINT
  8
2
  10
116.892593
  20
90.717949
  0
POINT
  8
2
  10
88.892593
  20
90.717949
  0
POINT
  8
2
  10
87.882828
  20
134.944580
  0
POINT
  8
2
  10
93.074234
  20
160.139664
  0
POINT
  8
2
  10
105.615234
  20
164.248489
  0
POINT
  8
2
  10
116.892593
  20
159.924210
  0
POINT
  8
2
  10
128.169937
  20
164.248489
  0
POINT
  8
2
  10
140.710953
  20
160.139664
  0
POINT
  8
2
  10
145.902359
  20
134.944580
  0
POINT
  8
2
  10
144.892593
  20
90.717949
  0
POINT
  8
3
  10
88.785172
  20
135.346008
  0
POINT
  8
3
  10
89.613297
  20
135.852310
  0
POINT
  8
3
  10
90.379410
  20
136.463837
  0
POINT
  8
3
  10
91.052750
  20
137.173294
  0
POINT
  8
3
  10
91.602066
  20
137.980392
  0
POINT
  8
3
  10
92.054214
  20
138.852661
  0
POINT
  8
3
  10
92.426285
  20
139.757355
  0
POINT
  8
3
  10
92.728531
  20
140.690277
  0
POINT
  8
3
  10
92.976089
  20
141.637756
  0
POINT
  8
3
  10
93.175797
  20
142.597443
  0
POINT
  8
3
  10
93.340347
  20
143.563095
  0
POINT
  8
3
  10
93.471695
  20
144.534195
  0
POINT
  8
3
  10
93.574722
  20
145.508408
  0
POINT
  8
3
  10
93.652847
  20
146.485123
  0
POINT
  8
3
  10
93.751480
  20
148.442200
  0
POINT
  8
3
  10
93.813980
  20
149.763535
  0
POINT
  8
3
  10
93.836441
  20
150.399963
  0
POINT
  8
3
  10
93.844742
  20
150.763062
  0
POINT
  8
3
  10
93.852554
  20
152.359406
  0
POINT
  8
3
  10
93.811539
  20
154.318542
  0
POINT
  8
3
  10
93.768082
  20
155.297501
  0
POINT
  8
3
  10
93.700211
  20
156.274719
  0
POINT
  8
3
  10
93.599625
  20
157.249420
  0
POINT
  8
3
  10
93.463882
  20
158.219589
  0
POINT
  8
3
  10
93.288101
  20
159.182632
  0
POINT
  8
3
  10
105.842789
  20
163.925385
  0
POINT
  8
3
  10
106.524429
  20
163.054535
  0
POINT
  8
3
  10
107.292007
  20
162.267487
  0
POINT
  8
3
  10
108.267105
  20
161.513763
  0
POINT
  8
3
  10
109.332535
  20
160.897186
  0
POINT
  8
3
  10
110.423843
  20
160.481949
  0
POINT
  8
3
  10
111.563980
  20
160.197769
  0
POINT
  8
3
  10
112.557144
  20
160.049103
  0
POINT
  8
3
  10
113.562515
  20
159.972885
  0
POINT
  8
3
  10
114.417496
  20
159.939667
  0
POINT
  8
3
  10
115.273453
  20
159.931290
  0
POINT
  8
3
  10
118.511734
  20
159.931290
  0
POINT
  8
3
  10
119.367691
  20
159.939667
  0
POINT
  8
3
  10
120.222672
  20
159.972885
  0
POINT
  8
3
  10
121.228043
  20
160.049103
  0
POINT
  8
3
  10
122.221207
  20
160.197769
  0
POINT
  8
3
  10
123.361343
  20
160.481949
  0
POINT
  8
3
  10
124.452652
  20
160.897186
  0
POINT
  8
3
  10
125.518082
  20
161.513763
  0
POINT
  8
3
  10
126.493179
  20
162.267487
  0
POINT
  8
3
  10
127.260757
  20
163.054535
  0
POINT
  8
3
  10
127.942398
  20
163.925385
  0
POINT
  8
3
  10
140.497086
  20
159.182632
  0
POINT
  8
3
  10
140.321304
  20
158.219589
  0
POINT
  8
3
  10
140.185562
  20
157.249420
  0
POINT
  8
3
  10
140.084976
  20
156.274719
  0
POINT
  8
3
  10
140.017105
  20
155.297501
  0
POINT
  8
3
  10
139.973648
  20
154.318542
  0
POINT
  8
3
  10
139.932632
  20
152.359406
  0
POINT
  8
3
  10
139.940445
  20
150.763062
  0
POINT
  8
3
  10
139.940445
  20
150.763062
  0
POINT
  8
3
  10
139.948746
  20
150.399963
  0
POINT
  8
3
  10
139.971207
  20
149.763535
  0
POINT
  8
3
  10
140.033707
  20
148.442200
  0
POINT
  8
3
  10
140.132339
  20
146.485123
  0
POINT
  8
3
  10
140.210464
  20
145.508408
  0
POINT
  8
3
  10
140.313492
  20
144.534195
  0
POINT
  8
3
  10
140.444839
  20
143.563095
  0
POINT
  8
3
  10
140.609390
  20
142.597443
  0
POINT
  8
3
  10
140.809097
  20
141.637756
  0
POINT
  8
3
  10
141.056656
  20
140.690277
  0
POINT
  8
3
  10
141.358902
  20
139.757355
  0
POINT
  8
3
  10
141.730972
  20
138.852661
  0
POINT
  8
3
  10
142.183121
  20
137.980392
  0
POINT
  8
3
  10
142.732437
  20
137.173294
  0
POINT
  8
3
  10
143.405777
  20
136.463837
  0
POINT
  8
3
  10
144.171890
  20
135.852310
  0
POINT
  8
3
  10
145.000015
  20
135.346008
  0
LINE
  8
7
  10
116.892593
  20
118.483223
  11
116.892593
  21
136.483215
  0
POLYLINE
  8
8
  66
1
  70
0
  250
0
  0
VERTEX
  8
8
  10
116.892593
  20
92.717941
  0
VERTEX
  8
8
  10
88.846634
  20
92.731186
  0
SEQEND
  0
POINT
  8
2
  10
116.892593
  20
92.717941
  0
POINT
  8
2
  10
88.846634
  20
92.731186
  0
POLYLINE
  8
85
  66
1
  70
0
  250
1
  0
VERTEX
  8
85
  10
116.892593
  20
92.717941
  0
VERTEX
  8
85
  10
88.846634
  20
92.731186
  0
SEQEND
  0
POINT
  8
2
  10
116.892593
  20
92.717941
  0
POINT
  8
2
  10
88.846634
  20
92.731186
  0
POLYLINE
  8
8
  66
1
  70
0
  250
0
  0
VERTEX
  8
8
  10
87.882828
  20
134.944580
  0
VERTEX
  8
8
  10
116.892593
  20
134.944595
  0
SEQEND
  0
POINT
  8
2
  10
87.882828
  20
134.944580
  0
POINT
  8
2
  10
116.892593
  20
134.944595
  0
POLYLINE
  8
85
  66
1
  70
0
  250
1
  0
VERTEX
  8
85
  10
87.882828
  20
134.944580
  0
VERTEX
  8
85
  10
116.892593
  20
134.944595
  0
SEQEND
  0
POINT
  8
2
  10
87.882828
  20
134.944580
  0
POINT
  8
2
  10
116.892593
  20
134.944595
  0
POLYLINE
  8
8
  66
1
  70
0
  250
0
  0
VERTEX
  8
8
  10
93.074219
  20
160.139664
  0
VERTEX
  8
8
  10
116.892593
  20
159.924210
  0
SEQEND
  0
POINT
  8
2
  10
93.074219
  20
160.139664
  0
POINT
  8
2
  10
116.892593
  20
159.924210
  0
POLYLINE
  8
85
  66
1
  70
0
  250
1
  0
VERTEX
  8
85
  10
93.074219
  20
160.139664
  0
VERTEX
  8
85
  10
116.892593
  20
159.924210
  0
SEQEND
  0
POINT
  8
2
  10
93.074219
  20
160.139664
  0
POINT
  8
2
  10
116.892593
  20
159.924210
  0
POLYLINE
  8
8
  66
1
  70
0
  250
0
  0
VERTEX
  8
8
  10
116.892593
  20
117.488419
  0
VERTEX
  8
8
  10
115.892593
  20
117.756371
  0
VERTEX
  8
8
  10
115.160645
  20
118.488426
  0
VERTEX
  8
8
  10
114.892593
  20
119.488426
  0
VERTEX
  8
8
  10
115.160645
  20
120.488426
  0
VERTEX
  8
8
  10
115.892593
  20
121.220482
  0
VERTEX
  8
8
  10
116.892593
  20
121.488441
  0
SEQEND
  0
TEXT
  8
1
  10
116.892593
  20
117.488419
  40
0.250000
  50
0.000000
  1
# 63
  7
STANDARD
  0
TEXT
  8
1
  10
116.892593
  20
121.488441
  40
0.250000
  50
0.000000
  1
# 64
  7
STANDARD
  0
POINT
  8
2
  10
116.892593
  20
117.488419
  0
POINT
  8
2
  10
116.892593
  20
121.488441
  0
POINT
  8
3
  10
115.892593
  20
117.756371
  0
POINT
  8
3
  10
115.160645
  20
118.488426
  0
POINT
  8
3
  10
114.892593
  20
119.488426
  0
POINT
  8
3
  10
115.160645
  20
120.488426
  0
POINT
  8
3
  10
115.892593
  20
121.220482
  0
POLYLINE
  8
85
  66
1
  70
0
  250
1
  0
VERTEX
  8
85
  10
116.892593
  20
117.488419
  0
VERTEX
  8
85
  10
115.892593
  20
117.756371
  0
VERTEX
  8
85
  10
115.160645
  20
118.488426
  0
VERTEX
  8
85
  10
114.892593
  20
119.488426
  0
VERTEX
  8
85
  10
115.160645
  20
120.488426
  0
VERTEX
  8
85
  10
115.892593
  20
121.220482
  0
VERTEX
  8
85
  10
116.892593
  20
121.488441
  0
SEQEND
  0
TEXT
  8
1
  10
116.892593
  20
117.488419
  40
0.250000
  50
0.000000
  1
# 63
  7
STANDARD
  0
TEXT
  8
1
  10
116.892593
  20
121.488441
  40
0.250000
  50
0.000000
  1
# 64
  7
STANDARD
  0
POINT
  8
2
  10
116.892593
  20
117.488419
  0
POINT
  8
2
  10
116.892593
  20
121.488441
  0
POINT
  8
3
  10
115.892593
  20
117.756371
  0
POINT
  8
3
  10
115.160645
  20
118.488426
  0
POINT
  8
3
  10
114.892593
  20
119.488426
  0
POINT
  8
3
  10
115.160645
  20
120.488426
  0
POINT
  8
3
  10
115.892593
  20
121.220482
  0
POLYLINE
  8
8
  66
1
  70
0
  250
0
  0
VERTEX
  8
8
  10
116.892593
  20
118.488426
  0
VERTEX
  8
8
  10
116.392593
  20
118.622398
  0
VERTEX
  8
8
  10
116.026367
  20
118.988426
  0
VERTEX
  8
8
  10
115.892593
  20
119.488426
  0
VERTEX
  8
8
  10
116.026367
  20
119.988426
  0
VERTEX
  8
8
  10
116.392593
  20
120.354454
  0
VERTEX
  8
8
  10
116.892593
  20
120.488426
  0
SEQEND
  0
TEXT
  8
1
  10
116.892593
  20
118.488426
  40
0.250000
  50
0.000000
  1
# 65
  7
STANDARD
  0
TEXT
  8
1
  10
116.892593
  20
120.488426
  40
0.250000
  50
0.000000
  1
# 66
  7
STANDARD
  0
POINT
  8
2
  10
116.892593
  20
118.488426
  0
POINT
  8
2
  10
116.892593
  20
120.488426
  0
POINT
  8
3
  10
116.392593
  20
118.622398
  0
POINT
  8
3
  10
116.026367
  20
118.988426
  0
POINT
  8
3
  10
115.892593
  20
119.488426
  0
POINT
  8
3
  10
116.026367
  20
119.988426
  0
POINT
  8
3
  10
116.392593
  20
120.354454
  0
POLYLINE
  8
85
  66
1
  70
0
  250
1
  0
VERTEX
  8
85
  10
116.892593
  20
118.488426
  0
VERTEX
  8
85
  10
116.392593
  20
118.622398
  0
VERTEX
  8
85
  10
116.026367
  20
118.988426
  0
VERTEX
  8
85
  10
115.892593
  20
119.488426
  0
VERTEX
  8
85
  10
116.026367
  20
119.988426
  0
VERTEX
  8
85
  10
116.392593
  20
120.354454
  0
VERTEX
  8
85
  10
116.892593
  20
120.488426
  0
SEQEND
  0
TEXT
  8
1
  10
116.892593
  20
118.488426
  40
0.250000
  50
0.000000
  1
# 65
  7
STANDARD
  0
TEXT
  8
1
  10
116.892593
  20
120.488426
  40
0.250000
  50
0.000000
  1
# 66
  7
STANDARD
  0
POINT
  8
2
  10
116.892593
  20
118.488426
  0
POINT
  8
2
  10
116.892593
  20
120.488426
  0
POINT
  8
3
  10
116.392593
  20
118.622398
  0
POINT
  8
3
  10
116.026367
  20
118.988426
  0
POINT
  8
3
  10
115.892593
  20
119.488426
  0
POINT
  8
3
  10
116.026367
  20
119.988426
  0
POINT
  8
3
  10
116.392593
  20
120.354454
  0
POLYLINE
  8
8
  66
1
  70
0
  250
0
  0
VERTEX
  8
8
  10
116.892593
  20
159.924210
  0
VERTEX
  8
8
  10
116.892593
  20
90.717949
  0
SEQEND
  0
TEXT
  8
1
  10
116.892593
  20
159.924210
  40
0.250000
  50
0.000000
  1
# 54
  7
STANDARD
  0
TEXT
  8
1
  10
116.892593
  20
90.717949
  40
0.250000
  50
0.000000
  1
# 55
  7
STANDARD
  0
POINT
  8
2
  10
116.892593
  20
159.924210
  0
POINT
  8
2
  10
116.892593
  20
90.717949
  0
POLYLINE
  8
85
  66
1
  70
0
  250
1
  0
VERTEX
  8
85
  10
116.892593
  20
159.924210
  0
VERTEX
  8
85
  10
116.892593
  20
90.717949
  0
SEQEND
  0
TEXT
  8
1
  10
116.892593
  20
159.924210
  40
0.250000
  50
0.000000
  1
# 54
  7
STANDARD
  0
TEXT
  8
1
  10
116.892593
  20
90.717949
  40
0.250000
  50
0.000000
  1
# 55
  7
STANDARD
  0
POINT
  8
2
  10
116.892593
  20
159.924210
  0
POINT
  8
2
  10
116.892593
  20
90.717949
  0
POLYLINE
  8
8
  66
1
  70
0
  250
0
  0
VERTEX
  8
8
  10
116.892593
  20
92.717941
  0
VERTEX
  8
8
  10
144.938553
  20
92.731186
  0
SEQEND
  0
POINT
  8
2
  10
116.892593
  20
92.717941
  0
POINT
  8
2
  10
144.938553
  20
92.731186
  0
POLYLINE
  8
85
  66
1
  70
0
  250
1
  0
VERTEX
  8
85
  10
116.892593
  20
92.717941
  0
VERTEX
  8
85
  10
144.938553
  20
92.731186
  0
SEQEND
  0
POINT
  8
2
  10
116.892593
  20
92.717941
  0
POINT
  8
2
  10
144.938553
  20
92.731186
  0
POLYLINE
  8
8
  66
1
  70
0
  250
0
  0
VERTEX
  8
8
  10
145.902359
  20
134.944580
  0
VERTEX
  8
8
  10
116.892593
  20
134.944595
  0
SEQEND
  0
POINT
  8
2
  10
145.902359
  20
134.944580
  0
POINT
  8
2
  10
116.892593
  20
134.944595
  0
POLYLINE
  8
85
  66
1
  70
0
  250
1
  0
VERTEX
  8
85
  10
145.902359
  20
134.944580
  0
VERTEX
  8
85
  10
116.892593
  20
134.944595
  0
SEQEND
  0
POINT
  8
2
  10
145.902359
  20
134.944580
  0
POINT
  8
2
  10
116.892593
  20
134.944595
  0
POLYLINE
  8
8
  66
1
  70
0
  250
0
  0
VERTEX
  8
8
  10
140.710968
  20
160.139664
  0
VERTEX
  8
8
  10
116.892593
  20
159.924210
  0
SEQEND
  0
POINT
  8
2
  10
140.710968
  20
160.139664
  0
POINT
  8
2
  10
116.892593
  20
159.924210
  0
POLYLINE
  8
85
  66
1
  70
0
  250
1
  0
VERTEX
  8
85
  10
140.710968
  20
160.139664
  0
VERTEX
  8
85
  10
116.892593
  20
159.924210
  0
SEQEND
  0
POINT
  8
2
  10
140.710968
  20
160.139664
  0
POINT
  8
2
  10
116.892593
  20
159.924210
  0
POLYLINE
  8
8
  66
1
  70
0
  250
0
  0
VERTEX
  8
8
  10
116.892593
  20
117.488419
  0
VERTEX
  8
8
  10
117.892593
  20
117.756371
  0
VERTEX
  8
8
  10
118.624542
  20
118.488426
  0
VERTEX
  8
8
  10
118.892593
  20
119.488426
  0
VERTEX
  8
8
  10
118.624542
  20
120.488426
  0
VERTEX
  8
8
  10
117.892593
  20
121.220482
  0
VERTEX
  8
8
  10
116.892593
  20
121.488441
  0
SEQEND
  0
TEXT
  8
1
  10
116.892593
  20
117.488419
  40
0.250000
  50
0.000000
  1
# 63
  7
STANDARD
  0
TEXT
  8
1
  10
116.892593
  20
121.488441
  40
0.250000
  50
0.000000
  1
# 64
  7
STANDARD
  0
POINT
  8
2
  10
116.892593
  20
117.488419
  0
POINT
  8
2
  10
116.892593
  20
121.488441
  0
POINT
  8
3
  10
117.892593
  20
117.756371
  0
POINT
  8
3
  10
118.624542
  20
118.488426
  0
POINT
  8
3
  10
118.892593
  20
119.488426
  0
POINT
  8
3
  10
118.624542
  20
120.488426
  0
POINT
  8
3
  10
117.892593
  20
121.220482
  0
POLYLINE
  8
85
  66
1
  70
0
  250
1
  0
VERTEX
  8
85
  10
116.892593
  20
117.488419
  0
VERTEX
  8
85
  10
117.892593
  20
117.756371
  0
VERTEX
  8
85
  10
118.624542
  20
118.488426
  0
VERTEX
  8
85
  10
118.892593
  20
119.488426
  0
VERTEX
  8
85
  10
118.624542
  20
120.488426
  0
VERTEX
  8
85
  10
117.892593
  20
121.220482
  0
VERTEX
  8
85
  10
116.892593
  20
121.488441
  0
SEQEND
  0
TEXT
  8
1
  10
116.892593
  20
117.488419
  40
0.250000
  50
0.000000
  1
# 63
  7
STANDARD
  0
TEXT
  8
1
  10
116.892593
  20
121.488441
  40
0.250000
  50
0.000000
  1
# 64
  7
STANDARD
  0
POINT
  8
2
  10
116.892593
  20
117.488419
  0
POINT
  8
2
  10
116.892593
  20
121.488441
  0
POINT
  8
3
  10
117.892593
  20
117.756371
  0
POINT
  8
3
  10
118.624542
  20
118.488426
  0
POINT
  8
3
  10
118.892593
  20
119.488426
  0
POINT
  8
3
  10
118.624542
  20
120.488426
  0
POINT
  8
3
  10
117.892593
  20
121.220482
  0
POLYLINE
  8
8
  66
1
  70
0
  250
0
  0
VERTEX
  8
8
  10
116.892593
  20
118.488426
  0
VERTEX
  8
8
  10
117.392593
  20
118.622398
  0
VERTEX
  8
8
  10
117.758820
  20
118.988426
  0
VERTEX
  8
8
  10
117.892593
  20
119.488426
  0
VERTEX
  8
8
  10
117.758820
  20
119.988426
  0
VERTEX
  8
8
  10
117.392593
  20
120.354454
  0
VERTEX
  8
8
  10
116.892593
  20
120.488426
  0
SEQEND
  0
TEXT
  8
1
  10
116.892593
  20
118.488426
  40
0.250000
  50
0.000000
  1
# 65
  7
STANDARD
  0
TEXT
  8
1
  10
116.892593
  20
120.488426
  40
0.250000
  50
0.000000
  1
# 66
  7
STANDARD
  0
POINT
  8
2
  10
116.892593
  20
118.488426
  0
POINT
  8
2
  10
116.892593
  20
120.488426
  0
POINT
  8
3
  10
117.392593
  20
118.622398
  0
POINT
  8
3
  10
117.758820
  20
118.988426
  0
POINT
  8
3
  10
117.892593
  20
119.488426
  0
POINT
  8
3
  10
117.758820
  20
119.988426
  0
POINT
  8
3
  10
117.392593
  20
120.354454
  0
POLYLINE
  8
85
  66
1
  70
0
  250
1
  0
VERTEX
  8
85
  10
116.892593
  20
118.488426
  0
VERTEX
  8
85
  10
117.392593
  20
118.622398
  0
VERTEX
  8
85
  10
117.758820
  20
118.988426
  0
VERTEX
  8
85
  10
117.892593
  20
119.488426
  0
VERTEX
  8
85
  10
117.758820
  20
119.988426
  0
VERTEX
  8
85
  10
117.392593
  20
120.354454
  0
VERTEX
  8
85
  10
116.892593
  20
120.488426
  0
SEQEND
  0
TEXT
  8
1
  10
116.892593
  20
118.488426
  40
0.250000
  50
0.000000
  1
# 65
  7
STANDARD
  0
TEXT
  8
1
  10
116.892593
  20
120.488426
  40
0.250000
  50
0.000000
  1
# 66
  7
STANDARD
  0
POINT
  8
2
  10
116.892593
  20
118.488426
  0
POINT
  8
2
  10
116.892593
  20
120.488426
  0
POINT
  8
3
  10
117.392593
  20
118.622398
  0
POINT
  8
3
  10
117.758820
  20
118.988426
  0
POINT
  8
3
  10
117.892593
  20
119.488426
  0
POINT
  8
3
  10
117.758820
  20
119.988426
  0
POINT
  8
3
  10
117.392593
  20
120.354454
  0
POLYLINE
  8
8
  66
1
  70
0
  250
0
  0
VERTEX
  8
8
  10
116.892593
  20
159.924210
  0
VERTEX
  8
8
  10
116.892593
  20
90.717949
  0
SEQEND
  0
TEXT
  8
1
  10
116.892593
  20
159.924210
  40
0.250000
  50
0.000000
  1
# 54
  7
STANDARD
  0
TEXT
  8
1
  10
116.892593
  20
90.717949
  40
0.250000
  50
0.000000
  1
# 55
  7
STANDARD
  0
POINT
  8
2
  10
116.892593
  20
159.924210
  0
POINT
  8
2
  10
116.892593
  20
90.717949
  0
POLYLINE
  8
85
  66
1
  70
0
  250
1
  0
VERTEX
  8
85
  10
116.892593
  20
159.924210
  0
VERTEX
  8
85
  10
116.892593
  20
90.717949
  0
SEQEND
  0
TEXT
  8
1
  10
116.892593
  20
159.924210
  40
0.250000
  50
0.000000
  1
# 54
  7
STANDARD
  0
TEXT
  8
1
  10
116.892593
  20
90.717949
  40
0.250000
  50
0.000000
  1
# 55
  7
STANDARD
  0
POINT
  8
2
  10
116.892593
  20
159.924210
  0
POINT
  8
2
  10
116.892593
  20
90.717949
  0
ENDBLK
  0
BLOCK
  8
0
  2
6_M
  70
64
  10
0
  20
0
  0
TEXT
  8
1
  10
112.880692
  20
175.452744
  50
0.000000
  51
0.000000
  71
0.000000
  1
PIECE NAME: 6
  7
STANDARD
  0
TEXT
  8
1
  10
112.880692
  20
170.452744
  50
0.000000
  51
0.000000
  71
0.000000
  1
SIZE: M
  7
STANDARD
  0
TEXT
  8
1
  10
112.880692
  20
160.452744
  50
0.000000
  51
0.000000
  71
0.000000
  1
QUANTITY: 1
  7
STANDARD
  0
TEXT
  8
1
  10
112.880692
  20
160.452744
  40
0.250000
  50
0.000000
  1
ROTATION: 0
  7
STANDARD
  0
POLYLINE
  8
1
  66
1
  70
1
  250
2
  0
VERTEX
  8
1
  10
112.880692
  20
174.203064
  0
VERTEX
  8
1
  10
100.125824
  20
174.202835
  0
VERTEX
  8
1
  10
74.548668
  20
174.202286
  0
VERTEX
  8
1
  10
76.363609
  20
176.702118
  0
VERTEX
  8
1
  10
100.125824
  20
176.702530
  0
VERTEX
  8
1
  10
112.880692
  20
176.703171
  0
VERTEX
  8
1
  10
125.635574
  20
176.702530
  0
VERTEX
  8
1
  10
149.397781
  20
176.702118
  0
VERTEX
  8
1
  10
151.212723
  20
174.202286
  0
VERTEX
  8
1
  10
125.635574
  20
174.202835
  0
SEQEND
  0
POINT
  8
2
  10
112.880692
  20
174.203064
  0
POINT
  8
2
  10
100.125824
  20
174.202835
  0
POINT
  8
2
  10
74.548668
  20
174.202286
  0
POINT
  8
2
  10
76.363609
  20
176.702118
  0
POINT
  8
2
  10
100.125824
  20
176.702530
  0
POINT
  8
2
  10
112.880692
  20
176.703171
  0
POINT
  8
2
  10
125.635574
  20
176.702530
  0
POINT
  8
2
  10
149.397781
  20
176.702118
  0
POINT
  8
2
  10
151.212723
  20
174.202286
  0
POINT
  8
2
  10
125.635574
  20
174.202835
  0
POINT
  8
4
  10
100.125824
  20
174.202835
  30
0.000000
  39
0.000000
  50
90.000000
  0
POINT
  8
4
  10
125.635574
  20
174.202835
  30
0.000000
  39
0.000000
  50
90.000000
  0
POLYLINE
  8
84
  66
1
  70
1
  250
2
  0
VERTEX
  8
84
  10
112.880692
  20
174.203064
  0
VERTEX
  8
84
  10
100.125824
  20
174.202835
  0
VERTEX
  8
84
  10
74.548668
  20
174.202286
  0
VERTEX
  8
84
  10
76.363609
  20
176.702118
  0
VERTEX
  8
84
  10
100.125824
  20
176.702530
  0
VERTEX
  8
84
  10
112.880692
  20
176.703171
  0
VERTEX
  8
84
  10
125.635574
  20
176.702530
  0
VERTEX
  8
84
  10
149.397781
  20
176.702118
  0
VERTEX
  8
84
  10
151.212723
  20
174.202286
  0
VERTEX
  8
84
  10
125.635574
  20
174.202835
  0
SEQEND
  0
POINT
  8
2
  10
112.880692
  20
174.203064
  0
POINT
  8
2
  10
100.125824
  20
174.202835
  0
POINT
  8
2
  10
74.548668
  20
174.202286
  0
POINT
  8
2
  10
76.363609
  20
176.702118
  0
POINT
  8
2
  10
100.125824
  20
176.702530
  0
POINT
  8
2
  10
112.880692
  20
176.703171
  0
POINT
  8
2
  10
125.635574
  20
176.702530
  0
POINT
  8
2
  10
149.397781
  20
176.702118
  0
POINT
  8
2
  10
151.212723
  20
174.202286
  0
POINT
  8
2
  10
125.635574
  20
174.202835
  0
LINE
  8
7
  10
112.880692
  20
166.452744
  11
112.880692
  21
184.452728
  0
POLYLINE
  8
8
  66
1
  70
0
  250
0
  0
VERTEX
  8
8
  10
112.880692
  20
174.580551
  0
VERTEX
  8
8
  10
112.380692
  20
174.714493
  0
VERTEX
  8
8
  10
112.014481
  20
175.080521
  0
VERTEX
  8
8
  10
111.880692
  20
175.580521
  0
VERTEX
  8
8
  10
112.014481
  20
176.080521
  0
VERTEX
  8
8
  10
112.380692
  20
176.446548
  0
VERTEX
  8
8
  10
112.880692
  20
176.580536
  0
SEQEND
  0
TEXT
  8
1
  10
112.880692
  20
174.580551
  40
0.250000
  50
0.000000
  1
# 100
  7
STANDARD
  0
TEXT
  8
1
  10
112.880692
  20
176.580536
  40
0.250000
  50
0.000000
  1
# 101
  7
STANDARD
  0
POINT
  8
2
  10
112.880692
  20
174.580551
  0
POINT
  8
2
  10
112.880692
  20
176.580536
  0
POINT
  8
3
  10
112.380692
  20
174.714493
  0
POINT
  8
3
  10
112.014481
  20
175.080521
  0
POINT
  8
3
  10
111.880692
  20
175.580521
  0
POINT
  8
3
  10
112.014481
  20
176.080521
  0
POINT
  8
3
  10
112.380692
  20
176.446548
  0
POLYLINE
  8
85
  66
1
  70
0
  250
1
  0
VERTEX
  8
85
  10
112.880692
  20
174.580551
  0
VERTEX
  8
85
  10
112.380692
  20
174.714493
  0
VERTEX
  8
85
  10
112.014481
  20
175.080521
  0
VERTEX
  8
85
  10
111.880692
  20
175.580521
  0
VERTEX
  8
85
  10
112.014481
  20
176.080521
  0
VERTEX
  8
85
  10
112.380692
  20
176.446548
  0
VERTEX
  8
85
  10
112.880692
  20
176.580536
  0
SEQEND
  0
TEXT
  8
1
  10
112.880692
  20
174.580551
  40
0.250000
  50
0.000000
  1
# 100
  7
STANDARD
  0
TEXT
  8
1
  10
112.880692
  20
176.580536
  40
0.250000
  50
0.000000
  1
# 101
  7
STANDARD
  0
POINT
  8
2
  10
112.880692
  20
174.580551
  0
POINT
  8
2
  10
112.880692
  20
176.580536
  0
POINT
  8
3
  10
112.380692
  20
174.714493
  0
POINT
  8
3
  10
112.014481
  20
175.080521
  0
POINT
  8
3
  10
111.880692
  20
175.580521
  0
POINT
  8
3
  10
112.014481
  20
176.080521
  0
POINT
  8
3
  10
112.380692
  20
176.446548
  0
POLYLINE
  8
8
  66
1
  70
0
  250
0
  0
VERTEX
  8
8
  10
112.880692
  20
175.080551
  0
VERTEX
  8
8
  10
112.630692
  20
175.147507
  0
VERTEX
  8
8
  10
112.447601
  20
175.330521
  0
VERTEX
  8
8
  10
112.380692
  20
175.580521
  0
VERTEX
  8
8
  10
112.447601
  20
175.830521
  0
VERTEX
  8
8
  10
112.630692
  20
176.013550
  0
VERTEX
  8
8
  10
112.880692
  20
176.080536
  0
SEQEND
  0
TEXT
  8
1
  10
112.880692
  20
175.080551
  40
0.250000
  50
0.000000
  1
# 102
  7
STANDARD
  0
TEXT
  8
1
  10
112.880692
  20
176.080536
  40
0.250000
  50
0.000000
  1
# 103
  7
STANDARD
  0
POINT
  8
2
  10
112.880692
  20
175.080551
  0
POINT
  8
2
  10
112.880692
  20
176.080536
  0
POINT
  8
3
  10
112.630692
  20
175.147507
  0
POINT
  8
3
  10
112.447601
  20
175.330521
  0
POINT
  8
3
  10
112.380692
  20
175.580521
  0
POINT
  8
3
  10
112.447601
  20
175.830521
  0
POINT
  8
3
  10
112.630692
  20
176.013550
  0
POLYLINE
  8
85
  66
1
  70
0
  250
1
  0
VERTEX
  8
85
  10
112.880692
  20
175.080551
  0
VERTEX
  8
85
  10
112.630692
  20
175.147507
  0
VERTEX
  8
85
  10
112.447601
  20
175.330521
  0
VERTEX
  8
85
  10
112.380692
  20
175.580521
  0
VERTEX
  8
85
  10
112.447601
  20
175.830521
  0
VERTEX
  8
85
  10
112.630692
  20
176.013550
  0
VERTEX
  8
85
  10
112.880692
  20
176.080536
  0
SEQEND
  0
TEXT
  8
1
  10
112.880692
  20
175.080551
  40
0.250000
  50
0.000000
  1
# 102
  7
STANDARD
  0
TEXT
  8
1
  10
112.880692
  20
176.080536
  40
0.250000
  50
0.000000
  1
# 103
  7
STANDARD
  0
POINT
  8
2
  10
112.880692
  20
175.080551
  0
POINT
  8
2
  10
112.880692
  20
176.080536
  0
POINT
  8
3
  10
112.630692
  20
175.147507
  0
POINT
  8
3
  10
112.447601
  20
175.330521
  0
POINT
  8
3
  10
112.380692
  20
175.580521
  0
POINT
  8
3
  10
112.447601
  20
175.830521
  0
POINT
  8
3
  10
112.630692
  20
176.013550
  0
POLYLINE
  8
8
  66
1
  70
0
  250
0
  0
VERTEX
  8
8
  10
100.125824
  20
174.202835
  0
VERTEX
  8
8
  10
100.125824
  20
176.702530
  0
SEQEND
  0
TEXT
  8
1
  10
100.125824
  20
174.202835
  40
0.250000
  50
0.000000
  1
# 104
  7
STANDARD
  0
TEXT
  8
1
  10
100.125824
  20
176.702530
  40
0.250000
  50
0.000000
  1
# 105
  7
STANDARD
  0
POINT
  8
2
  10
100.125824
  20
174.202835
  0
POINT
  8
2
  10
100.125824
  20
176.702530
  0
POLYLINE
  8
85
  66
1
  70
0
  250
1
  0
VERTEX
  8
85
  10
100.125824
  20
174.202835
  0
VERTEX
  8
85
  10
100.125824
  20
176.702530
  0
SEQEND
  0
TEXT
  8
1
  10
100.125824
  20
174.202835
  40
0.250000
  50
0.000000
  1
# 104
  7
STANDARD
  0
TEXT
  8
1
  10
100.125824
  20
176.702530
  40
0.250000
  50
0.000000
  1
# 105
  7
STANDARD
  0
POINT
  8
2
  10
100.125824
  20
174.202835
  0
POINT
  8
2
  10
100.125824
  20
176.702530
  0
POLYLINE
  8
8
  66
1
  70
0
  250
0
  0
VERTEX
  8
8
  10
112.880692
  20
176.703171
  0
VERTEX
  8
8
  10
112.880692
  20
174.203064
  0
SEQEND
  0
TEXT
  8
1
  10
112.880692
  20
176.703171
  40
0.250000
  50
0.000000
  1
# 96
  7
STANDARD
  0
TEXT
  8
1
  10
112.880692
  20
174.203064
  40
0.250000
  50
0.000000
  1
# 97
  7
STANDARD
  0
POINT
  8
2
  10
112.880692
  20
176.703171
  0
POINT
  8
2
  10
112.880692
  20
174.203064
  0
POLYLINE
  8
85
  66
1
  70
0
  250
1
  0
VERTEX
  8
85
  10
112.880692
  20
176.703171
  0
VERTEX
  8
85
  10
112.880692
  20
174.203064
  0
SEQEND
  0
TEXT
  8
1
  10
112.880692
  20
176.703171
  40
0.250000
  50
0.000000
  1
# 96
  7
STANDARD
  0
TEXT
  8
1
  10
112.880692
  20
174.203064
  40
0.250000
  50
0.000000
  1
# 97
  7
STANDARD
  0
POINT
  8
2
  10
112.880692
  20
176.703171
  0
POINT
  8
2
  10
112.880692
  20
174.203064
  0
POLYLINE
  8
8
  66
1
  70
0
  250
0
  0
VERTEX
  8
8
  10
112.880692
  20
174.580551
  0
VERTEX
  8
8
  10
113.380692
  20
174.714493
  0
VERTEX
  8
8
  10
113.746902
  20
175.080521
  0
VERTEX
  8
8
  10
113.880692
  20
175.580521
  0
VERTEX
  8
8
  10
113.746902
  20
176.080521
  0
VERTEX
  8
8
  10
113.380692
  20
176.446548
  0
VERTEX
  8
8
  10
112.880692
  20
176.580536
  0
SEQEND
  0
TEXT
  8
1
  10
112.880692
  20
174.580551
  40
0.250000
  50
0.000000
  1
# 100
  7
STANDARD
  0
TEXT
  8
1
  10
112.880692
  20
176.580536
  40
0.250000
  50
0.000000
  1
# 101
  7
STANDARD
  0
POINT
  8
2
  10
112.880692
  20
174.580551
  0
POINT
  8
2
  10
112.880692
  20
176.580536
  0
POINT
  8
3
  10
113.380692
  20
174.714493
  0
POINT
  8
3
  10
113.746902
  20
175.080521
  0
POINT
  8
3
  10
113.880692
  20
175.580521
  0
POINT
  8
3
  10
113.746902
  20
176.080521
  0
POINT
  8
3
  10
113.380692
  20
176.446548
  0
POLYLINE
  8
85
  66
1
  70
0
  250
1
  0
VERTEX
  8
85
  10
112.880692
  20
174.580551
  0
VERTEX
  8
85
  10
113.380692
  20
174.714493
  0
VERTEX
  8
85
  10
113.746902
  20
175.080521
  0
VERTEX
  8
85
  10
113.880692
  20
175.580521
  0
VERTEX
  8
85
  10
113.746902
  20
176.080521
  0
VERTEX
  8
85
  10
113.380692
  20
176.446548
  0
VERTEX
  8
85
  10
112.880692
  20
176.580536
  0
SEQEND
  0
TEXT
  8
1
  10
112.880692
  20
174.580551
  40
0.250000
  50
0.000000
  1
# 100
  7
STANDARD
  0
TEXT
  8
1
  10
112.880692
  20
176.580536
  40
0.250000
  50
0.000000
  1
# 101
  7
STANDARD
  0
POINT
  8
2
  10
112.880692
  20
174.580551
  0
POINT
  8
2
  10
112.880692
  20
176.580536
  0
POINT
  8
3
  10
113.380692
  20
174.714493
  0
POINT
  8
3
  10
113.746902
  20
175.080521
  0
POINT
  8
3
  10
113.880692
  20
175.580521
  0
POINT
  8
3
  10
113.746902
  20
176.080521
  0
POINT
  8
3
  10
113.380692
  20
176.446548
  0
POLYLINE
  8
8
  66
1
  70
0
  250
0
  0
VERTEX
  8
8
  10
112.880692
  20
175.080551
  0
VERTEX
  8
8
  10
113.130692
  20
175.147507
  0
VERTEX
  8
8
  10
113.313782
  20
175.330521
  0
VERTEX
  8
8
  10
113.380692
  20
175.580521
  0
VERTEX
  8
8
  10
113.313782
  20
175.830521
  0
VERTEX
  8
8
  10
113.130692
  20
176.013550
  0
VERTEX
  8
8
  10
112.880692
  20
176.080536
  0
SEQEND
  0
TEXT
  8
1
  10
112.880692
  20
175.080551
  40
0.250000
  50
0.000000
  1
# 102
  7
STANDARD
  0
TEXT
  8
1
  10
112.880692
  20
176.080536
  40
0.250000
  50
0.000000
  1
# 103
  7
STANDARD
  0
POINT
  8
2
  10
112.880692
  20
175.080551
  0
POINT
  8
2
  10
112.880692
  20
176.080536
  0
POINT
  8
3
  10
113.130692
  20
175.147507
  0
POINT
  8
3
  10
113.313782
  20
175.330521
  0
POINT
  8
3
  10
113.380692
  20
175.580521
  0
POINT
  8
3
  10
113.313782
  20
175.830521
  0
POINT
  8
3
  10
113.130692
  20
176.013550
  0
POLYLINE
  8
85
  66
1
  70
0
  250
1
  0
VERTEX
  8
85
  10
112.880692
  20
175.080551
  0
VERTEX
  8
85
  10
113.130692
  20
175.147507
  0
VERTEX
  8
85
  10
113.313782
  20
175.330521
  0
VERTEX
  8
85
  10
113.380692
  20
175.580521
  0
VERTEX
  8
85
  10
113.313782
  20
175.830521
  0
VERTEX
  8
85
  10
113.130692
  20
176.013550
  0
VERTEX
  8
85
  10
112.880692
  20
176.080536
  0
SEQEND
  0
TEXT
  8
1
  10
112.880692
  20
175.080551
  40
0.250000
  50
0.000000
  1
# 102
  7
STANDARD
  0
TEXT
  8
1
  10
112.880692
  20
176.080536
  40
0.250000
  50
0.000000
  1
# 103
  7
STANDARD
  0
POINT
  8
2
  10
112.880692
  20
175.080551
  0
POINT
  8
2
  10
112.880692
  20
176.080536
  0
POINT
  8
3
  10
113.130692
  20
175.147507
  0
POINT
  8
3
  10
113.313782
  20
175.330521
  0
POINT
  8
3
  10
113.380692
  20
175.580521
  0
POINT
  8
3
  10
113.313782
  20
175.830521
  0
POINT
  8
3
  10
113.130692
  20
176.013550
  0
POLYLINE
  8
8
  66
1
  70
0
  250
0
  0
VERTEX
  8
8
  10
125.635559
  20
174.202835
  0
VERTEX
  8
8
  10
125.635559
  20
176.702530
  0
SEQEND
  0
TEXT
  8
1
  10
125.635559
  20
174.202835
  40
0.250000
  50
0.000000
  1
# 104
  7
STANDARD
  0
TEXT
  8
1
  10
125.635559
  20
176.702530
  40
0.250000
  50
0.000000
  1
# 105
  7
STANDARD
  0
POINT
  8
2
  10
125.635559
  20
174.202835
  0
POINT
  8
2
  10
125.635559
  20
176.702530
  0
POLYLINE
  8
85
  66
1
  70
0
  250
1
  0
VERTEX
  8
85
  10
125.635559
  20
174.202835
  0
VERTEX
  8
85
  10
125.635559
  20
176.702530
  0
SEQEND
  0
TEXT
  8
1
  10
125.635559
  20
174.202835
  40
0.250000
  50
0.000000
  1
# 104
  7
STANDARD
  0
TEXT
  8
1
  10
125.635559
  20
176.702530
  40
0.250000
  50
0.000000
  1
# 105
  7
STANDARD
  0
POINT
  8
2
  10
125.635559
  20
174.202835
  0
POINT
  8
2
  10
125.635559
  20
176.702530
  0
POLYLINE
  8
8
  66
1
  70
0
  250
0
  0
VERTEX
  8
8
  10
112.880692
  20
176.703171
  0
VERTEX
  8
8
  10
112.880692
  20
174.203064
  0
SEQEND
  0
TEXT
  8
1
  10
112.880692
  20
176.703171
  40
0.250000
  50
0.000000
  1
# 96
  7
STANDARD
  0
TEXT
  8
1
  10
112.880692
  20
174.203064
  40
0.250000
  50
0.000000
  1
# 97
  7
STANDARD
  0
POINT
  8
2
  10
112.880692
  20
176.703171
  0
POINT
  8
2
  10
112.880692
  20
174.203064
  0
POLYLINE
  8
85
  66
1
  70
0
  250
1
  0
VERTEX
  8
85
  10
112.880692
  20
176.703171
  0
VERTEX
  8
85
  10
112.880692
  20
174.203064
  0
SEQEND
  0
TEXT
  8
1
  10
112.880692
  20
176.703171
  40
0.250000
  50
0.000000
  1
# 96
  7
STANDARD
  0
TEXT
  8
1
  10
112.880692
  20
174.203064
  40
0.250000
  50
0.000000
  1
# 97
  7
STANDARD
  0
POINT
  8
2
  10
112.880692
  20
176.703171
  0
POINT
  8
2
  10
112.880692
  20
174.203064
  0
ENDBLK
  0
BLOCK
  8
0
  2
4_M
  70
64
  10
0
  20
0
  0
TEXT
  8
1
  10
-3.333922
  20
125.491249
  50
0.000000
  51
0.000000
  71
0.000000
  1
PIECE NAME: 4
  7
STANDARD
  0
TEXT
  8
1
  10
-3.333922
  20
120.491249
  50
0.000000
  51
0.000000
  71
0.000000
  1
SIZE: M
  7
STANDARD
  0
TEXT
  8
1
  10
-3.333922
  20
110.491249
  50
0.000000
  51
0.000000
  71
0.000000
  1
QUANTITY: 1
  7
STANDARD
  0
TEXT
  8
1
  10
-3.333922
  20
110.491249
  40
0.250000
  50
0.000000
  1
ROTATION: 0
  7
STANDARD
  0
POLYLINE
  8
1
  66
1
  70
1
  250
2
  0
VERTEX
  8
1
  10
-3.333923
  20
139.301285
  0
VERTEX
  8
1
  10
-3.912053
  20
140.008911
  0
VERTEX
  8
1
  10
-4.471623
  20
140.730545
  0
VERTEX
  8
1
  10
-5.012143
  20
141.466797
  0
VERTEX
  8
1
  10
-5.535093
  20
142.215790
  0
VERTEX
  8
1
  10
-6.531673
  20
143.746765
  0
VERTEX
  8
1
  10
-7.513613
  20
145.287415
  0
VERTEX
  8
1
  10
-7.963802
  20
146.082184
  0
VERTEX
  8
1
  10
-8.389103
  20
146.890442
  0
VERTEX
  8
1
  10
-9.176692
  20
148.538788
  0
VERTEX
  8
1
  10
-9.942813
  20
150.197327
  0
VERTEX
  8
1
  10
-10.684511
  20
151.866821
  0
VERTEX
  8
1
  10
-11.387142
  20
153.553238
  0
VERTEX
  8
1
  10
-12.046322
  20
155.257080
  0
VERTEX
  8
1
  10
-12.662533
  20
156.976898
  0
VERTEX
  8
1
  10
-12.966243
  20
157.838791
  0
VERTEX
  8
1
  10
-13.247982
  20
158.707275
  0
VERTEX
  8
1
  10
-13.481874
  20
159.589996
  0
VERTEX
  8
1
  10
-13.690372
  20
160.479553
  0
VERTEX
  8
1
  10
-14.078553
  20
162.264557
  0
VERTEX
  8
1
  10
-26.662052
  20
158.163025
  0
VERTEX
  8
1
  10
-26.289003
  20
157.185059
  0
VERTEX
  8
1
  10
-25.958431
  20
156.194046
  0
VERTEX
  8
1
  10
-25.669371
  20
155.188324
  0
VERTEX
  8
1
  10
-25.422300
  20
154.171326
  0
VERTEX
  8
1
  10
-25.222103
  20
153.144775
  0
VERTEX
  8
1
  10
-25.058043
  20
152.111282
  0
VERTEX
  8
1
  10
-24.920830
  20
151.074219
  0
VERTEX
  8
1
  10
-24.812920
  20
150.033722
  0
VERTEX
  8
1
  10
-24.732855
  20
148.990601
  0
VERTEX
  8
1
  10
-24.679623
  20
147.945709
  0
VERTEX
  8
1
  10
-24.650810
  20
146.899902
  0
VERTEX
  8
1
  10
-24.645443
  20
146.006546
  0
VERTEX
  8
1
  10
-24.645933
  20
145.853668
  0
VERTEX
  8
1
  10
-24.658632
  20
144.807358
  0
VERTEX
  8
1
  10
-24.699150
  20
143.762070
  0
VERTEX
  8
1
  10
-24.772402
  20
142.725845
  0
VERTEX
  8
1
  10
-24.884212
  20
141.693405
  0
VERTEX
  8
1
  10
-25.036562
  20
140.665436
  0
VERTEX
  8
1
  10
-25.241152
  20
139.647736
  0
VERTEX
  8
1
  10
-25.500914
  20
138.633682
  0
VERTEX
  8
1
  10
-25.848570
  20
137.651672
  0
VERTEX
  8
1
  10
-26.328550
  20
136.702332
  0
VERTEX
  8
1
  10
-26.915953
  20
135.815674
  0
VERTEX
  8
1
  10
-27.597103
  20
134.995819
  0
VERTEX
  8
1
  10
-28.382261
  20
134.283051
  0
VERTEX
  8
1
  10
-29.277281
  20
133.712341
  0
VERTEX
  8
1
  10
-30.252382
  20
133.293091
  0
VERTEX
  8
1
  10
-31.270443
  20
133.037521
  0
VERTEX
  8
1
  10
-32.343689
  20
132.946945
  0
VERTEX
  8
1
  10
-31.333921
  20
88.717957
  0
VERTEX
  8
1
  10
-29.476503
  20
88.717957
  0
VERTEX
  8
1
  10
-12.965762
  20
88.717957
  0
VERTEX
  8
1
  10
-3.333923
  20
88.717957
  0
VERTEX
  8
1
  10
6.297916
  20
88.717957
  0
VERTEX
  8
1
  10
22.808659
  20
88.717957
  0
VERTEX
  8
1
  10
24.666075
  20
88.717957
  0
VERTEX
  8
1
  10
25.675846
  20
132.946945
  0
VERTEX
  8
1
  10
24.602598
  20
133.037521
  0
VERTEX
  8
1
  10
23.584538
  20
133.293091
  0
VERTEX
  8
1
  10
22.609434
  20
133.712341
  0
VERTEX
  8
1
  10
21.714413
  20
134.283051
  0
VERTEX
  8
1
  10
20.929256
  20
134.995819
  0
VERTEX
  8
1
  10
20.248104
  20
135.815674
  0
VERTEX
  8
1
  10
19.660702
  20
136.702332
  0
VERTEX
  8
1
  10
19.180725
  20
137.651672
  0
VERTEX
  8
1
  10
18.833067
  20
138.633682
  0
VERTEX
  8
1
  10
18.573307
  20
139.647736
  0
VERTEX
  8
1
  10
18.368717
  20
140.665436
  0
VERTEX
  8
1
  10
18.216368
  20
141.693405
  0
VERTEX
  8
1
  10
18.104557
  20
142.725845
  0
VERTEX
  8
1
  10
18.031305
  20
143.762070
  0
VERTEX
  8
1
  10
17.990788
  20
144.807358
  0
VERTEX
  8
1
  10
17.978086
  20
145.853668
  0
VERTEX
  8
1
  10
17.977598
  20
146.006546
  0
VERTEX
  8
1
  10
17.977598
  20
146.006546
  0
VERTEX
  8
1
  10
17.982965
  20
146.899902
  0
VERTEX
  8
1
  10
18.011778
  20
147.945709
  0
VERTEX
  8
1
  10
18.065006
  20
148.990601
  0
VERTEX
  8
1
  10
18.145075
  20
150.033722
  0
VERTEX
  8
1
  10
18.252985
  20
151.074219
  0
VERTEX
  8
1
  10
18.390196
  20
152.111282
  0
VERTEX
  8
1
  10
18.554258
  20
153.144775
  0
VERTEX
  8
1
  10
18.754456
  20
154.171326
  0
VERTEX
  8
1
  10
19.001526
  20
155.188324
  0
VERTEX
  8
1
  10
19.290585
  20
156.194046
  0
VERTEX
  8
1
  10
19.621159
  20
157.185059
  0
VERTEX
  8
1
  10
19.994205
  20
158.163025
  0
VERTEX
  8
1
  10
7.410707
  20
162.264557
  0
VERTEX
  8
1
  10
7.022526
  20
160.479553
  0
VERTEX
  8
1
  10
6.814027
  20
159.589996
  0
VERTEX
  8
1
  10
6.580135
  20
158.707275
  0
VERTEX
  8
1
  10
6.298396
  20
157.838791
  0
VERTEX
  8
1
  10
5.994686
  20
156.976898
  0
VERTEX
  8
1
  10
5.378477
  20
155.257080
  0
VERTEX
  8
1
  10
4.719297
  20
153.553238
  0
VERTEX
  8
1
  10
4.016667
  20
151.866821
  0
VERTEX
  8
1
  10
3.274966
  20
150.197327
  0
VERTEX
  8
1
  10
2.508846
  20
148.538788
  0
VERTEX
  8
1
  10
1.721257
  20
146.890442
  0
VERTEX
  8
1
  10
1.295956
  20
146.082184
  0
VERTEX
  8
1
  10
0.845766
  20
145.287415
  0
VERTEX
  8
1
  10
-0.136174
  20
143.746765
  0
VERTEX
  8
1
  10
-1.132753
  20
142.215790
  0
VERTEX
  8
1
  10
-1.655704
  20
141.466797
  0
VERTEX
  8
1
  10
-2.196223
  20
140.730545
  0
VERTEX
  8
1
  10
-2.755794
  20
140.008911
  0
SEQEND
  0
POINT
  8
2
  10
-3.333923
  20
139.301285
  0
POINT
  8
2
  10
-14.078553
  20
162.264557
  0
POINT
  8
2
  10
-26.662052
  20
158.163025
  0
POINT
  8
2
  10
-32.343689
  20
132.946945
  0
POINT
  8
2
  10
-31.333921
  20
88.717957
  0
POINT
  8
2
  10
-29.476503
  20
88.717957
  0
POINT
  8
2
  10
-12.965762
  20
88.717957
  0
POINT
  8
2
  10
-3.333923
  20
88.717957
  0
POINT
  8
2
  10
6.297916
  20
88.717957
  0
POINT
  8
2
  10
22.808659
  20
88.717957
  0
POINT
  8
2
  10
24.666075
  20
88.717957
  0
POINT
  8
2
  10
25.675846
  20
132.946945
  0
POINT
  8
2
  10
19.994205
  20
158.163025
  0
POINT
  8
2
  10
7.410707
  20
162.264557
  0
POINT
  8
3
  10
-3.912053
  20
140.008911
  0
POINT
  8
3
  10
-4.471623
  20
140.730545
  0
POINT
  8
3
  10
-5.012143
  20
141.466797
  0
POINT
  8
3
  10
-5.535093
  20
142.215790
  0
POINT
  8
3
  10
-6.531673
  20
143.746765
  0
POINT
  8
3
  10
-7.513613
  20
145.287415
  0
POINT
  8
3
  10
-7.963802
  20
146.082184
  0
POINT
  8
3
  10
-8.389103
  20
146.890442
  0
POINT
  8
3
  10
-9.176692
  20
148.538788
  0
POINT
  8
3
  10
-9.942813
  20
150.197327
  0
POINT
  8
3
  10
-10.684511
  20
151.866821
  0
POINT
  8
3
  10
-11.387142
  20
153.553238
  0
POINT
  8
3
  10
-12.046322
  20
155.257080
  0
POINT
  8
3
  10
-12.662533
  20
156.976898
  0
POINT
  8
3
  10
-12.966243
  20
157.838791
  0
POINT
  8
3
  10
-13.247982
  20
158.707275
  0
POINT
  8
3
  10
-13.481874
  20
159.589996
  0
POINT
  8
3
  10
-13.690372
  20
160.479553
  0
POINT
  8
3
  10
-26.289003
  20
157.185059
  0
POINT
  8
3
  10
-25.958431
  20
156.194046
  0
POINT
  8
3
  10
-25.669371
  20
155.188324
  0
POINT
  8
3
  10
-25.422300
  20
154.171326
  0
POINT
  8
3
  10
-25.222103
  20
153.144775
  0
POINT
  8
3
  10
-25.058043
  20
152.111282
  0
POINT
  8
3
  10
-24.920830
  20
151.074219
  0
POINT
  8
3
  10
-24.812920
  20
150.033722
  0
POINT
  8
3
  10
-24.732855
  20
148.990601
  0
POINT
  8
3
  10
-24.679623
  20
147.945709
  0
POINT
  8
3
  10
-24.650810
  20
146.899902
  0
POINT
  8
3
  10
-24.645443
  20
146.006546
  0
POINT
  8
3
  10
-24.645933
  20
145.853668
  0
POINT
  8
3
  10
-24.658632
  20
144.807358
  0
POINT
  8
3
  10
-24.699150
  20
143.762070
  0
POINT
  8
3
  10
-24.772402
  20
142.725845
  0
POINT
  8
3
  10
-24.884212
  20
141.693405
  0
POINT
  8
3
  10
-25.036562
  20
140.665436
  0
POINT
  8
3
  10
-25.241152
  20
139.647736
  0
POINT
  8
3
  10
-25.500914
  20
138.633682
  0
POINT
  8
3
  10
-25.848570
  20
137.651672
  0
POINT
  8
3
  10
-26.328550
  20
136.702332
  0
POINT
  8
3
  10
-26.915953
  20
135.815674
  0
POINT
  8
3
  10
-27.597103
  20
134.995819
  0
POINT
  8
3
  10
-28.382261
  20
134.283051
  0
POINT
  8
3
  10
-29.277281
  20
133.712341
  0
POINT
  8
3
  10
-30.252382
  20
133.293091
  0
POINT
  8
3
  10
-31.270443
  20
133.037521
  0
POINT
  8
3
  10
24.602598
  20
133.037521
  0
POINT
  8
3
  10
23.584538
  20
133.293091
  0
POINT
  8
3
  10
22.609434
  20
133.712341
  0
POINT
  8
3
  10
21.714413
  20
134.283051
  0
POINT
  8
3
  10
20.929256
  20
134.995819
  0
POINT
  8
3
  10
20.248104
  20
135.815674
  0
POINT
  8
3
  10
19.660702
  20
136.702332
  0
POINT
  8
3
  10
19.180725
  20
137.651672
  0
POINT
  8
3
  10
18.833067
  20
138.633682
  0
POINT
  8
3
  10
18.573307
  20
139.647736
  0
POINT
  8
3
  10
18.368717
  20
140.665436
  0
POINT
  8
3
  10
18.216368
  20
141.693405
  0
POINT
  8
3
  10
18.104557
  20
142.725845
  0
POINT
  8
3
  10
18.031305
  20
143.762070
  0
POINT
  8
3
  10
17.990788
  20
144.807358
  0
POINT
  8
3
  10
17.978086
  20
145.853668
  0
POINT
  8
3
  10
17.977598
  20
146.006546
  0
POINT
  8
3
  10
17.977598
  20
146.006546
  0
POINT
  8
3
  10
17.982965
  20
146.899902
  0
POINT
  8
3
  10
18.011778
  20
147.945709
  0
POINT
  8
3
  10
18.065006
  20
148.990601
  0
POINT
  8
3
  10
18.145075
  20
150.033722
  0
POINT
  8
3
  10
18.252985
  20
151.074219
  0
POINT
  8
3
  10
18.390196
  20
152.111282
  0
POINT
  8
3
  10
18.554258
  20
153.144775
  0
POINT
  8
3
  10
18.754456
  20
154.171326
  0
POINT
  8
3
  10
19.001526
  20
155.188324
  0
POINT
  8
3
  10
19.290585
  20
156.194046
  0
POINT
  8
3
  10
19.621159
  20
157.185059
  0
POINT
  8
3
  10
7.022526
  20
160.479553
  0
POINT
  8
3
  10
6.814027
  20
159.589996
  0
POINT
  8
3
  10
6.580135
  20
158.707275
  0
POINT
  8
3
  10
6.298396
  20
157.838791
  0
POINT
  8
3
  10
5.994686
  20
156.976898
  0
POINT
  8
3
  10
5.378477
  20
155.257080
  0
POINT
  8
3
  10
4.719297
  20
153.553238
  0
POINT
  8
3
  10
4.016667
  20
151.866821
  0
POINT
  8
3
  10
3.274966
  20
150.197327
  0
POINT
  8
3
  10
2.508846
  20
148.538788
  0
POINT
  8
3
  10
1.721257
  20
146.890442
  0
POINT
  8
3
  10
1.295956
  20
146.082184
  0
POINT
  8
3
  10
0.845766
  20
145.287415
  0
POINT
  8
3
  10
-0.136174
  20
143.746765
  0
POINT
  8
3
  10
-1.132753
  20
142.215790
  0
POINT
  8
3
  10
-1.655704
  20
141.466797
  0
POINT
  8
3
  10
-2.196223
  20
140.730545
  0
POINT
  8
3
  10
-2.755794
  20
140.008911
  0
POINT
  8
4
  10
-24.645443
  20
146.006546
  30
0.000000
  39
0.000000
  50
0.690688
  0
POINT
  8
4
  10
17.977598
  20
146.006546
  30
0.000000
  39
0.000000
  50
180.288040
  0
POLYLINE
  8
84
  66
1
  70
1
  250
2
  0
VERTEX
  8
84
  10
-3.333923
  20
139.301285
  0
VERTEX
  8
84
  10
-3.912053
  20
140.008911
  0
VERTEX
  8
84
  10
-4.471623
  20
140.730545
  0
VERTEX
  8
84
  10
-5.012143
  20
141.466797
  0
VERTEX
  8
84
  10
-5.535093
  20
142.215790
  0
VERTEX
  8
84
  10
-6.531673
  20
143.746765
  0
VERTEX
  8
84
  10
-7.513613
  20
145.287415
  0
VERTEX
  8
84
  10
-7.963802
  20
146.082184
  0
VERTEX
  8
84
  10
-8.389103
  20
146.890442
  0
VERTEX
  8
84
  10
-9.176692
  20
148.538788
  0
VERTEX
  8
84
  10
-9.942813
  20
150.197327
  0
VERTEX
  8
84
  10
-10.684511
  20
151.866821
  0
VERTEX
  8
84
  10
-11.387142
  20
153.553238
  0
VERTEX
  8
84
  10
-12.046322
  20
155.257080
  0
VERTEX
  8
84
  10
-12.662533
  20
156.976898
  0
VERTEX
  8
84
  10
-12.966243
  20
157.838791
  0
VERTEX
  8
84
  10
-13.247982
  20
158.707275
  0
VERTEX
  8
84
  10
-13.481874
  20
159.589996
  0
VERTEX
  8
84
  10
-13.690372
  20
160.479553
  0
VERTEX
  8
84
  10
-14.078553
  20
162.264557
  0
VERTEX
  8
84
  10
-26.662052
  20
158.163025
  0
VERTEX
  8
84
  10
-26.289003
  20
157.185059
  0
VERTEX
  8
84
  10
-25.958431
  20
156.194046
  0
VERTEX
  8
84
  10
-25.669371
  20
155.188324
  0
VERTEX
  8
84
  10
-25.422300
  20
154.171326
  0
VERTEX
  8
84
  10
-25.222103
  20
153.144775
  0
VERTEX
  8
84
  10
-25.058043
  20
152.111282
  0
VERTEX
  8
84
  10
-24.920830
  20
151.074219
  0
VERTEX
  8
84
  10
-24.812920
  20
150.033722
  0
VERTEX
  8
84
  10
-24.732855
  20
148.990601
  0
VERTEX
  8
84
  10
-24.679623
  20
147.945709
  0
VERTEX
  8
84
  10
-24.650810
  20
146.899902
  0
VERTEX
  8
84
  10
-24.645443
  20
146.006546
  0
VERTEX
  8
84
  10
-24.645933
  20
145.853668
  0
VERTEX
  8
84
  10
-24.658632
  20
144.807358
  0
VERTEX
  8
84
  10
-24.699150
  20
143.762070
  0
VERTEX
  8
84
  10
-24.772402
  20
142.725845
  0
VERTEX
  8
84
  10
-24.884212
  20
141.693405
  0
VERTEX
  8
84
  10
-25.036562
  20
140.665436
  0
VERTEX
  8
84
  10
-25.241152
  20
139.647736
  0
VERTEX
  8
84
  10
-25.500914
  20
138.633682
  0
VERTEX
  8
84
  10
-25.848570
  20
137.651672
  0
VERTEX
  8
84
  10
-26.328550
  20
136.702332
  0
VERTEX
  8
84
  10
-26.915953
  20
135.815674
  0
VERTEX
  8
84
  10
-27.597103
  20
134.995819
  0
VERTEX
  8
84
  10
-28.382261
  20
134.283051
  0
VERTEX
  8
84
  10
-29.277281
  20
133.712341
  0
VERTEX
  8
84
  10
-30.252382
  20
133.293091
  0
VERTEX
  8
84
  10
-31.270443
  20
133.037521
  0
VERTEX
  8
84
  10
-32.343689
  20
132.946945
  0
VERTEX
  8
84
  10
-31.333921
  20
88.717957
  0
VERTEX
  8
84
  10
-29.476503
  20
88.717957
  0
VERTEX
  8
84
  10
-12.965762
  20
88.717957
  0
VERTEX
  8
84
  10
-3.333923
  20
88.717957
  0
VERTEX
  8
84
  10
6.297916
  20
88.717957
  0
VERTEX
  8
84
  10
22.808659
  20
88.717957
  0
VERTEX
  8
84
  10
24.666075
  20
88.717957
  0
VERTEX
  8
84
  10
25.675846
  20
132.946945
  0
VERTEX
  8
84
  10
24.602598
  20
133.037521
  0
VERTEX
  8
84
  10
23.584538
  20
133.293091
  0
VERTEX
  8
84
  10
22.609434
  20
133.712341
  0
VERTEX
  8
84
  10
21.714413
  20
134.283051
  0
VERTEX
  8
84
  10
20.929256
  20
134.995819
  0
VERTEX
  8
84
  10
20.248104
  20
135.815674
  0
VERTEX
  8
84
  10
19.660702
  20
136.702332
  0
VERTEX
  8
84
  10
19.180725
  20
137.651672
  0
VERTEX
  8
84
  10
18.833067
  20
138.633682
  0
VERTEX
  8
84
  10
18.573307
  20
139.647736
  0
VERTEX
  8
84
  10
18.368717
  20
140.665436
  0
VERTEX
  8
84
  10
18.216368
  20
141.693405
  0
VERTEX
  8
84
  10
18.104557
  20
142.725845
  0
VERTEX
  8
84
  10
18.031305
  20
143.762070
  0
VERTEX
  8
84
  10
17.990788
  20
144.807358
  0
VERTEX
  8
84
  10
17.978086
  20
145.853668
  0
VERTEX
  8
84
  10
17.977598
  20
146.006546
  0
VERTEX
  8
84
  10
17.982965
  20
146.899902
  0
VERTEX
  8
84
  10
18.011778
  20
147.945709
  0
VERTEX
  8
84
  10
18.065006
  20
148.990601
  0
VERTEX
  8
84
  10
18.145075
  20
150.033722
  0
VERTEX
  8
84
  10
18.252985
  20
151.074219
  0
VERTEX
  8
84
  10
18.390196
  20
152.111282
  0
VERTEX
  8
84
  10
18.554258
  20
153.144775
  0
VERTEX
  8
84
  10
18.754456
  20
154.171326
  0
VERTEX
  8
84
  10
19.001526
  20
155.188324
  0
VERTEX
  8
84
  10
19.290585
  20
156.194046
  0
VERTEX
  8
84
  10
19.621159
  20
157.185059
  0
VERTEX
  8
84
  10
19.994205
  20
158.163025
  0
VERTEX
  8
84
  10
7.410707
  20
162.264557
  0
VERTEX
  8
84
  10
7.022526
  20
160.479553
  0
VERTEX
  8
84
  10
6.814027
  20
159.589996
  0
VERTEX
  8
84
  10
6.580135
  20
158.707275
  0
VERTEX
  8
84
  10
6.298396
  20
157.838791
  0
VERTEX
  8
84
  10
5.994686
  20
156.976898
  0
VERTEX
  8
84
  10
5.378477
  20
155.257080
  0
VERTEX
  8
84
  10
4.719297
  20
153.553238
  0
VERTEX
  8
84
  10
4.016667
  20
151.866821
  0
VERTEX
  8
84
  10
3.274966
  20
150.197327
  0
VERTEX
  8
84
  10
2.508846
  20
148.538788
  0
VERTEX
  8
84
  10
1.721257
  20
146.890442
  0
VERTEX
  8
84
  10
1.295956
  20
146.082184
  0
VERTEX
  8
84
  10
0.845766
  20
145.287415
  0
VERTEX
  8
84
  10
-0.136174
  20
143.746765
  0
VERTEX
  8
84
  10
-1.132753
  20
142.215790
  0
VERTEX
  8
84
  10
-1.655704
  20
141.466797
  0
VERTEX
  8
84
  10
-2.196223
  20
140.730545
  0
VERTEX
  8
84
  10
-2.755794
  20
140.008911
  0
SEQEND
  0
POINT
  8
2
  10
-3.333923
  20
139.301285
  0
POINT
  8
2
  10
-14.078553
  20
162.264557
  0
POINT
  8
2
  10
-26.662052
  20
158.163025
  0
POINT
  8
2
  10
-32.343689
  20
132.946945
  0
POINT
  8
2
  10
-31.333921
  20
88.717957
  0
POINT
  8
2
  10
-29.476503
  20
88.717957
  0
POINT
  8
2
  10
-12.965762
  20
88.717957
  0
POINT
  8
2
  10
-3.333923
  20
88.717957
  0
POINT
  8
2
  10
6.297916
  20
88.717957
  0
POINT
  8
2
  10
22.808659
  20
88.717957
  0
POINT
  8
2
  10
24.666075
  20
88.717957
  0
POINT
  8
2
  10
25.675846
  20
132.946945
  0
POINT
  8
2
  10
19.994205
  20
158.163025
  0
POINT
  8
2
  10
7.410707
  20
162.264557
  0
POINT
  8
3
  10
-3.912053
  20
140.008911
  0
POINT
  8
3
  10
-4.471623
  20
140.730545
  0
POINT
  8
3
  10
-5.012143
  20
141.466797
  0
POINT
  8
3
  10
-5.535093
  20
142.215790
  0
POINT
  8
3
  10
-6.531673
  20
143.746765
  0
POINT
  8
3
  10
-7.513613
  20
145.287415
  0
POINT
  8
3
  10
-7.963802
  20
146.082184
  0
POINT
  8
3
  10
-8.389103
  20
146.890442
  0
POINT
  8
3
  10
-9.176692
  20
148.538788
  0
POINT
  8
3
  10
-9.942813
  20
150.197327
  0
POINT
  8
3
  10
-10.684511
  20
151.866821
  0
POINT
  8
3
  10
-11.387142
  20
153.553238
  0
POINT
  8
3
  10
-12.046322
  20
155.257080
  0
POINT
  8
3
  10
-12.662533
  20
156.976898
  0
POINT
  8
3
  10
-12.966243
  20
157.838791
  0
POINT
  8
3
  10
-13.247982
  20
158.707275
  0
POINT
  8
3
  10
-13.481874
  20
159.589996
  0
POINT
  8
3
  10
-13.690372
  20
160.479553
  0
POINT
  8
3
  10
-26.289003
  20
157.185059
  0
POINT
  8
3
  10
-25.958431
  20
156.194046
  0
POINT
  8
3
  10
-25.669371
  20
155.188324
  0
POINT
  8
3
  10
-25.422300
  20
154.171326
  0
POINT
  8
3
  10
-25.222103
  20
153.144775
  0
POINT
  8
3
  10
-25.058043
  20
152.111282
  0
POINT
  8
3
  10
-24.920830
  20
151.074219
  0
POINT
  8
3
  10
-24.812920
  20
150.033722
  0
POINT
  8
3
  10
-24.732855
  20
148.990601
  0
POINT
  8
3
  10
-24.679623
  20
147.945709
  0
POINT
  8
3
  10
-24.650810
  20
146.899902
  0
POINT
  8
3
  10
-24.645443
  20
146.006546
  0
POINT
  8
3
  10
-24.645933
  20
145.853668
  0
POINT
  8
3
  10
-24.658632
  20
144.807358
  0
POINT
  8
3
  10
-24.699150
  20
143.762070
  0
POINT
  8
3
  10
-24.772402
  20
142.725845
  0
POINT
  8
3
  10
-24.884212
  20
141.693405
  0
POINT
  8
3
  10
-25.036562
  20
140.665436
  0
POINT
  8
3
  10
-25.241152
  20
139.647736
  0
POINT
  8
3
  10
-25.500914
  20
138.633682
  0
POINT
  8
3
  10
-25.848570
  20
137.651672
  0
POINT
  8
3
  10
-26.328550
  20
136.702332
  0
POINT
  8
3
  10
-26.915953
  20
135.815674
  0
POINT
  8
3
  10
-27.597103
  20
134.995819
  0
POINT
  8
3
  10
-28.382261
  20
134.283051
  0
POINT
  8
3
  10
-29.277281
  20
133.712341
  0
POINT
  8
3
  10
-30.252382
  20
133.293091
  0
POINT
  8
3
  10
-31.270443
  20
133.037521
  0
POINT
  8
3
  10
24.602598
  20
133.037521
  0
POINT
  8
3
  10
23.584538
  20
133.293091
  0
POINT
  8
3
  10
22.609434
  20
133.712341
  0
POINT
  8
3
  10
21.714413
  20
134.283051
  0
POINT
  8
3
  10
20.929256
  20
134.995819
  0
POINT
  8
3
  10
20.248104
  20
135.815674
  0
POINT
  8
3
  10
19.660702
  20
136.702332
  0
POINT
  8
3
  10
19.180725
  20
137.651672
  0
POINT
  8
3
  10
18.833067
  20
138.633682
  0
POINT
  8
3
  10
18.573307
  20
139.647736
  0
POINT
  8
3
  10
18.368717
  20
140.665436
  0
POINT
  8
3
  10
18.216368
  20
141.693405
  0
POINT
  8
3
  10
18.104557
  20
142.725845
  0
POINT
  8
3
  10
18.031305
  20
143.762070
  0
POINT
  8
3
  10
17.990788
  20
144.807358
  0
POINT
  8
3
  10
17.978086
  20
145.853668
  0
POINT
  8
3
  10
17.977598
  20
146.006546
  0
POINT
  8
3
  10
17.977598
  20
146.006546
  0
POINT
  8
3
  10
17.982965
  20
146.899902
  0
POINT
  8
3
  10
18.011778
  20
147.945709
  0
POINT
  8
3
  10
18.065006
  20
148.990601
  0
POINT
  8
3
  10
18.145075
  20
150.033722
  0
POINT
  8
3
  10
18.252985
  20
151.074219
  0
POINT
  8
3
  10
18.390196
  20
152.111282
  0
POINT
  8
3
  10
18.554258
  20
153.144775
  0
POINT
  8
3
  10
18.754456
  20
154.171326
  0
POINT
  8
3
  10
19.001526
  20
155.188324
  0
POINT
  8
3
  10
19.290585
  20
156.194046
  0
POINT
  8
3
  10
19.621159
  20
157.185059
  0
POINT
  8
3
  10
7.022526
  20
160.479553
  0
POINT
  8
3
  10
6.814027
  20
159.589996
  0
POINT
  8
3
  10
6.580135
  20
158.707275
  0
POINT
  8
3
  10
6.298396
  20
157.838791
  0
POINT
  8
3
  10
5.994686
  20
156.976898
  0
POINT
  8
3
  10
5.378477
  20
155.257080
  0
POINT
  8
3
  10
4.719297
  20
153.553238
  0
POINT
  8
3
  10
4.016667
  20
151.866821
  0
POINT
  8
3
  10
3.274966
  20
150.197327
  0
POINT
  8
3
  10
2.508846
  20
148.538788
  0
POINT
  8
3
  10
1.721257
  20
146.890442
  0
POINT
  8
3
  10
1.295956
  20
146.082184
  0
POINT
  8
3
  10
0.845766
  20
145.287415
  0
POINT
  8
3
  10
-0.136174
  20
143.746765
  0
POINT
  8
3
  10
-1.132753
  20
142.215790
  0
POINT
  8
3
  10
-1.655704
  20
141.466797
  0
POINT
  8
3
  10
-2.196223
  20
140.730545
  0
POINT
  8
3
  10
-2.755794
  20
140.008911
  0
LINE
  8
7
  10
-3.333922
  20
116.491249
  11
-3.333922
  21
134.491257
  0
POLYLINE
  8
8
  66
1
  70
0
  250
1
  0
VERTEX
  8
8
  10
-11.020442
  20
138.199249
  0
VERTEX
  8
8
  10
-11.020442
  20
123.947403
  0
VERTEX
  8
8
  10
-21.604431
  20
123.947403
  0
VERTEX
  8
8
  10
-21.604431
  20
138.199249
  0
SEQEND
  0
POINT
  8
2
  10
-11.020442
  20
138.199249
  0
POINT
  8
2
  10
-11.020442
  20
123.947403
  0
POINT
  8
2
  10
-21.604431
  20
123.947403
  0
POINT
  8
2
  10
-21.604431
  20
138.199249
  0
POLYLINE
  8
85
  66
1
  70
0
  250
1
  0
VERTEX
  8
85
  10
-11.020442
  20
138.199249
  0
VERTEX
  8
85
  10
-11.020442
  20
123.947403
  0
VERTEX
  8
85
  10
-21.604431
  20
123.947403
  0
VERTEX
  8
85
  10
-21.604431
  20
138.199249
  0
SEQEND
  0
POINT
  8
2
  10
-11.020442
  20
138.199249
  0
POINT
  8
2
  10
-11.020442
  20
123.947403
  0
POINT
  8
2
  10
-21.604431
  20
123.947403
  0
POINT
  8
2
  10
-21.604431
  20
138.199249
  0
POLYLINE
  8
8
  66
1
  70
0
  250
1
  0
VERTEX
  8
8
  10
-14.024311
  20
138.199249
  0
VERTEX
  8
8
  10
-14.024311
  20
137.199249
  0
SEQEND
  0
POINT
  8
2
  10
-14.024311
  20
138.199249
  0
POINT
  8
2
  10
-14.024311
  20
137.199249
  0
POLYLINE
  8
85
  66
1
  70
0
  250
1
  0
VERTEX
  8
85
  10
-14.024311
  20
138.199249
  0
VERTEX
  8
85
  10
-14.024311
  20
137.199249
  0
SEQEND
  0
POINT
  8
2
  10
-14.024311
  20
138.199249
  0
POINT
  8
2
  10
-14.024311
  20
137.199249
  0
POLYLINE
  8
8
  66
1
  70
0
  250
1
  0
VERTEX
  8
8
  10
-12.965762
  20
88.717957
  0
VERTEX
  8
8
  10
-12.965762
  20
108.009933
  0
SEQEND
  0
POINT
  8
2
  10
-12.965762
  20
88.717957
  0
POINT
  8
2
  10
-12.965762
  20
108.009933
  0
POLYLINE
  8
85
  66
1
  70
0
  250
1
  0
VERTEX
  8
85
  10
-12.965762
  20
88.717957
  0
VERTEX
  8
85
  10
-12.965762
  20
108.009933
  0
SEQEND
  0
POINT
  8
2
  10
-12.965762
  20
88.717957
  0
POINT
  8
2
  10
-12.965762
  20
108.009933
  0
POLYLINE
  8
8
  66
1
  70
0
  250
1
  0
VERTEX
  8
8
  10
-29.476503
  20
108.009933
  0
VERTEX
  8
8
  10
-29.476503
  20
88.717957
  0
SEQEND
  0
POINT
  8
2
  10
-29.476503
  20
108.009933
  0
POINT
  8
2
  10
-29.476503
  20
88.717957
  0
POLYLINE
  8
85
  66
1
  70
0
  250
1
  0
VERTEX
  8
85
  10
-29.476503
  20
108.009933
  0
VERTEX
  8
85
  10
-29.476503
  20
88.717957
  0
SEQEND
  0
POINT
  8
2
  10
-29.476503
  20
108.009933
  0
POINT
  8
2
  10
-29.476503
  20
88.717957
  0
POLYLINE
  8
8
  66
1
  70
0
  250
1
  0
VERTEX
  8
8
  10
4.352596
  20
138.199249
  0
VERTEX
  8
8
  10
4.352596
  20
123.947403
  0
VERTEX
  8
8
  10
14.936584
  20
123.947403
  0
VERTEX
  8
8
  10
14.936584
  20
138.199249
  0
SEQEND
  0
POINT
  8
2
  10
4.352596
  20
138.199249
  0
POINT
  8
2
  10
4.352596
  20
123.947403
  0
POINT
  8
2
  10
14.936584
  20
123.947403
  0
POINT
  8
2
  10
14.936584
  20
138.199249
  0
POLYLINE
  8
85
  66
1
  70
0
  250
1
  0
VERTEX
  8
85
  10
4.352596
  20
138.199249
  0
VERTEX
  8
85
  10
4.352596
  20
123.947403
  0
VERTEX
  8
85
  10
14.936584
  20
123.947403
  0
VERTEX
  8
85
  10
14.936584
  20
138.199249
  0
SEQEND
  0
POINT
  8
2
  10
4.352596
  20
138.199249
  0
POINT
  8
2
  10
4.352596
  20
123.947403
  0
POINT
  8
2
  10
14.936584
  20
123.947403
  0
POINT
  8
2
  10
14.936584
  20
138.199249
  0
POLYLINE
  8
8
  66
1
  70
0
  250
1
  0
VERTEX
  8
8
  10
7.356464
  20
138.199249
  0
VERTEX
  8
8
  10
7.356464
  20
137.199249
  0
SEQEND
  0
POINT
  8
2
  10
7.356464
  20
138.199249
  0
POINT
  8
2
  10
7.356464
  20
137.199249
  0
POLYLINE
  8
85
  66
1
  70
0
  250
1
  0
VERTEX
  8
85
  10
7.356464
  20
138.199249
  0
VERTEX
  8
85
  10
7.356464
  20
137.199249
  0
SEQEND
  0
POINT
  8
2
  10
7.356464
  20
138.199249
  0
POINT
  8
2
  10
7.356464
  20
137.199249
  0
POLYLINE
  8
8
  66
1
  70
0
  250
1
  0
VERTEX
  8
8
  10
6.297915
  20
88.717957
  0
VERTEX
  8
8
  10
6.297915
  20
108.009933
  0
SEQEND
  0
POINT
  8
2
  10
6.297915
  20
88.717957
  0
POINT
  8
2
  10
6.297915
  20
108.009933
  0
POLYLINE
  8
85
  66
1
  70
0
  250
1
  0
VERTEX
  8
85
  10
6.297915
  20
88.717957
  0
VERTEX
  8
85
  10
6.297915
  20
108.009933
  0
SEQEND
  0
POINT
  8
2
  10
6.297915
  20
88.717957
  0
POINT
  8
2
  10
6.297915
  20
108.009933
  0
POLYLINE
  8
8
  66
1
  70
0
  250
1
  0
VERTEX
  8
8
  10
22.808657
  20
108.009933
  0
VERTEX
  8
8
  10
22.808657
  20
88.717957
  0
SEQEND
  0
POINT
  8
2
  10
22.808657
  20
108.009933
  0
POINT
  8
2
  10
22.808657
  20
88.717957
  0
POLYLINE
  8
85
  66
1
  70
0
  250
1
  0
VERTEX
  8
85
  10
22.808657
  20
108.009933
  0
VERTEX
  8
85
  10
22.808657
  20
88.717957
  0
SEQEND
  0
POINT
  8
2
  10
22.808657
  20
108.009933
  0
POINT
  8
2
  10
22.808657
  20
88.717957
  0
POLYLINE
  8
8
  66
1
  70
0
  250
0
  0
VERTEX
  8
8
  10
-12.965762
  20
88.717957
  0
VERTEX
  8
8
  10
-12.965762
  20
108.009933
  0
SEQEND
  0
POINT
  8
2
  10
-12.965762
  20
88.717957
  0
POINT
  8
2
  10
-12.965762
  20
108.009933
  0
POLYLINE
  8
85
  66
1
  70
0
  250
1
  0
VERTEX
  8
85
  10
-12.965762
  20
88.717957
  0
VERTEX
  8
85
  10
-12.965762
  20
108.009933
  0
SEQEND
  0
POINT
  8
2
  10
-12.965762
  20
88.717957
  0
POINT
  8
2
  10
-12.965762
  20
108.009933
  0
POLYLINE
  8
8
  66
1
  70
0
  250
0
  0
VERTEX
  8
8
  10
-12.965762
  20
108.009933
  0
VERTEX
  8
8
  10
-29.476503
  20
108.009933
  0
SEQEND
  0
POINT
  8
2
  10
-12.965762
  20
108.009933
  0
POINT
  8
2
  10
-29.476503
  20
108.009933
  0
POLYLINE
  8
85
  66
1
  70
0
  250
1
  0
VERTEX
  8
85
  10
-12.965762
  20
108.009933
  0
VERTEX
  8
85
  10
-29.476503
  20
108.009933
  0
SEQEND
  0
POINT
  8
2
  10
-12.965762
  20
108.009933
  0
POINT
  8
2
  10
-29.476503
  20
108.009933
  0
POLYLINE
  8
8
  66
1
  70
0
  250
0
  0
VERTEX
  8
8
  10
-29.476503
  20
108.009933
  0
VERTEX
  8
8
  10
-29.476503
  20
88.717957
  0
SEQEND
  0
POINT
  8
2
  10
-29.476503
  20
108.009933
  0
POINT
  8
2
  10
-29.476503
  20
88.717957
  0
POLYLINE
  8
85
  66
1
  70
0
  250
1
  0
VERTEX
  8
85
  10
-29.476503
  20
108.009933
  0
VERTEX
  8
85
  10
-29.476503
  20
88.717957
  0
SEQEND
  0
POINT
  8
2
  10
-29.476503
  20
108.009933
  0
POINT
  8
2
  10
-29.476503
  20
88.717957
  0
POLYLINE
  8
8
  66
1
  70
0
  250
0
  0
VERTEX
  8
8
  10
-11.020442
  20
123.947403
  0
VERTEX
  8
8
  10
-11.020442
  20
138.199249
  0
SEQEND
  0
TEXT
  8
1
  10
-11.020442
  20
123.947403
  40
0.250000
  50
0.000000
  1
# 23
  7
STANDARD
  0
TEXT
  8
1
  10
-11.020442
  20
138.199249
  40
0.250000
  50
0.000000
  1
# 17
  7
STANDARD
  0
POINT
  8
2
  10
-11.020442
  20
123.947403
  0
POINT
  8
2
  10
-11.020442
  20
138.199249
  0
POLYLINE
  8
85
  66
1
  70
0
  250
1
  0
VERTEX
  8
85
  10
-11.020442
  20
123.947403
  0
VERTEX
  8
85
  10
-11.020442
  20
138.199249
  0
SEQEND
  0
TEXT
  8
1
  10
-11.020442
  20
123.947403
  40
0.250000
  50
0.000000
  1
# 23
  7
STANDARD
  0
TEXT
  8
1
  10
-11.020442
  20
138.199249
  40
0.250000
  50
0.000000
  1
# 17
  7
STANDARD
  0
POINT
  8
2
  10
-11.020442
  20
123.947403
  0
POINT
  8
2
  10
-11.020442
  20
138.199249
  0
POLYLINE
  8
8
  66
1
  70
0
  250
0
  0
VERTEX
  8
8
  10
-11.020442
  20
138.199249
  0
VERTEX
  8
8
  10
-14.020443
  20
138.199249
  0
VERTEX
  8
8
  10
-21.604431
  20
138.199249
  0
SEQEND
  0
TEXT
  8
1
  10
-11.020442
  20
138.199249
  40
0.250000
  50
0.000000
  1
# 17
  7
STANDARD
  0
TEXT
  8
1
  10
-21.604431
  20
138.199249
  40
0.250000
  50
0.000000
  1
# 19
  7
STANDARD
  0
POINT
  8
2
  10
-11.020442
  20
138.199249
  0
POINT
  8
2
  10
-21.604431
  20
138.199249
  0
POINT
  8
3
  10
-14.020443
  20
138.199249
  0
POINT
  8
4
  10
-14.020443
  20
138.199249
  30
0.000000
  39
0.000000
  50
90.000000
  0
POLYLINE
  8
85
  66
1
  70
0
  250
1
  0
VERTEX
  8
85
  10
-11.020442
  20
138.199249
  0
VERTEX
  8
85
  10
-14.020443
  20
138.199249
  0
VERTEX
  8
85
  10
-21.604431
  20
138.199249
  0
SEQEND
  0
TEXT
  8
1
  10
-11.020442
  20
138.199249
  40
0.250000
  50
0.000000
  1
# 17
  7
STANDARD
  0
TEXT
  8
1
  10
-21.604431
  20
138.199249
  40
0.250000
  50
0.000000
  1
# 19
  7
STANDARD
  0
POINT
  8
2
  10
-11.020442
  20
138.199249
  0
POINT
  8
2
  10
-21.604431
  20
138.199249
  0
POINT
  8
3
  10
-14.020443
  20
138.199249
  0
POLYLINE
  8
8
  66
1
  70
0
  250
0
  0
VERTEX
  8
8
  10
-21.604431
  20
138.199249
  0
VERTEX
  8
8
  10
-21.604431
  20
123.947403
  0
SEQEND
  0
TEXT
  8
1
  10
-21.604431
  20
138.199249
  40
0.250000
  50
0.000000
  1
# 19
  7
STANDARD
  0
TEXT
  8
1
  10
-21.604431
  20
123.947403
  40
0.250000
  50
0.000000
  1
# 21
  7
STANDARD
  0
POINT
  8
2
  10
-21.604431
  20
138.199249
  0
POINT
  8
2
  10
-21.604431
  20
123.947403
  0
POLYLINE
  8
85
  66
1
  70
0
  250
1
  0
VERTEX
  8
85
  10
-21.604431
  20
138.199249
  0
VERTEX
  8
85
  10
-21.604431
  20
123.947403
  0
SEQEND
  0
TEXT
  8
1
  10
-21.604431
  20
138.199249
  40
0.250000
  50
0.000000
  1
# 19
  7
STANDARD
  0
TEXT
  8
1
  10
-21.604431
  20
123.947403
  40
0.250000
  50
0.000000
  1
# 21
  7
STANDARD
  0
POINT
  8
2
  10
-21.604431
  20
138.199249
  0
POINT
  8
2
  10
-21.604431
  20
123.947403
  0
POLYLINE
  8
8
  66
1
  70
0
  250
0
  0
VERTEX
  8
8
  10
-21.604431
  20
123.947403
  0
VERTEX
  8
8
  10
-11.020442
  20
123.947403
  0
SEQEND
  0
TEXT
  8
1
  10
-21.604431
  20
123.947403
  40
0.250000
  50
0.000000
  1
# 21
  7
STANDARD
  0
TEXT
  8
1
  10
-11.020442
  20
123.947403
  40
0.250000
  50
0.000000
  1
# 23
  7
STANDARD
  0
POINT
  8
2
  10
-21.604431
  20
123.947403
  0
POINT
  8
2
  10
-11.020442
  20
123.947403
  0
POLYLINE
  8
85
  66
1
  70
0
  250
1
  0
VERTEX
  8
85
  10
-21.604431
  20
123.947403
  0
VERTEX
  8
85
  10
-11.020442
  20
123.947403
  0
SEQEND
  0
TEXT
  8
1
  10
-21.604431
  20
123.947403
  40
0.250000
  50
0.000000
  1
# 21
  7
STANDARD
  0
TEXT
  8
1
  10
-11.020442
  20
123.947403
  40
0.250000
  50
0.000000
  1
# 23
  7
STANDARD
  0
POINT
  8
2
  10
-21.604431
  20
123.947403
  0
POINT
  8
2
  10
-11.020442
  20
123.947403
  0
POLYLINE
  8
8
  66
1
  70
0
  250
0
  0
VERTEX
  8
8
  10
-31.333927
  20
90.717957
  0
VERTEX
  8
8
  10
-3.333925
  20
90.717957
  0
SEQEND
  0
TEXT
  8
1
  10
-31.333927
  20
90.717957
  40
0.250000
  50
0.000000
  1
# 24
  7
STANDARD
  0
TEXT
  8
1
  10
-3.333925
  20
90.717957
  40
0.250000
  50
0.000000
  1
# 25
  7
STANDARD
  0
POINT
  8
2
  10
-31.333927
  20
90.717957
  0
POINT
  8
2
  10
-3.333925
  20
90.717957
  0
POLYLINE
  8
85
  66
1
  70
0
  250
1
  0
VERTEX
  8
85
  10
-31.333927
  20
90.717957
  0
VERTEX
  8
85
  10
-3.333925
  20
90.717957
  0
SEQEND
  0
TEXT
  8
1
  10
-31.333927
  20
90.717957
  40
0.250000
  50
0.000000
  1
# 24
  7
STANDARD
  0
TEXT
  8
1
  10
-3.333925
  20
90.717957
  40
0.250000
  50
0.000000
  1
# 25
  7
STANDARD
  0
POINT
  8
2
  10
-31.333927
  20
90.717957
  0
POINT
  8
2
  10
-3.333925
  20
90.717957
  0
POLYLINE
  8
8
  66
1
  70
0
  250
0
  0
VERTEX
  8
8
  10
-32.343689
  20
132.946945
  0
VERTEX
  8
8
  10
-3.333923
  20
132.946960
  0
SEQEND
  0
TEXT
  8
1
  10
-32.343689
  20
132.946945
  40
0.250000
  50
0.000000
  1
# 26
  7
STANDARD
  0
TEXT
  8
1
  10
-3.333923
  20
132.946960
  40
0.250000
  50
0.000000
  1
# 27
  7
STANDARD
  0
POINT
  8
2
  10
-32.343689
  20
132.946945
  0
POINT
  8
2
  10
-3.333923
  20
132.946960
  0
POLYLINE
  8
85
  66
1
  70
0
  250
1
  0
VERTEX
  8
85
  10
-32.343689
  20
132.946945
  0
VERTEX
  8
85
  10
-3.333923
  20
132.946960
  0
SEQEND
  0
TEXT
  8
1
  10
-32.343689
  20
132.946945
  40
0.250000
  50
0.000000
  1
# 26
  7
STANDARD
  0
TEXT
  8
1
  10
-3.333923
  20
132.946960
  40
0.250000
  50
0.000000
  1
# 27
  7
STANDARD
  0
POINT
  8
2
  10
-32.343689
  20
132.946945
  0
POINT
  8
2
  10
-3.333923
  20
132.946960
  0
POLYLINE
  8
8
  66
1
  70
0
  250
0
  0
VERTEX
  8
8
  10
-21.604431
  20
137.199249
  0
VERTEX
  8
8
  10
-11.020443
  20
137.199265
  0
SEQEND
  0
TEXT
  8
1
  10
-21.604431
  20
137.199249
  40
0.250000
  50
0.000000
  1
# 28
  7
STANDARD
  0
TEXT
  8
1
  10
-11.020443
  20
137.199265
  40
0.250000
  50
0.000000
  1
# 29
  7
STANDARD
  0
POINT
  8
2
  10
-21.604431
  20
137.199249
  0
POINT
  8
2
  10
-11.020443
  20
137.199265
  0
POLYLINE
  8
85
  66
1
  70
0
  250
1
  0
VERTEX
  8
85
  10
-21.604431
  20
137.199249
  0
VERTEX
  8
85
  10
-11.020443
  20
137.199265
  0
SEQEND
  0
TEXT
  8
1
  10
-21.604431
  20
137.199249
  40
0.250000
  50
0.000000
  1
# 28
  7
STANDARD
  0
TEXT
  8
1
  10
-11.020443
  20
137.199265
  40
0.250000
  50
0.000000
  1
# 29
  7
STANDARD
  0
POINT
  8
2
  10
-21.604431
  20
137.199249
  0
POINT
  8
2
  10
-11.020443
  20
137.199265
  0
POLYLINE
  8
8
  66
1
  70
0
  250
0
  0
VERTEX
  8
8
  10
-11.170353
  20
138.199265
  0
VERTEX
  8
8
  10
-11.170353
  20
123.947403
  0
SEQEND
  0
TEXT
  8
1
  10
-11.170353
  20
138.199265
  40
0.250000
  50
0.000000
  1
# 30
  7
STANDARD
  0
TEXT
  8
1
  10
-11.170353
  20
123.947403
  40
0.250000
  50
0.000000
  1
# 31
  7
STANDARD
  0
POINT
  8
2
  10
-11.170353
  20
138.199265
  0
POINT
  8
2
  10
-11.170353
  20
123.947403
  0
POLYLINE
  8
85
  66
1
  70
0
  250
1
  0
VERTEX
  8
85
  10
-11.170353
  20
138.199265
  0
VERTEX
  8
85
  10
-11.170353
  20
123.947403
  0
SEQEND
  0
TEXT
  8
1
  10
-11.170353
  20
138.199265
  40
0.250000
  50
0.000000
  1
# 30
  7
STANDARD
  0
TEXT
  8
1
  10
-11.170353
  20
123.947403
  40
0.250000
  50
0.000000
  1
# 31
  7
STANDARD
  0
POINT
  8
2
  10
-11.170353
  20
138.199265
  0
POINT
  8
2
  10
-11.170353
  20
123.947403
  0
POLYLINE
  8
8
  66
1
  70
0
  250
0
  0
VERTEX
  8
8
  10
-21.454535
  20
123.947403
  0
VERTEX
  8
8
  10
-21.454533
  20
138.199249
  0
SEQEND
  0
TEXT
  8
1
  10
-21.454535
  20
123.947403
  40
0.250000
  50
0.000000
  1
# 32
  7
STANDARD
  0
TEXT
  8
1
  10
-21.454533
  20
138.199249
  40
0.250000
  50
0.000000
  1
# 33
  7
STANDARD
  0
POINT
  8
2
  10
-21.454535
  20
123.947403
  0
POINT
  8
2
  10
-21.454533
  20
138.199249
  0
POLYLINE
  8
85
  66
1
  70
0
  250
1
  0
VERTEX
  8
85
  10
-21.454535
  20
123.947403
  0
VERTEX
  8
85
  10
-21.454533
  20
138.199249
  0
SEQEND
  0
TEXT
  8
1
  10
-21.454535
  20
123.947403
  40
0.250000
  50
0.000000
  1
# 32
  7
STANDARD
  0
TEXT
  8
1
  10
-21.454533
  20
138.199249
  40
0.250000
  50
0.000000
  1
# 33
  7
STANDARD
  0
POINT
  8
2
  10
-21.454535
  20
123.947403
  0
POINT
  8
2
  10
-21.454533
  20
138.199249
  0
POLYLINE
  8
8
  66
1
  70
0
  250
0
  0
VERTEX
  8
8
  10
-11.020442
  20
124.097427
  0
VERTEX
  8
8
  10
-21.604431
  20
124.097427
  0
SEQEND
  0
TEXT
  8
1
  10
-11.020442
  20
124.097427
  40
0.250000
  50
0.000000
  1
# 34
  7
STANDARD
  0
TEXT
  8
1
  10
-21.604431
  20
124.097427
  40
0.250000
  50
0.000000
  1
# 35
  7
STANDARD
  0
POINT
  8
2
  10
-11.020442
  20
124.097427
  0
POINT
  8
2
  10
-21.604431
  20
124.097427
  0
POLYLINE
  8
85
  66
1
  70
0
  250
1
  0
VERTEX
  8
85
  10
-11.020442
  20
124.097427
  0
VERTEX
  8
85
  10
-21.604431
  20
124.097427
  0
SEQEND
  0
TEXT
  8
1
  10
-11.020442
  20
124.097427
  40
0.250000
  50
0.000000
  1
# 34
  7
STANDARD
  0
TEXT
  8
1
  10
-21.604431
  20
124.097427
  40
0.250000
  50
0.000000
  1
# 35
  7
STANDARD
  0
POINT
  8
2
  10
-11.020442
  20
124.097427
  0
POINT
  8
2
  10
-21.604431
  20
124.097427
  0
POLYLINE
  8
8
  66
1
  70
0
  250
0
  0
VERTEX
  8
8
  10
-12.965762
  20
107.009933
  0
VERTEX
  8
8
  10
-29.476503
  20
107.009933
  0
SEQEND
  0
TEXT
  8
1
  10
-12.965762
  20
107.009933
  40
0.250000
  50
0.000000
  1
# 36
  7
STANDARD
  0
TEXT
  8
1
  10
-29.476503
  20
107.009933
  40
0.250000
  50
0.000000
  1
# 37
  7
STANDARD
  0
POINT
  8
2
  10
-12.965762
  20
107.009933
  0
POINT
  8
2
  10
-29.476503
  20
107.009933
  0
POLYLINE
  8
85
  66
1
  70
0
  250
1
  0
VERTEX
  8
85
  10
-12.965762
  20
107.009933
  0
VERTEX
  8
85
  10
-29.476503
  20
107.009933
  0
SEQEND
  0
TEXT
  8
1
  10
-12.965762
  20
107.009933
  40
0.250000
  50
0.000000
  1
# 36
  7
STANDARD
  0
TEXT
  8
1
  10
-29.476503
  20
107.009933
  40
0.250000
  50
0.000000
  1
# 37
  7
STANDARD
  0
POINT
  8
2
  10
-12.965762
  20
107.009933
  0
POINT
  8
2
  10
-29.476503
  20
107.009933
  0
POLYLINE
  8
8
  66
1
  70
0
  250
0
  0
VERTEX
  8
8
  10
-13.115663
  20
108.009933
  0
VERTEX
  8
8
  10
-13.115667
  20
88.717957
  0
SEQEND
  0
TEXT
  8
1
  10
-13.115663
  20
108.009933
  40
0.250000
  50
0.000000
  1
# 38
  7
STANDARD
  0
TEXT
  8
1
  10
-13.115667
  20
88.717957
  40
0.250000
  50
0.000000
  1
# 39
  7
STANDARD
  0
POINT
  8
2
  10
-13.115663
  20
108.009933
  0
POINT
  8
2
  10
-13.115667
  20
88.717957
  0
POLYLINE
  8
85
  66
1
  70
0
  250
1
  0
VERTEX
  8
85
  10
-13.115663
  20
108.009933
  0
VERTEX
  8
85
  10
-13.115667
  20
88.717957
  0
SEQEND
  0
TEXT
  8
1
  10
-13.115663
  20
108.009933
  40
0.250000
  50
0.000000
  1
# 38
  7
STANDARD
  0
TEXT
  8
1
  10
-13.115667
  20
88.717957
  40
0.250000
  50
0.000000
  1
# 39
  7
STANDARD
  0
POINT
  8
2
  10
-13.115663
  20
108.009933
  0
POINT
  8
2
  10
-13.115667
  20
88.717957
  0
POLYLINE
  8
8
  66
1
  70
0
  250
0
  0
VERTEX
  8
8
  10
-29.326601
  20
108.009933
  0
VERTEX
  8
8
  10
-29.326597
  20
88.717957
  0
SEQEND
  0
TEXT
  8
1
  10
-29.326601
  20
108.009933
  40
0.250000
  50
0.000000
  1
# 40
  7
STANDARD
  0
TEXT
  8
1
  10
-29.326597
  20
88.717957
  40
0.250000
  50
0.000000
  1
# 41
  7
STANDARD
  0
POINT
  8
2
  10
-29.326601
  20
108.009933
  0
POINT
  8
2
  10
-29.326597
  20
88.717957
  0
POLYLINE
  8
85
  66
1
  70
0
  250
1
  0
VERTEX
  8
85
  10
-29.326601
  20
108.009933
  0
VERTEX
  8
85
  10
-29.326597
  20
88.717957
  0
SEQEND
  0
TEXT
  8
1
  10
-29.326601
  20
108.009933
  40
0.250000
  50
0.000000
  1
# 40
  7
STANDARD
  0
TEXT
  8
1
  10
-29.326597
  20
88.717957
  40
0.250000
  50
0.000000
  1
# 41
  7
STANDARD
  0
POINT
  8
2
  10
-29.326601
  20
108.009933
  0
POINT
  8
2
  10
-29.326597
  20
88.717957
  0
POLYLINE
  8
8
  66
1
  70
0
  250
0
  0
VERTEX
  8
8
  10
-3.333923
  20
139.301285
  0
VERTEX
  8
8
  10
-3.333923
  20
88.717957
  0
SEQEND
  0
TEXT
  8
1
  10
-3.333923
  20
139.301285
  40
0.250000
  50
0.000000
  1
# 42
  7
STANDARD
  0
TEXT
  8
1
  10
-3.333923
  20
88.717957
  40
0.250000
  50
0.000000
  1
# 43
  7
STANDARD
  0
POINT
  8
2
  10
-3.333923
  20
139.301285
  0
POINT
  8
2
  10
-3.333923
  20
88.717957
  0
POLYLINE
  8
85
  66
1
  70
0
  250
1
  0
VERTEX
  8
85
  10
-3.333923
  20
139.301285
  0
VERTEX
  8
85
  10
-3.333923
  20
88.717957
  0
SEQEND
  0
TEXT
  8
1
  10
-3.333923
  20
139.301285
  40
0.250000
  50
0.000000
  1
# 42
  7
STANDARD
  0
TEXT
  8
1
  10
-3.333923
  20
88.717957
  40
0.250000
  50
0.000000
  1
# 43
  7
STANDARD
  0
POINT
  8
2
  10
-3.333923
  20
139.301285
  0
POINT
  8
2
  10
-3.333923
  20
88.717957
  0
POLYLINE
  8
8
  66
1
  70
0
  250
0
  0
VERTEX
  8
8
  10
-3.333923
  20
120.046829
  0
VERTEX
  8
8
  10
-4.333923
  20
119.778885
  0
VERTEX
  8
8
  10
-5.065854
  20
119.046829
  0
VERTEX
  8
8
  10
-5.333923
  20
118.046829
  0
VERTEX
  8
8
  10
-5.065854
  20
117.046829
  0
VERTEX
  8
8
  10
-4.333923
  20
116.314789
  0
VERTEX
  8
8
  10
-3.333923
  20
116.046829
  0
SEQEND
  0
TEXT
  8
1
  10
-3.333923
  20
120.046829
  40
0.250000
  50
0.000000
  1
# 44
  7
STANDARD
  0
TEXT
  8
1
  10
-3.333923
  20
116.046829
  40
0.250000
  50
0.000000
  1
# 45
  7
STANDARD
  0
POINT
  8
2
  10
-3.333923
  20
120.046829
  0
POINT
  8
2
  10
-3.333923
  20
116.046829
  0
POINT
  8
3
  10
-4.333923
  20
119.778885
  0
POINT
  8
3
  10
-5.065854
  20
119.046829
  0
POINT
  8
3
  10
-5.333923
  20
118.046829
  0
POINT
  8
3
  10
-5.065854
  20
117.046829
  0
POINT
  8
3
  10
-4.333923
  20
116.314789
  0
POLYLINE
  8
85
  66
1
  70
0
  250
1
  0
VERTEX
  8
85
  10
-3.333923
  20
120.046829
  0
VERTEX
  8
85
  10
-4.333923
  20
119.778885
  0
VERTEX
  8
85
  10
-5.065854
  20
119.046829
  0
VERTEX
  8
85
  10
-5.333923
  20
118.046829
  0
VERTEX
  8
85
  10
-5.065854
  20
117.046829
  0
VERTEX
  8
85
  10
-4.333923
  20
116.314789
  0
VERTEX
  8
85
  10
-3.333923
  20
116.046829
  0
SEQEND
  0
TEXT
  8
1
  10
-3.333923
  20
120.046829
  40
0.250000
  50
0.000000
  1
# 44
  7
STANDARD
  0
TEXT
  8
1
  10
-3.333923
  20
116.046829
  40
0.250000
  50
0.000000
  1
# 45
  7
STANDARD
  0
POINT
  8
2
  10
-3.333923
  20
120.046829
  0
POINT
  8
2
  10
-3.333923
  20
116.046829
  0
POINT
  8
3
  10
-4.333923
  20
119.778885
  0
POINT
  8
3
  10
-5.065854
  20
119.046829
  0
POINT
  8
3
  10
-5.333923
  20
118.046829
  0
POINT
  8
3
  10
-5.065854
  20
117.046829
  0
POINT
  8
3
  10
-4.333923
  20
116.314789
  0
POLYLINE
  8
8
  66
1
  70
0
  250
0
  0
VERTEX
  8
8
  10
-3.333923
  20
119.046829
  0
VERTEX
  8
8
  10
-3.833923
  20
118.912857
  0
VERTEX
  8
8
  10
-4.200132
  20
118.546829
  0
VERTEX
  8
8
  10
-4.333923
  20
118.046829
  0
VERTEX
  8
8
  10
-4.200132
  20
117.546829
  0
VERTEX
  8
8
  10
-3.833923
  20
117.180817
  0
VERTEX
  8
8
  10
-3.333923
  20
117.046829
  0
SEQEND
  0
TEXT
  8
1
  10
-3.333923
  20
119.046829
  40
0.250000
  50
0.000000
  1
# 46
  7
STANDARD
  0
TEXT
  8
1
  10
-3.333923
  20
117.046829
  40
0.250000
  50
0.000000
  1
# 47
  7
STANDARD
  0
POINT
  8
2
  10
-3.333923
  20
119.046829
  0
POINT
  8
2
  10
-3.333923
  20
117.046829
  0
POINT
  8
3
  10
-3.833923
  20
118.912857
  0
POINT
  8
3
  10
-4.200132
  20
118.546829
  0
POINT
  8
3
  10
-4.333923
  20
118.046829
  0
POINT
  8
3
  10
-4.200132
  20
117.546829
  0
POINT
  8
3
  10
-3.833923
  20
117.180817
  0
POLYLINE
  8
85
  66
1
  70
0
  250
1
  0
VERTEX
  8
85
  10
-3.333923
  20
119.046829
  0
VERTEX
  8
85
  10
-3.833923
  20
118.912857
  0
VERTEX
  8
85
  10
-4.200132
  20
118.546829
  0
VERTEX
  8
85
  10
-4.333923
  20
118.046829
  0
VERTEX
  8
85
  10
-4.200132
  20
117.546829
  0
VERTEX
  8
85
  10
-3.833923
  20
117.180817
  0
VERTEX
  8
85
  10
-3.333923
  20
117.046829
  0
SEQEND
  0
TEXT
  8
1
  10
-3.333923
  20
119.046829
  40
0.250000
  50
0.000000
  1
# 46
  7
STANDARD
  0
TEXT
  8
1
  10
-3.333923
  20
117.046829
  40
0.250000
  50
0.000000
  1
# 47
  7
STANDARD
  0
POINT
  8
2
  10
-3.333923
  20
119.046829
  0
POINT
  8
2
  10
-3.333923
  20
117.046829
  0
POINT
  8
3
  10
-3.833923
  20
118.912857
  0
POINT
  8
3
  10
-4.200132
  20
118.546829
  0
POINT
  8
3
  10
-4.333923
  20
118.046829
  0
POINT
  8
3
  10
-4.200132
  20
117.546829
  0
POINT
  8
3
  10
-3.833923
  20
117.180817
  0
POLYLINE
  8
8
  66
1
  70
0
  250
0
  0
VERTEX
  8
8
  10
-3.333923
  20
139.301285
  0
VERTEX
  8
8
  10
-3.333923
  20
88.717957
  0
SEQEND
  0
TEXT
  8
1
  10
-3.333923
  20
139.301285
  40
0.250000
  50
0.000000
  1
# 42
  7
STANDARD
  0
TEXT
  8
1
  10
-3.333923
  20
88.717957
  40
0.250000
  50
0.000000
  1
# 43
  7
STANDARD
  0
POINT
  8
2
  10
-3.333923
  20
139.301285
  0
POINT
  8
2
  10
-3.333923
  20
88.717957
  0
POLYLINE
  8
85
  66
1
  70
0
  250
1
  0
VERTEX
  8
85
  10
-3.333923
  20
139.301285
  0
VERTEX
  8
85
  10
-3.333923
  20
88.717957
  0
SEQEND
  0
TEXT
  8
1
  10
-3.333923
  20
139.301285
  40
0.250000
  50
0.000000
  1
# 42
  7
STANDARD
  0
TEXT
  8
1
  10
-3.333923
  20
88.717957
  40
0.250000
  50
0.000000
  1
# 43
  7
STANDARD
  0
POINT
  8
2
  10
-3.333923
  20
139.301285
  0
POINT
  8
2
  10
-3.333923
  20
88.717957
  0
POLYLINE
  8
8
  66
1
  70
0
  250
0
  0
VERTEX
  8
8
  10
6.297915
  20
88.717957
  0
VERTEX
  8
8
  10
6.297915
  20
108.009933
  0
SEQEND
  0
POINT
  8
2
  10
6.297915
  20
88.717957
  0
POINT
  8
2
  10
6.297915
  20
108.009933
  0
POLYLINE
  8
85
  66
1
  70
0
  250
1
  0
VERTEX
  8
85
  10
6.297915
  20
88.717957
  0
VERTEX
  8
85
  10
6.297915
  20
108.009933
  0
SEQEND
  0
POINT
  8
2
  10
6.297915
  20
88.717957
  0
POINT
  8
2
  10
6.297915
  20
108.009933
  0
POLYLINE
  8
8
  66
1
  70
0
  250
0
  0
VERTEX
  8
8
  10
6.297915
  20
108.009933
  0
VERTEX
  8
8
  10
22.808657
  20
108.009933
  0
SEQEND
  0
POINT
  8
2
  10
6.297915
  20
108.009933
  0
POINT
  8
2
  10
22.808657
  20
108.009933
  0
POLYLINE
  8
85
  66
1
  70
0
  250
1
  0
VERTEX
  8
85
  10
6.297915
  20
108.009933
  0
VERTEX
  8
85
  10
22.808657
  20
108.009933
  0
SEQEND
  0
POINT
  8
2
  10
6.297915
  20
108.009933
  0
POINT
  8
2
  10
22.808657
  20
108.009933
  0
POLYLINE
  8
8
  66
1
  70
0
  250
0
  0
VERTEX
  8
8
  10
22.808657
  20
108.009933
  0
VERTEX
  8
8
  10
22.808657
  20
88.717957
  0
SEQEND
  0
POINT
  8
2
  10
22.808657
  20
108.009933
  0
POINT
  8
2
  10
22.808657
  20
88.717957
  0
POLYLINE
  8
85
  66
1
  70
0
  250
1
  0
VERTEX
  8
85
  10
22.808657
  20
108.009933
  0
VERTEX
  8
85
  10
22.808657
  20
88.717957
  0
SEQEND
  0
POINT
  8
2
  10
22.808657
  20
108.009933
  0
POINT
  8
2
  10
22.808657
  20
88.717957
  0
POLYLINE
  8
8
  66
1
  70
0
  250
0
  0
VERTEX
  8
8
  10
4.352596
  20
123.947403
  0
VERTEX
  8
8
  10
4.352596
  20
138.199249
  0
SEQEND
  0
TEXT
  8
1
  10
4.352596
  20
123.947403
  40
0.250000
  50
0.000000
  1
# 23
  7
STANDARD
  0
TEXT
  8
1
  10
4.352596
  20
138.199249
  40
0.250000
  50
0.000000
  1
# 17
  7
STANDARD
  0
POINT
  8
2
  10
4.352596
  20
123.947403
  0
POINT
  8
2
  10
4.352596
  20
138.199249
  0
POLYLINE
  8
85
  66
1
  70
0
  250
1
  0
VERTEX
  8
85
  10
4.352596
  20
123.947403
  0
VERTEX
  8
85
  10
4.352596
  20
138.199249
  0
SEQEND
  0
TEXT
  8
1
  10
4.352596
  20
123.947403
  40
0.250000
  50
0.000000
  1
# 23
  7
STANDARD
  0
TEXT
  8
1
  10
4.352596
  20
138.199249
  40
0.250000
  50
0.000000
  1
# 17
  7
STANDARD
  0
POINT
  8
2
  10
4.352596
  20
123.947403
  0
POINT
  8
2
  10
4.352596
  20
138.199249
  0
POLYLINE
  8
8
  66
1
  70
0
  250
0
  0
VERTEX
  8
8
  10
4.352596
  20
138.199249
  0
VERTEX
  8
8
  10
7.352596
  20
138.199249
  0
VERTEX
  8
8
  10
14.936584
  20
138.199249
  0
SEQEND
  0
TEXT
  8
1
  10
4.352596
  20
138.199249
  40
0.250000
  50
0.000000
  1
# 17
  7
STANDARD
  0
TEXT
  8
1
  10
14.936584
  20
138.199249
  40
0.250000
  50
0.000000
  1
# 19
  7
STANDARD
  0
POINT
  8
2
  10
4.352596
  20
138.199249
  0
POINT
  8
2
  10
14.936584
  20
138.199249
  0
POINT
  8
3
  10
7.352596
  20
138.199249
  0
POINT
  8
4
  10
7.352596
  20
138.199249
  30
0.000000
  39
0.000000
  50
90.000000
  0
POLYLINE
  8
85
  66
1
  70
0
  250
1
  0
VERTEX
  8
85
  10
4.352596
  20
138.199249
  0
VERTEX
  8
85
  10
7.352596
  20
138.199249
  0
VERTEX
  8
85
  10
14.936584
  20
138.199249
  0
SEQEND
  0
TEXT
  8
1
  10
4.352596
  20
138.199249
  40
0.250000
  50
0.000000
  1
# 17
  7
STANDARD
  0
TEXT
  8
1
  10
14.936584
  20
138.199249
  40
0.250000
  50
0.000000
  1
# 19
  7
STANDARD
  0
POINT
  8
2
  10
4.352596
  20
138.199249
  0
POINT
  8
2
  10
14.936584
  20
138.199249
  0
POINT
  8
3
  10
7.352596
  20
138.199249
  0
POLYLINE
  8
8
  66
1
  70
0
  250
0
  0
VERTEX
  8
8
  10
14.936584
  20
138.199249
  0
VERTEX
  8
8
  10
14.936584
  20
123.947403
  0
SEQEND
  0
TEXT
  8
1
  10
14.936584
  20
138.199249
  40
0.250000
  50
0.000000
  1
# 19
  7
STANDARD
  0
TEXT
  8
1
  10
14.936584
  20
123.947403
  40
0.250000
  50
0.000000
  1
# 21
  7
STANDARD
  0
POINT
  8
2
  10
14.936584
  20
138.199249
  0
POINT
  8
2
  10
14.936584
  20
123.947403
  0
POLYLINE
  8
85
  66
1
  70
0
  250
1
  0
VERTEX
  8
85
  10
14.936584
  20
138.199249
  0
VERTEX
  8
85
  10
14.936584
  20
123.947403
  0
SEQEND
  0
TEXT
  8
1
  10
14.936584
  20
138.199249
  40
0.250000
  50
0.000000
  1
# 19
  7
STANDARD
  0
TEXT
  8
1
  10
14.936584
  20
123.947403
  40
0.250000
  50
0.000000
  1
# 21
  7
STANDARD
  0
POINT
  8
2
  10
14.936584
  20
138.199249
  0
POINT
  8
2
  10
14.936584
  20
123.947403
  0
POLYLINE
  8
8
  66
1
  70
0
  250
0
  0
VERTEX
  8
8
  10
14.936584
  20
123.947403
  0
VERTEX
  8
8
  10
4.352596
  20
123.947403
  0
SEQEND
  0
TEXT
  8
1
  10
14.936584
  20
123.947403
  40
0.250000
  50
0.000000
  1
# 21
  7
STANDARD
  0
TEXT
  8
1
  10
4.352596
  20
123.947403
  40
0.250000
  50
0.000000
  1
# 23
  7
STANDARD
  0
POINT
  8
2
  10
14.936584
  20
123.947403
  0
POINT
  8
2
  10
4.352596
  20
123.947403
  0
POLYLINE
  8
85
  66
1
  70
0
  250
1
  0
VERTEX
  8
85
  10
14.936584
  20
123.947403
  0
VERTEX
  8
85
  10
4.352596
  20
123.947403
  0
SEQEND
  0
TEXT
  8
1
  10
14.936584
  20
123.947403
  40
0.250000
  50
0.000000
  1
# 21
  7
STANDARD
  0
TEXT
  8
1
  10
4.352596
  20
123.947403
  40
0.250000
  50
0.000000
  1
# 23
  7
STANDARD
  0
POINT
  8
2
  10
14.936584
  20
123.947403
  0
POINT
  8
2
  10
4.352596
  20
123.947403
  0
POLYLINE
  8
8
  66
1
  70
0
  250
0
  0
VERTEX
  8
8
  10
24.666080
  20
90.717957
  0
VERTEX
  8
8
  10
-3.333922
  20
90.717957
  0
SEQEND
  0
TEXT
  8
1
  10
24.666080
  20
90.717957
  40
0.250000
  50
0.000000
  1
# 24
  7
STANDARD
  0
TEXT
  8
1
  10
-3.333922
  20
90.717957
  40
0.250000
  50
0.000000
  1
# 25
  7
STANDARD
  0
POINT
  8
2
  10
24.666080
  20
90.717957
  0
POINT
  8
2
  10
-3.333922
  20
90.717957
  0
POLYLINE
  8
85
  66
1
  70
0
  250
1
  0
VERTEX
  8
85
  10
24.666080
  20
90.717957
  0
VERTEX
  8
85
  10
-3.333922
  20
90.717957
  0
SEQEND
  0
TEXT
  8
1
  10
24.666080
  20
90.717957
  40
0.250000
  50
0.000000
  1
# 24
  7
STANDARD
  0
TEXT
  8
1
  10
-3.333922
  20
90.717957
  40
0.250000
  50
0.000000
  1
# 25
  7
STANDARD
  0
POINT
  8
2
  10
24.666080
  20
90.717957
  0
POINT
  8
2
  10
-3.333922
  20
90.717957
  0
POLYLINE
  8
8
  66
1
  70
0
  250
0
  0
VERTEX
  8
8
  10
25.675844
  20
132.946945
  0
VERTEX
  8
8
  10
-3.333924
  20
132.946960
  0
SEQEND
  0
TEXT
  8
1
  10
25.675844
  20
132.946945
  40
0.250000
  50
0.000000
  1
# 26
  7
STANDARD
  0
TEXT
  8
1
  10
-3.333924
  20
132.946960
  40
0.250000
  50
0.000000
  1
# 27
  7
STANDARD
  0
POINT
  8
2
  10
25.675844
  20
132.946945
  0
POINT
  8
2
  10
-3.333924
  20
132.946960
  0
POLYLINE
  8
85
  66
1
  70
0
  250
1
  0
VERTEX
  8
85
  10
25.675844
  20
132.946945
  0
VERTEX
  8
85
  10
-3.333924
  20
132.946960
  0
SEQEND
  0
TEXT
  8
1
  10
25.675844
  20
132.946945
  40
0.250000
  50
0.000000
  1
# 26
  7
STANDARD
  0
TEXT
  8
1
  10
-3.333924
  20
132.946960
  40
0.250000
  50
0.000000
  1
# 27
  7
STANDARD
  0
POINT
  8
2
  10
25.675844
  20
132.946945
  0
POINT
  8
2
  10
-3.333924
  20
132.946960
  0
POLYLINE
  8
8
  66
1
  70
0
  250
0
  0
VERTEX
  8
8
  10
14.936584
  20
137.199249
  0
VERTEX
  8
8
  10
4.352597
  20
137.199265
  0
SEQEND
  0
TEXT
  8
1
  10
14.936584
  20
137.199249
  40
0.250000
  50
0.000000
  1
# 28
  7
STANDARD
  0
TEXT
  8
1
  10
4.352597
  20
137.199265
  40
0.250000
  50
0.000000
  1
# 29
  7
STANDARD
  0
POINT
  8
2
  10
14.936584
  20
137.199249
  0
POINT
  8
2
  10
4.352597
  20
137.199265
  0
POLYLINE
  8
85
  66
1
  70
0
  250
1
  0
VERTEX
  8
85
  10
14.936584
  20
137.199249
  0
VERTEX
  8
85
  10
4.352597
  20
137.199265
  0
SEQEND
  0
TEXT
  8
1
  10
14.936584
  20
137.199249
  40
0.250000
  50
0.000000
  1
# 28
  7
STANDARD
  0
TEXT
  8
1
  10
4.352597
  20
137.199265
  40
0.250000
  50
0.000000
  1
# 29
  7
STANDARD
  0
POINT
  8
2
  10
14.936584
  20
137.199249
  0
POINT
  8
2
  10
4.352597
  20
137.199265
  0
POLYLINE
  8
8
  66
1
  70
0
  250
0
  0
VERTEX
  8
8
  10
4.502507
  20
138.199265
  0
VERTEX
  8
8
  10
4.502507
  20
123.947403
  0
SEQEND
  0
TEXT
  8
1
  10
4.502507
  20
138.199265
  40
0.250000
  50
0.000000
  1
# 30
  7
STANDARD
  0
TEXT
  8
1
  10
4.502507
  20
123.947403
  40
0.250000
  50
0.000000
  1
# 31
  7
STANDARD
  0
POINT
  8
2
  10
4.502507
  20
138.199265
  0
POINT
  8
2
  10
4.502507
  20
123.947403
  0
POLYLINE
  8
85
  66
1
  70
0
  250
1
  0
VERTEX
  8
85
  10
4.502507
  20
138.199265
  0
VERTEX
  8
85
  10
4.502507
  20
123.947403
  0
SEQEND
  0
TEXT
  8
1
  10
4.502507
  20
138.199265
  40
0.250000
  50
0.000000
  1
# 30
  7
STANDARD
  0
TEXT
  8
1
  10
4.502507
  20
123.947403
  40
0.250000
  50
0.000000
  1
# 31
  7
STANDARD
  0
POINT
  8
2
  10
4.502507
  20
138.199265
  0
POINT
  8
2
  10
4.502507
  20
123.947403
  0
POLYLINE
  8
8
  66
1
  70
0
  250
0
  0
VERTEX
  8
8
  10
14.786688
  20
123.947403
  0
VERTEX
  8
8
  10
14.786686
  20
138.199249
  0
SEQEND
  0
TEXT
  8
1
  10
14.786688
  20
123.947403
  40
0.250000
  50
0.000000
  1
# 32
  7
STANDARD
  0
TEXT
  8
1
  10
14.786686
  20
138.199249
  40
0.250000
  50
0.000000
  1
# 33
  7
STANDARD
  0
POINT
  8
2
  10
14.786688
  20
123.947403
  0
POINT
  8
2
  10
14.786686
  20
138.199249
  0
POLYLINE
  8
85
  66
1
  70
0
  250
1
  0
VERTEX
  8
85
  10
14.786688
  20
123.947403
  0
VERTEX
  8
85
  10
14.786686
  20
138.199249
  0
SEQEND
  0
TEXT
  8
1
  10
14.786688
  20
123.947403
  40
0.250000
  50
0.000000
  1
# 32
  7
STANDARD
  0
TEXT
  8
1
  10
14.786686
  20
138.199249
  40
0.250000
  50
0.000000
  1
# 33
  7
STANDARD
  0
POINT
  8
2
  10
14.786688
  20
123.947403
  0
POINT
  8
2
  10
14.786686
  20
138.199249
  0
POLYLINE
  8
8
  66
1
  70
0
  250
0
  0
VERTEX
  8
8
  10
4.352596
  20
124.097427
  0
VERTEX
  8
8
  10
14.936584
  20
124.097427
  0
SEQEND
  0
TEXT
  8
1
  10
4.352596
  20
124.097427
  40
0.250000
  50
0.000000
  1
# 34
  7
STANDARD
  0
TEXT
  8
1
  10
14.936584
  20
124.097427
  40
0.250000
  50
0.000000
  1
# 35
  7
STANDARD
  0
POINT
  8
2
  10
4.352596
  20
124.097427
  0
POINT
  8
2
  10
14.936584
  20
124.097427
  0
POLYLINE
  8
85
  66
1
  70
0
  250
1
  0
VERTEX
  8
85
  10
4.352596
  20
124.097427
  0
VERTEX
  8
85
  10
14.936584
  20
124.097427
  0
SEQEND
  0
TEXT
  8
1
  10
4.352596
  20
124.097427
  40
0.250000
  50
0.000000
  1
# 34
  7
STANDARD
  0
TEXT
  8
1
  10
14.936584
  20
124.097427
  40
0.250000
  50
0.000000
  1
# 35
  7
STANDARD
  0
POINT
  8
2
  10
4.352596
  20
124.097427
  0
POINT
  8
2
  10
14.936584
  20
124.097427
  0
POLYLINE
  8
8
  66
1
  70
0
  250
0
  0
VERTEX
  8
8
  10
6.297915
  20
107.009933
  0
VERTEX
  8
8
  10
22.808657
  20
107.009933
  0
SEQEND
  0
TEXT
  8
1
  10
6.297915
  20
107.009933
  40
0.250000
  50
0.000000
  1
# 36
  7
STANDARD
  0
TEXT
  8
1
  10
22.808657
  20
107.009933
  40
0.250000
  50
0.000000
  1
# 37
  7
STANDARD
  0
POINT
  8
2
  10
6.297915
  20
107.009933
  0
POINT
  8
2
  10
22.808657
  20
107.009933
  0
POLYLINE
  8
85
  66
1
  70
0
  250
1
  0
VERTEX
  8
85
  10
6.297915
  20
107.009933
  0
VERTEX
  8
85
  10
22.808657
  20
107.009933
  0
SEQEND
  0
TEXT
  8
1
  10
6.297915
  20
107.009933
  40
0.250000
  50
0.000000
  1
# 36
  7
STANDARD
  0
TEXT
  8
1
  10
22.808657
  20
107.009933
  40
0.250000
  50
0.000000
  1
# 37
  7
STANDARD
  0
POINT
  8
2
  10
6.297915
  20
107.009933
  0
POINT
  8
2
  10
22.808657
  20
107.009933
  0
POLYLINE
  8
8
  66
1
  70
0
  250
0
  0
VERTEX
  8
8
  10
6.447816
  20
108.009933
  0
VERTEX
  8
8
  10
6.447821
  20
88.717957
  0
SEQEND
  0
TEXT
  8
1
  10
6.447816
  20
108.009933
  40
0.250000
  50
0.000000
  1
# 38
  7
STANDARD
  0
TEXT
  8
1
  10
6.447821
  20
88.717957
  40
0.250000
  50
0.000000
  1
# 39
  7
STANDARD
  0
POINT
  8
2
  10
6.447816
  20
108.009933
  0
POINT
  8
2
  10
6.447821
  20
88.717957
  0
POLYLINE
  8
85
  66
1
  70
0
  250
1
  0
VERTEX
  8
85
  10
6.447816
  20
108.009933
  0
VERTEX
  8
85
  10
6.447821
  20
88.717957
  0
SEQEND
  0
TEXT
  8
1
  10
6.447816
  20
108.009933
  40
0.250000
  50
0.000000
  1
# 38
  7
STANDARD
  0
TEXT
  8
1
  10
6.447821
  20
88.717957
  40
0.250000
  50
0.000000
  1
# 39
  7
STANDARD
  0
POINT
  8
2
  10
6.447816
  20
108.009933
  0
POINT
  8
2
  10
6.447821
  20
88.717957
  0
POLYLINE
  8
8
  66
1
  70
0
  250
0
  0
VERTEX
  8
8
  10
22.658754
  20
108.009933
  0
VERTEX
  8
8
  10
22.658751
  20
88.717957
  0
SEQEND
  0
TEXT
  8
1
  10
22.658754
  20
108.009933
  40
0.250000
  50
0.000000
  1
# 40
  7
STANDARD
  0
TEXT
  8
1
  10
22.658751
  20
88.717957
  40
0.250000
  50
0.000000
  1
# 41
  7
STANDARD
  0
POINT
  8
2
  10
22.658754
  20
108.009933
  0
POINT
  8
2
  10
22.658751
  20
88.717957
  0
POLYLINE
  8
85
  66
1
  70
0
  250
1
  0
VERTEX
  8
85
  10
22.658754
  20
108.009933
  0
VERTEX
  8
85
  10
22.658751
  20
88.717957
  0
SEQEND
  0
TEXT
  8
1
  10
22.658754
  20
108.009933
  40
0.250000
  50
0.000000
  1
# 40
  7
STANDARD
  0
TEXT
  8
1
  10
22.658751
  20
88.717957
  40
0.250000
  50
0.000000
  1
# 41
  7
STANDARD
  0
POINT
  8
2
  10
22.658754
  20
108.009933
  0
POINT
  8
2
  10
22.658751
  20
88.717957
  0
POLYLINE
  8
8
  66
1
  70
0
  250
0
  0
VERTEX
  8
8
  10
-3.333923
  20
139.301285
  0
VERTEX
  8
8
  10
-3.333923
  20
88.717957
  0
SEQEND
  0
TEXT
  8
1
  10
-3.333923
  20
139.301285
  40
0.250000
  50
0.000000
  1
# 42
  7
STANDARD
  0
TEXT
  8
1
  10
-3.333923
  20
88.717957
  40
0.250000
  50
0.000000
  1
# 43
  7
STANDARD
  0
POINT
  8
2
  10
-3.333923
  20
139.301285
  0
POINT
  8
2
  10
-3.333923
  20
88.717957
  0
POLYLINE
  8
85
  66
1
  70
0
  250
1
  0
VERTEX
  8
85
  10
-3.333923
  20
139.301285
  0
VERTEX
  8
85
  10
-3.333923
  20
88.717957
  0
SEQEND
  0
TEXT
  8
1
  10
-3.333923
  20
139.301285
  40
0.250000
  50
0.000000
  1
# 42
  7
STANDARD
  0
TEXT
  8
1
  10
-3.333923
  20
88.717957
  40
0.250000
  50
0.000000
  1
# 43
  7
STANDARD
  0
POINT
  8
2
  10
-3.333923
  20
139.301285
  0
POINT
  8
2
  10
-3.333923
  20
88.717957
  0
POLYLINE
  8
8
  66
1
  70
0
  250
0
  0
VERTEX
  8
8
  10
-3.333923
  20
120.046829
  0
VERTEX
  8
8
  10
-2.333923
  20
119.778885
  0
VERTEX
  8
8
  10
-1.601993
  20
119.046829
  0
VERTEX
  8
8
  10
-1.333923
  20
118.046829
  0
VERTEX
  8
8
  10
-1.601993
  20
117.046829
  0
VERTEX
  8
8
  10
-2.333923
  20
116.314789
  0
VERTEX
  8
8
  10
-3.333923
  20
116.046829
  0
SEQEND
  0
TEXT
  8
1
  10
-3.333923
  20
120.046829
  40
0.250000
  50
0.000000
  1
# 44
  7
STANDARD
  0
TEXT
  8
1
  10
-3.333923
  20
116.046829
  40
0.250000
  50
0.000000
  1
# 45
  7
STANDARD
  0
POINT
  8
2
  10
-3.333923
  20
120.046829
  0
POINT
  8
2
  10
-3.333923
  20
116.046829
  0
POINT
  8
3
  10
-2.333923
  20
119.778885
  0
POINT
  8
3
  10
-1.601993
  20
119.046829
  0
POINT
  8
3
  10
-1.333923
  20
118.046829
  0
POINT
  8
3
  10
-1.601993
  20
117.046829
  0
POINT
  8
3
  10
-2.333923
  20
116.314789
  0
POLYLINE
  8
85
  66
1
  70
0
  250
1
  0
VERTEX
  8
85
  10
-3.333923
  20
120.046829
  0
VERTEX
  8
85
  10
-2.333923
  20
119.778885
  0
VERTEX
  8
85
  10
-1.601993
  20
119.046829
  0
VERTEX
  8
85
  10
-1.333923
  20
118.046829
  0
VERTEX
  8
85
  10
-1.601993
  20
117.046829
  0
VERTEX
  8
85
  10
-2.333923
  20
116.314789
  0
VERTEX
  8
85
  10
-3.333923
  20
116.046829
  0
SEQEND
  0
TEXT
  8
1
  10
-3.333923
  20
120.046829
  40
0.250000
  50
0.000000
  1
# 44
  7
STANDARD
  0
TEXT
  8
1
  10
-3.333923
  20
116.046829
  40
0.250000
  50
0.000000
  1
# 45
  7
STANDARD
  0
POINT
  8
2
  10
-3.333923
  20
120.046829
  0
POINT
  8
2
  10
-3.333923
  20
116.046829
  0
POINT
  8
3
  10
-2.333923
  20
119.778885
  0
POINT
  8
3
  10
-1.601993
  20
119.046829
  0
POINT
  8
3
  10
-1.333923
  20
118.046829
  0
POINT
  8
3
  10
-1.601993
  20
117.046829
  0
POINT
  8
3
  10
-2.333923
  20
116.314789
  0
POLYLINE
  8
8
  66
1
  70
0
  250
0
  0
VERTEX
  8
8
  10
-3.333923
  20
119.046829
  0
VERTEX
  8
8
  10
-2.833923
  20
118.912857
  0
VERTEX
  8
8
  10
-2.467714
  20
118.546829
  0
VERTEX
  8
8
  10
-2.333923
  20
118.046829
  0
VERTEX
  8
8
  10
-2.467714
  20
117.546829
  0
VERTEX
  8
8
  10
-2.833923
  20
117.180817
  0
VERTEX
  8
8
  10
-3.333923
  20
117.046829
  0
SEQEND
  0
TEXT
  8
1
  10
-3.333923
  20
119.046829
  40
0.250000
  50
0.000000
  1
# 46
  7
STANDARD
  0
TEXT
  8
1
  10
-3.333923
  20
117.046829
  40
0.250000
  50
0.000000
  1
# 47
  7
STANDARD
  0
POINT
  8
2
  10
-3.333923
  20
119.046829
  0
POINT
  8
2
  10
-3.333923
  20
117.046829
  0
POINT
  8
3
  10
-2.833923
  20
118.912857
  0
POINT
  8
3
  10
-2.467714
  20
118.546829
  0
POINT
  8
3
  10
-2.333923
  20
118.046829
  0
POINT
  8
3
  10
-2.467714
  20
117.546829
  0
POINT
  8
3
  10
-2.833923
  20
117.180817
  0
POLYLINE
  8
85
  66
1
  70
0
  250
1
  0
VERTEX
  8
85
  10
-3.333923
  20
119.046829
  0
VERTEX
  8
85
  10
-2.833923
  20
118.912857
  0
VERTEX
  8
85
  10
-2.467714
  20
118.546829
  0
VERTEX
  8
85
  10
-2.333923
  20
118.046829
  0
VERTEX
  8
85
  10
-2.467714
  20
117.546829
  0
VERTEX
  8
85
  10
-2.833923
  20
117.180817
  0
VERTEX
  8
85
  10
-3.333923
  20
117.046829
  0
SEQEND
  0
TEXT
  8
1
  10
-3.333923
  20
119.046829
  40
0.250000
  50
0.000000
  1
# 46
  7
STANDARD
  0
TEXT
  8
1
  10
-3.333923
  20
117.046829
  40
0.250000
  50
0.000000
  1
# 47
  7
STANDARD
  0
POINT
  8
2
  10
-3.333923
  20
119.046829
  0
POINT
  8
2
  10
-3.333923
  20
117.046829
  0
POINT
  8
3
  10
-2.833923
  20
118.912857
  0
POINT
  8
3
  10
-2.467714
  20
118.546829
  0
POINT
  8
3
  10
-2.333923
  20
118.046829
  0
POINT
  8
3
  10
-2.467714
  20
117.546829
  0
POINT
  8
3
  10
-2.833923
  20
117.180817
  0
POLYLINE
  8
8
  66
1
  70
0
  250
0
  0
VERTEX
  8
8
  10
-3.333923
  20
139.301285
  0
VERTEX
  8
8
  10
-3.333923
  20
88.717957
  0
SEQEND
  0
TEXT
  8
1
  10
-3.333923
  20
139.301285
  40
0.250000
  50
0.000000
  1
# 42
  7
STANDARD
  0
TEXT
  8
1
  10
-3.333923
  20
88.717957
  40
0.250000
  50
0.000000
  1
# 43
  7
STANDARD
  0
POINT
  8
2
  10
-3.333923
  20
139.301285
  0
POINT
  8
2
  10
-3.333923
  20
88.717957
  0
POLYLINE
  8
85
  66
1
  70
0
  250
1
  0
VERTEX
  8
85
  10
-3.333923
  20
139.301285
  0
VERTEX
  8
85
  10
-3.333923
  20
88.717957
  0
SEQEND
  0
TEXT
  8
1
  10
-3.333923
  20
139.301285
  40
0.250000
  50
0.000000
  1
# 42
  7
STANDARD
  0
TEXT
  8
1
  10
-3.333923
  20
88.717957
  40
0.250000
  50
0.000000
  1
# 43
  7
STANDARD
  0
POINT
  8
2
  10
-3.333923
  20
139.301285
  0
POINT
  8
2
  10
-3.333923
  20
88.717957
  0
ENDBLK
  0
ENDSEC
  0
SECTION
  2
ENTITIES
  0
INSERT
  8
1
  2
3_M
  10
0.000000
  20
0.000000
  0
INSERT
  8
1
  2
5_M
  10
0.000000
  20
0.000000
  0
INSERT
  8
1
  2
7_M
  10
0.000000
  20
0.000000
  0
INSERT
  8
1
  2
9_M
  10
0.000000
  20
0.000000
  0
INSERT
  8
1
  2
10_M
  10
0.000000
  20
0.000000
  0
INSERT
  8
1
  2
2_M
  10
0.000000
  20
0.000000
  0
INSERT
  8
1
  2
6_M
  10
0.000000
  20
0.000000
  0
INSERT
  8
1
  2
4_M
  10
0.000000
  20
0.000000
  0
TEXT
  8
1
  10
0.000000
  20
0.000000
  40
0.250000
  50
0.000000
  1
STYLE NAME: Scrub_Médico_Clo
  7
STANDARD
  0
TEXT
  8
1
  10
0.000000
  20
0.000000
  40
0.250000
  50
0.000000
  1
CREATION DATE: 10-06-2026
  7
STANDARD
  0
TEXT
  8
1
  10
0.000000
  20
0.000000
  40
0.250000
  50
0.000000
  1
CREATION TIME: 19:48
  7
STANDARD
  0
TEXT
  8
1
  10
0.000000
  20
0.000000
  40
0.250000
  50
0.000000
  1
AUTHOR: CLO Virtual Fashion Inc.
  7
STANDARD
  0
TEXT
  8
1
  10
0.000000
  20
0.000000
  40
0.250000
  50
0.000000
  1
PRODUCT: CLO Standalone 6.1.186
  7
STANDARD
  0
TEXT
  8
1
  10
0.000000
  20
0.000000
  40
0.250000
  50
0.000000
  1
VERSION: 3
  7
STANDARD
  0
TEXT
  8
1
  10
0.000000
  20
0.000000
  40
0.250000
  50
0.000000
  1
SAMPLE SIZE: M
  7
STANDARD
  0
TEXT
  8
1
  10
0.000000
  20
0.000000
  40
0.250000
  50
0.000000
  1
UNITS: METRIC
  7
STANDARD
  0
ENDSEC
  0
EOF
